<?xml version="1.0" standalone="no"?>
<!DOCTYPE svg PUBLIC "-//W3C//DTD SVG 1.1//EN" "http://www.w3.org/Graphics/SVG/1.1/DTD/svg11.dtd" >
<svg xmlns="http://www.w3.org/2000/svg">
<metadata></metadata>
<defs>
<font id="tt_firslight" horiz-adv-x="1116" >
<font-face units-per-em="2048" ascent="1638" descent="-410" />
<missing-glyph horiz-adv-x="327" />
<glyph horiz-adv-x="0" />
<glyph horiz-adv-x="0" />
<glyph horiz-adv-x="682" />
<glyph unicode="&#xd;" horiz-adv-x="0" />
<glyph unicode=" "  horiz-adv-x="327" />
<glyph unicode="&#x09;" horiz-adv-x="327" />
<glyph unicode="&#xa0;" horiz-adv-x="327" />
<glyph unicode="!" horiz-adv-x="512" d="M205 41q0 23 14 37t37 14t37 -14t14 -37t-14 -37t-37 -14t-37 14t-14 37zM225 666v727h62v-727l-11 -277h-40z" />
<glyph unicode="&#x22;" horiz-adv-x="655" d="M164 1116v277h61v-277l-10 -194h-41zM430 1116v277h62v-277l-11 -194h-41z" />
<glyph unicode="#" horiz-adv-x="1290" d="M41 410v61h278l130 451h-275v61h291l119 410h61l-119 -410h389l119 410h62l-119 -410h272v-61h-288l-130 -451h285v-61h-303l-117 -410h-61l117 410h-390l-116 -410h-62l117 410h-260zM381 471h389l129 451h-389z" />
<glyph unicode="$" horiz-adv-x="1105" d="M102 430h62q44 -98 139 -161.5t250 -63.5q175 0 272 74.5t97 181.5q0 62 -42.5 103.5t-110 63t-149.5 37.5t-164 36t-149.5 49t-110 85.5t-42.5 137.5q0 120 102.5 208.5t265.5 88.5v205h62v-205q146 0 247 -81.5t142 -205.5h-62q-93 225 -358 225q-161 0 -249.5 -68 t-88.5 -167q0 -68 42.5 -114t110 -69.5t149.5 -40t164 -35t149.5 -45t110 -79t42.5 -129.5q0 -129 -110.5 -223.5t-288.5 -94.5v-204h-62v204q-81 0 -152.5 24.5t-123.5 66t-88 91t-56 105.5z" />
<glyph unicode="%" horiz-adv-x="1474" d="M102 1085q0 143 84.5 235.5t202.5 92.5t202.5 -92.5t84.5 -235.5t-84 -235t-203 -92t-203 92t-84 235zM164 1085q0 -120 65 -193t160 -73t160 73t65 193t-65 193.5t-160 73.5t-160 -73.5t-65 -193.5zM266 0l871 1393h71l-870 -1393h-72zM799 307q0 143 84 235.5t202 92.5 t202.5 -92.5t84.5 -235.5t-84 -235t-203 -92q-118 0 -202 92t-84 235zM860 307q0 -120 65 -193t160 -73t160.5 73t65.5 193t-65.5 193t-160.5 73t-160 -73t-65 -193z" />
<glyph unicode="&#x26;" horiz-adv-x="1208" d="M133 348q0 75 22.5 144t59 119t80 93t87 71t80 48t58.5 29l23 8l-297 461v72h778v-62h-707v-10l850 -1321h-71l-92 143q-6 -8 -18 -22t-53 -49t-86.5 -62t-117 -49t-145.5 -22q-196 0 -323.5 118.5t-127.5 290.5zM195 348q0 -149 107.5 -248.5t281.5 -99.5q66 0 130.5 20 t109 49t80 57.5t52.5 48.5l17 20l-400 614q-8 -3 -21.5 -8t-53 -24.5t-75 -42.5t-79 -62.5t-75 -84t-53 -107.5t-21.5 -132z" />
<glyph unicode="'" horiz-adv-x="389" d="M164 1116v277h61v-277l-10 -194h-41z" />
<glyph unicode="(" horiz-adv-x="716" d="M174 594q0 123 25 241.5t64.5 209.5t88 172.5t96.5 138.5t87.5 98.5t64.5 61.5l25 20l30 -51q-9 -7 -24 -19.5t-58.5 -57t-83 -94t-88 -129t-83 -164t-58.5 -197.5t-24 -230t23 -229.5t60 -198.5t82 -163t89.5 -130.5t81.5 -92.5t60 -58l23 -19l-30 -51q-9 7 -25.5 20.5 t-63.5 60.5t-89.5 99.5t-94.5 137t-89.5 173.5t-63 208.5t-25.5 242.5z" />
<glyph unicode=")" horiz-adv-x="716" d="M61 -297q9 7 24 19.5t58.5 57t83.5 94t88.5 129t83 164t58.5 197.5t24 230t-23 229.5t-60 198.5t-82 163t-90 130.5t-82 92.5t-60 58l-23 19l31 51q9 -7 25.5 -20.5t63.5 -60.5t89.5 -99.5t94.5 -137t89.5 -173.5t63 -208.5t25.5 -242.5t-25 -241.5t-64.5 -209.5 t-87.5 -172.5t-96.5 -138.5t-88 -98.5t-64.5 -61.5l-25 -20z" />
<glyph unicode="*" horiz-adv-x="716" d="M82 1106v61h246v226h61v-226h246v-61h-225l153 -225l-51 -31l-154 225l-153 -225l-51 31l153 225h-225z" />
<glyph unicode="+" horiz-adv-x="921" d="M82 604v62h348v368h62v-368h348v-62h-348v-368h-62v368h-348z" />
<glyph unicode="," horiz-adv-x="368" d="M102 -174l62 170q-31 14 -31 45q0 23 14 37t37 14t37.5 -14t14.5 -37q0 -9 -3 -19t-5 -16l-3 -6l-92 -174h-31z" />
<glyph unicode="-" horiz-adv-x="880" d="M82 604v62h717v-62h-717z" />
<glyph unicode="." horiz-adv-x="368" d="M133 41q0 23 14 37t37 14t37.5 -14t14.5 -37t-14.5 -37t-37.5 -14t-37 14t-14 37z" />
<glyph unicode="/" horiz-adv-x="757" d="M61 0l574 1393h61l-573 -1393h-62z" />
<glyph unicode="0" horiz-adv-x="1474" d="M123 696q0 164 53 308t139 241t196.5 153t225.5 56t225.5 -56t197 -153t139.5 -241t53 -308t-53 -308t-139.5 -240.5t-197 -152.5t-225.5 -56t-225.5 55.5t-196.5 152.5t-139 241t-53 308zM184 696q0 -152 47.5 -285t125.5 -221.5t177 -139t203 -50.5t203 50.5t177 139 t125.5 221.5t47.5 285t-47.5 285t-125.5 222t-177 139.5t-203 50.5t-203 -50.5t-177 -139.5t-125.5 -222t-47.5 -285z" />
<glyph unicode="1" horiz-adv-x="614" d="M82 1075v62q46 0 85.5 14t66 36.5t47.5 50t33 55t20 50t11 36.5l3 14h62v-1393h-62v1229q-3 -6 -9 -16.5t-28.5 -37t-50.5 -47t-75.5 -37t-102.5 -16.5z" />
<glyph unicode="2" horiz-adv-x="1187" d="M113 0v61q0 93 30.5 173t82 138.5t118.5 109.5t140.5 92.5t147.5 81t141 81t118.5 86.5t82 104t30.5 128q0 149 -102.5 243.5t-276.5 94.5q-187 0 -294 -76t-157 -211h-61q24 76 65 137t102 109.5t149 75t196 26.5q196 0 318 -113.5t122 -285.5q0 -79 -30.5 -146.5 t-82 -118t-118.5 -95.5t-140.5 -85.5t-147.5 -81t-141 -87.5t-118.5 -100t-82 -125t-30.5 -155h911v-61h-972z" />
<glyph unicode="3" horiz-adv-x="1187" d="M61 328h62q49 -149 165.5 -238.5t305.5 -89.5q183 0 296.5 109.5t113.5 279.5t-113.5 279.5t-296.5 109.5h-184v62l532 491h-778v62h860v-62l-532 -491h102q205 0 338 -129t133 -322t-132.5 -321.5t-338.5 -128.5q-212 0 -348 108.5t-185 280.5z" />
<glyph unicode="4" horiz-adv-x="1208" d="M82 348v62l502 983h71l-501 -983h737v430h61v-430h205v-62h-205v-348h-61v348h-809z" />
<glyph unicode="5" horiz-adv-x="1167" d="M61 328h62q49 -149 164 -238.5t297 -89.5q183 0 301.5 114.5t118.5 284.5t-118.5 285t-301.5 115h-338l102 594h656v-62h-605l-82 -471h267q205 0 343 -134t138 -327t-137.5 -326.5t-343.5 -133.5q-205 0 -339.5 108.5t-183.5 280.5z" />
<glyph unicode="6" horiz-adv-x="1208" d="M102 440q0 60 14 119t33.5 100.5t39 74.5t33.5 49l14 16l481 594h71l-419 -521h10q10 8 29.5 19.5t80.5 31t125 19.5q141 0 259 -67.5t185.5 -183t67.5 -251.5t-67.5 -251t-185.5 -182.5t-259 -67.5t-259 67.5t-185.5 182.5t-67.5 251zM164 440q0 -185 129.5 -312.5 t320.5 -127.5t321 127.5t130 312.5t-130 313t-321 128t-320.5 -128t-129.5 -313z" />
<glyph unicode="7" horiz-adv-x="972" d="M41 1331v62h891v-72l-615 -1321h-61l614 1331h-829z" />
<glyph unicode="8" horiz-adv-x="1269" d="M102 358q0 67 20.5 124.5t53 96t71.5 69.5t78.5 48.5t72 29t52.5 15.5l21 4v13q-6 1 -17.5 4t-43 14.5t-60.5 26.5t-64.5 42t-61 59t-43 79.5t-17.5 101.5q0 69 34 135t93.5 118.5t149.5 84t194 31.5t194 -31.5t149.5 -84t93.5 -118.5t34 -135q0 -54 -17 -101.5t-44 -80 t-60 -59t-65.5 -42t-59.5 -26t-44 -14.5l-17 -4v-13q8 -1 21 -4t51.5 -15.5t73 -29.5t77 -48.5t73 -69.5t51.5 -95.5t21 -124.5q0 -81 -37.5 -156.5t-104.5 -134t-169 -93.5t-221 -35t-221 35t-169 93.5t-105 134t-38 156.5zM164 358q0 -69 32.5 -133.5t91 -114.5t149 -80 t198.5 -30t198.5 30t149 80t91 114.5t32.5 133.5q0 146 -129 252.5t-342 106.5t-342 -106.5t-129 -252.5zM225 1085q0 -121 115 -214t295 -93t294.5 92.5t114.5 214.5q0 123 -113 215.5t-296 92.5t-296.5 -93t-113.5 -215z" />
<glyph unicode="9" horiz-adv-x="1208" d="M82 952q0 136 67.5 251.5t185.5 183t259 67.5t259 -67.5t185.5 -183t67.5 -251.5q0 -60 -13.5 -119t-33 -100.5t-39.5 -74t-34 -48.5l-13 -16l-481 -594h-72l420 520h-11q-4 -3 -11 -7.5t-30.5 -16.5t-49 -21t-65 -16.5t-79.5 -7.5q-141 0 -259 67.5t-185.5 182.5 t-67.5 251zM143 952q0 -185 130 -312.5t321 -127.5t320.5 127.5t129.5 312.5t-129.5 313t-320.5 128t-321 -128t-130 -313z" />
<glyph unicode=":" horiz-adv-x="368" d="M133 41q0 23 14 37t37 14t37.5 -14t14.5 -37t-14.5 -37t-37.5 -14t-37 14t-14 37zM133 881q0 23 14 37t37 14t37.5 -14t14.5 -37t-14.5 -37.5t-37.5 -14.5t-37 14.5t-14 37.5z" />
<glyph unicode=";" horiz-adv-x="368" d="M102 -174l62 170q-31 14 -31 45q0 23 14 37t37 14t37.5 -14t14.5 -37q0 -9 -3 -19t-5 -16l-3 -6l-92 -174h-31zM133 881q0 23 14 37t37 14t37.5 -14t14.5 -37t-14.5 -37.5t-37.5 -14.5t-37 14.5t-14 37.5z" />
<glyph unicode="&#x3c;" horiz-adv-x="952" d="M82 430v72l788 379v-62l-727 -348v-10l727 -348v-62z" />
<glyph unicode="=" horiz-adv-x="890" d="M92 399v62h707v-62h-707zM92 768v61h707v-61h-707z" />
<glyph unicode="&#x3e;" horiz-adv-x="952" d="M82 51v62l727 348v10l-727 348v62l788 -379v-72z" />
<glyph unicode="?" horiz-adv-x="1064" d="M41 1106q49 157 172 252.5t319 95.5q187 0 309 -109t122 -260q0 -79 -25 -138t-64.5 -95.5t-87.5 -67.5t-96.5 -63.5t-88 -72.5t-64.5 -106t-25 -153h-61q0 93 25 164t64.5 113.5t87.5 76.5t96 63.5t87.5 63.5t64.5 88.5t25 126.5q0 127 -102.5 217.5t-266.5 90.5 q-323 0 -430 -287h-61zM430 41q0 23 14 37t37 14t37 -14t14 -37t-14 -37t-37 -14t-37 14t-14 37z" />
<glyph unicode="@" horiz-adv-x="1689" d="M102 655q0 155 60 295.5t161 241.5t241.5 161t295.5 60q160 0 301.5 -53t238 -141t152.5 -203.5t56 -237.5q0 -207 -144.5 -323.5t-388.5 -116.5v96h-10q-3 -4 -8.5 -11.5t-26 -25.5t-43 -32t-60 -25.5t-77.5 -11.5q-124 0 -221 98.5t-97 228.5t97 229t221 99 q40 0 77 -11.5t61 -28.5t42 -33.5t26 -27.5l9 -12h10v93h62v-564q178 0 293.5 108t115.5 271q0 111 -50.5 215t-138.5 183.5t-218 127.5t-279 48q-143 0 -272 -54.5t-222 -147.5t-147.5 -222.5t-54.5 -272.5t54.5 -272t147.5 -222t222 -147.5t272 -54.5q66 0 132.5 10.5 t114.5 25.5t86 30t57 25l20 11v-61q-7 -4 -20 -11t-56 -24.5t-88 -31t-112.5 -24.5t-133.5 -11q-155 0 -295.5 59.5t-241.5 161t-161 241.5t-60 295zM594 655q0 -106 77.5 -186t178.5 -80q43 0 82 14.5t64 35.5t44 42.5t27 36.5l8 14v246q-3 6 -8.5 15.5t-26 34.5t-44.5 44 t-63.5 34.5t-82.5 15.5q-100 0 -178 -80t-78 -187z" />
<glyph unicode="A" horiz-adv-x="1392" d="M82 0l338 1393h553l338 -1393h-62l-96 389h-913l-97 -389h-61zM254 451h885l-217 880h-451z" />
<glyph unicode="B" horiz-adv-x="1423" d="M205 0v1393h583q167 0 268 -95t101 -243q0 -66 -19 -120t-46 -83.5t-54 -50t-46 -27.5l-19 -6v-10q7 -1 19.5 -3t49 -13t69 -26t73 -44.5t69 -66t48.5 -93t20 -123.5q0 -164 -120.5 -276.5t-309.5 -112.5h-686zM266 61h625q166 0 267.5 93.5t101.5 234.5t-101.5 234.5 t-267.5 93.5h-625v-656zM266 778h522q144 0 226 76t82 201t-82 200.5t-226 75.5h-522v-553z" />
<glyph unicode="C" horiz-adv-x="1556" d="M113 696q0 150 60.5 291t158 242.5t226.5 163t261 61.5q98 0 187.5 -24t158 -64t124 -93.5t91 -111t54.5 -117.5h-62q-24 65 -70 124.5t-113.5 111t-163.5 82.5t-206 31q-117 0 -234 -57.5t-207.5 -152t-147 -224t-56.5 -263.5t56.5 -263.5t147 -223.5t207.5 -151.5 t234 -57.5q119 0 219 31.5t171.5 87t121.5 122.5t82 148h62q-28 -87 -83.5 -165.5t-136 -143.5t-194 -103t-242.5 -38q-132 0 -261 61.5t-226.5 163t-158 242t-60.5 290.5z" />
<glyph unicode="D" horiz-adv-x="1433" d="M205 0v1393h399q212 0 375.5 -88.5t252.5 -247t89 -361.5t-89 -361.5t-252.5 -246.5t-375.5 -88h-399zM266 61h338q298 0 477 174.5t179 460.5t-179 460.5t-477 174.5h-338v-1270z" />
<glyph unicode="E" horiz-adv-x="1228" d="M205 0v1393h952v-62h-891v-594h707v-61h-707v-615h891v-61h-952z" />
<glyph unicode="F" horiz-adv-x="1167" d="M205 0v1393h911v-62h-850v-635h686v-61h-686v-635h-61z" />
<glyph unicode="G" horiz-adv-x="1597" d="M113 696q0 150 60.5 291t158 242.5t226.5 163t261 61.5q98 0 187.5 -24t158 -64t124 -93.5t91 -111t54.5 -117.5h-62q-24 65 -70 124.5t-113.5 111t-163.5 82.5t-206 31q-117 0 -234 -57.5t-207.5 -152t-147 -224t-56.5 -263.5t56.5 -263.5t147 -223.5t207.5 -151.5 t234 -57.5q166 0 305 79.5t219 216t80 298.5h-501v61h563v-41q0 -186 -89 -341.5t-242 -244.5t-335 -89q-132 0 -261 61.5t-226.5 163t-158 242t-60.5 290.5z" />
<glyph unicode="H" horiz-adv-x="1433" d="M205 0v1393h61v-656h901v656h62v-1393h-62v676h-901v-676h-61z" />
<glyph unicode="I" horiz-adv-x="471" d="M205 0v1393h61v-1393h-61z" />
<glyph unicode="J" horiz-adv-x="1085" d="M41 225h61q33 -100 115.5 -162.5t212.5 -62.5q172 0 280.5 118.5t108.5 321.5v953h62v-953q0 -226 -127.5 -363.5t-323.5 -137.5q-146 0 -247 81t-142 205z" />
<glyph unicode="K" horiz-adv-x="1249" d="M205 0v1393h61v-850l819 850h82l-522 -543l543 -850h-72l-512 809l-338 -348v-461h-61z" />
<glyph unicode="L" horiz-adv-x="1146" d="M205 0v1393h61v-1332h850v-61h-911z" />
<glyph unicode="M" horiz-adv-x="1761" d="M205 0v1393h71l605 -738l604 738h71v-1393h-61v1311l-614 -748l-615 748v-1311h-61z" />
<glyph unicode="N" horiz-adv-x="1474" d="M205 0v1393h71l932 -1301v1301h62v-1393h-72l-932 1300v-1300h-61z" />
<glyph unicode="O" horiz-adv-x="1679" d="M113 696q0 154 59.5 295t158 242t232 161t277.5 60t277.5 -60t232 -161t158 -242t59.5 -295t-59.5 -295t-158 -241.5t-232 -160.5t-277.5 -60t-277.5 60t-232 160.5t-158 241.5t-59.5 295zM174 696q0 -143 54 -272.5t144.5 -222t213 -147t254.5 -54.5t254.5 54.5 t212.5 147t144 222t54 272.5t-54 272.5t-144 222.5t-212.5 147.5t-254.5 54.5t-254.5 -54.5t-213 -147.5t-144.5 -222.5t-54 -272.5z" />
<glyph unicode="P" horiz-adv-x="1382" d="M205 0v1393h563q228 0 370 -136t142 -344q0 -211 -142 -347t-370 -136h-502v-430h-61zM266 492h502q205 0 328 116.5t123 304.5q0 185 -123 301.5t-328 116.5h-502v-839z" />
<glyph unicode="Q" horiz-adv-x="1679" d="M113 696q0 154 59.5 295t158 242t232 161t277.5 60t277.5 -60t232 -161t158 -242t59.5 -295q0 -95 -22 -184.5t-53.5 -149.5t-63.5 -107t-54 -69l-22 -22l215 -225l-41 -41l-215 225q-7 -7 -21.5 -19.5t-61.5 -44.5t-98.5 -56t-130.5 -44t-159 -20q-144 0 -277.5 60 t-232 160.5t-158 241.5t-59.5 295zM174 696q0 -143 54 -272.5t144.5 -222t213 -147t254.5 -54.5q72 0 142.5 17t120 41t89 48t58.5 41l20 17l-164 174l41 41l164 -174q8 8 21 22t46.5 62.5t59 101.5t46.5 136t21 169q0 143 -54 272.5t-144 222.5t-212.5 147.5t-254.5 54.5 t-254.5 -54.5t-213 -147.5t-144.5 -222.5t-54 -272.5z" />
<glyph unicode="R" horiz-adv-x="1413" d="M205 0v1393h594q212 0 346.5 -126.5t134.5 -314.5q0 -71 -17.5 -132.5t-45.5 -103t-61.5 -75.5t-67.5 -53.5t-62 -33t-46 -18.5l-17 -4l297 -532h-72l-287 512h-635v-512h-61zM266 573h533q189 0 304.5 107.5t115.5 271.5t-115.5 271.5t-304.5 107.5h-533v-758z" />
<glyph unicode="S" horiz-adv-x="1228" d="M61 328h62q32 -77 73 -134t99 -102.5t138 -68.5t181 -23q198 0 324.5 106t126.5 242q0 70 -31.5 124t-85 88.5t-122.5 61.5t-145.5 48.5t-153 43.5t-145.5 52t-122.5 69t-85 100t-31.5 140q0 73 34 141.5t93.5 121t149.5 84.5t194 32q108 0 197.5 -28t151.5 -77.5 t102.5 -110.5t60.5 -132h-61q-50 135 -157 211t-294 76q-184 0 -296.5 -94.5t-112.5 -223.5q0 -87 51 -148.5t132 -96.5t179.5 -63t196.5 -58.5t179 -71.5t132 -114t51 -175q0 -77 -37.5 -150.5t-103 -131t-163 -92.5t-208.5 -35q-112 0 -205 30t-160 84.5t-113.5 123 t-74.5 151.5z" />
<glyph unicode="T" horiz-adv-x="1187" d="M41 1331v62h1106v-62h-522v-1331h-62v1331h-522z" />
<glyph unicode="U" horiz-adv-x="1474" d="M205 504v889h61v-889q0 -229 131 -366.5t340 -137.5t340 137.5t131 366.5v889h62v-889q0 -252 -150 -408.5t-383 -156.5q-114 0 -212.5 41t-169 114t-110.5 179t-40 231z" />
<glyph unicode="V" horiz-adv-x="1402" d="M92 1393h62l327 -1332h441l329 1332h60l-338 -1393h-543z" />
<glyph unicode="W" horiz-adv-x="1894" d="M102 1393h62l307 -1332h82l317 1332h154l317 -1332h82l308 1332h61l-317 -1393h-185l-317 1331h-51l-318 -1331h-184z" />
<glyph unicode="X" horiz-adv-x="1259" d="M61 0l533 737l-481 656h71l441 -605h10l440 605h72l-481 -656l532 -737h-72l-491 686h-10l-492 -686h-72z" />
<glyph unicode="Y" horiz-adv-x="1290" d="M41 1393h72l532 -861l533 861h71l-573 -922v-471h-62v471z" />
<glyph unicode="Z" horiz-adv-x="1208" d="M82 0v72l973 1259h-932v62h1003v-72l-972 -1260h972v-61h-1044z" />
<glyph unicode="[" horiz-adv-x="655" d="M205 -287v1762h399v-62h-338v-1638h338v-62h-399z" />
<glyph unicode="\" horiz-adv-x="757" d="M61 1393h62l573 -1393h-61z" />
<glyph unicode="]" horiz-adv-x="655" d="M51 -225h338v1638h-338v62h400v-1762h-400v62z" />
<glyph unicode="^" horiz-adv-x="880" d="M102 758l308 635h61l307 -635h-61l-277 563l-276 -563h-62z" />
<glyph unicode="_" horiz-adv-x="716" d="M0 -287h717v-61h-717v61z" />
<glyph unicode="`" horiz-adv-x="471" d="M61 1341l31 62l318 -174l-21 -41z" />
<glyph unicode="a" d="M102 461q0 105 37.5 199t98.5 160t141 104.5t164 38.5q46 0 90 -11.5t77.5 -29.5t63.5 -40t51 -43.5t36 -39.5t23 -29l7 -12h10v164h62v-922h-62v164h-10q-5 -8 -15 -22t-43.5 -49.5t-71 -62.5t-97 -49t-121.5 -22q-84 0 -164 38.5t-141 104.5t-98.5 160t-37.5 199z M164 461q0 -124 54 -226.5t141 -158.5t184 -56q66 0 127 25.5t101.5 61.5t71 72t44.5 61l14 26v389q-5 10 -14.5 26.5t-43.5 59t-72 75t-100 59t-128 26.5q-73 0 -141.5 -33t-121 -90.5t-84.5 -140.5t-32 -176z" />
<glyph unicode="b" horiz-adv-x="1126" d="M164 0v1393h61v-635h11q5 8 14.5 22t43 49.5t71 62.5t97 49t122.5 22q84 0 163.5 -38.5t141 -104.5t98.5 -160t37 -199t-37 -199t-98.5 -160t-141 -104.5t-163.5 -38.5q-62 0 -121 21t-98.5 51.5t-70 60.5t-44.5 51l-14 21h-11v-164h-61zM225 266q5 -10 14.5 -26.5 t43.5 -59t72.5 -75t100.5 -59t128 -26.5q97 0 184 56t141 158.5t54 226.5q0 93 -32 176t-84.5 140.5t-121 90.5t-141.5 33q-66 0 -127.5 -25.5t-101.5 -61.5t-71 -72t-45 -62l-14 -25v-389z" />
<glyph unicode="c" horiz-adv-x="1064" d="M102 461q0 140 64 256t169.5 181t227.5 65q159 0 257 -75t132 -192h-61q-74 205 -328 205q-164 0 -281.5 -125.5t-117.5 -314.5t117.5 -315t281.5 -126q137 0 231 72t128 174h61q-16 -59 -52 -113t-88.5 -98t-125.5 -70t-154 -26q-122 0 -227.5 65t-169.5 181t-64 256z " />
<glyph unicode="d" horiz-adv-x="1126" d="M102 461q0 105 37.5 199t98.5 160t141 104.5t164 38.5q46 0 90 -11.5t77.5 -29.5t63.5 -40t51 -43.5t36 -39.5t23 -29l7 -12h10v635h62v-1393h-62v164h-10q-5 -8 -15 -22t-43.5 -49.5t-71 -62.5t-97 -49t-121.5 -22q-84 0 -164 38.5t-141 104.5t-98.5 160t-37.5 199z M164 461q0 -124 54 -226.5t141 -158.5t184 -56q66 0 127 25.5t101.5 61.5t71 72t44.5 61l14 26v389q-5 10 -14.5 26.5t-43.5 59t-72 75t-100 59t-128 26.5q-73 0 -141.5 -33t-121 -90.5t-84.5 -140.5t-32 -176z" />
<glyph unicode="e" horiz-adv-x="1075" d="M102 461q0 105 37.5 199t98.5 160t141 104.5t164 38.5q83 0 163.5 -38.5t141 -103.5t98 -157t37.5 -193l-41 -41h-778q7 -176 122 -293t277 -117q137 0 231 72t128 174h61q-16 -59 -52 -113t-88.5 -98t-125.5 -70t-154 -26q-122 0 -227.5 65t-169.5 181t-64 256zM164 492 h758q-7 174 -118.5 291.5t-260.5 117.5t-260.5 -117.5t-118.5 -291.5z" />
<glyph unicode="f" horiz-adv-x="563" d="M41 860v62h154v215q0 121 73.5 198.5t182.5 77.5q36 0 74.5 -10.5t58.5 -20.5l20 -10v-61q-71 41 -153 41q-86 0 -140.5 -58.5t-54.5 -156.5v-215h287v-62h-287v-860h-61v860h-154z" />
<glyph unicode="g" d="M102 481q0 97 37.5 187t98.5 154t141.5 102.5t163.5 38.5q62 0 121 -21t98.5 -51.5t70 -60.5t44.5 -51l14 -21h10v164h62v-912q0 -187 -118.5 -313.5t-281.5 -126.5q-159 0 -257.5 74.5t-131.5 191.5h62q74 -205 327 -205q138 0 238 107.5t100 271.5v195h-10 q-5 -8 -14.5 -22t-43 -49.5t-71 -62.5t-97 -49t-122.5 -22q-83 0 -163.5 38t-141.5 102t-98.5 154t-37.5 187zM164 481q0 -115 54 -212.5t141 -152.5t184 -55q66 0 127 25.5t101.5 61.5t71 72t44.5 62l14 25v348q-5 10 -14.5 26.5t-43.5 59t-72 75t-100 59t-128 26.5 q-97 0 -184 -55t-141 -152.5t-54 -212.5z" />
<glyph unicode="h" d="M164 0v1393h61v-635h11q5 8 14.5 22t43 49.5t71 62.5t97 49t122.5 22q170 0 279.5 -113.5t109.5 -296.5v-553h-62v553q0 160 -89.5 254t-237.5 94q-66 0 -127.5 -25.5t-101.5 -61.5t-71 -72t-45 -62l-14 -25v-655h-61z" />
<glyph unicode="i" horiz-adv-x="389" d="M143 1321q0 23 14.5 37t37.5 14t37 -14t14 -37t-14 -37t-37 -14t-37.5 14t-14.5 37zM164 0v922h61v-922h-61z" />
<glyph unicode="j" horiz-adv-x="399" d="M-174 -328q72 -41 154 -41q86 0 140 58.5t54 156.5v1076h62v-1076q0 -121 -73.5 -198.5t-182.5 -77.5q-36 0 -74.5 10t-59.5 20l-20 11v61zM154 1321q0 23 14 37t37 14t37 -14t14 -37t-14 -37t-37 -14t-37 14t-14 37z" />
<glyph unicode="k" horiz-adv-x="962" d="M164 0v1393h61v-1045l574 574h71l-348 -349l410 -573h-72l-379 532l-256 -256v-276h-61z" />
<glyph unicode="l" horiz-adv-x="430" d="M20 1331v62h246v-1393h-61v1331h-185z" />
<glyph unicode="m" horiz-adv-x="1628" d="M154 0v922h61v-164h10q3 8 9 22t29.5 49.5t52.5 62.5t79 49t107 22q69 0 126.5 -24t90.5 -58t56 -68t31 -58l9 -24h10q1 5 4 13.5t15 32.5t26.5 46t40.5 48.5t56.5 46t75 32.5t94.5 13q149 0 248.5 -108t99.5 -282v-573h-62v573q0 151 -80 239.5t-206 88.5t-206.5 -88.5 t-80.5 -239.5v-573h-62v573q0 151 -80 239.5t-206 88.5q-60 0 -112 -26.5t-82.5 -64t-53 -75t-30.5 -63.5l-9 -27v-645h-61z" />
<glyph unicode="n" horiz-adv-x="1105" d="M154 0v922h61v-164h10q5 8 14.5 22t43 49.5t71 62.5t97 49t122.5 22q170 0 280 -113.5t110 -296.5v-553h-62v553q0 160 -90 254t-238 94q-66 0 -127 -25.5t-101.5 -61.5t-71 -72t-44.5 -62l-14 -25v-655h-61z" />
<glyph unicode="o" horiz-adv-x="1146" d="M102 461q0 140 64 256t172 181t235 65t235 -65t172 -181t64 -256t-64 -256t-172 -181t-235 -65t-235 65t-172 181t-64 256zM164 461q0 -190 119 -315.5t290 -125.5t290.5 125.5t119.5 315.5q0 189 -119.5 314.5t-290.5 125.5t-290 -125t-119 -315z" />
<glyph unicode="p" d="M154 -410v1332h61v-164h10q5 8 15 22t43.5 49.5t71 62.5t97 49t121.5 22q84 0 164 -38.5t141 -104.5t98.5 -160t37.5 -199t-37.5 -199t-98.5 -160t-141 -104.5t-164 -38.5q-46 0 -90 11.5t-77.5 29.5t-63.5 40t-51 43.5t-36 39.5t-23 29l-7 12h-10v-574h-61zM215 266 q5 -10 14.5 -26.5t43.5 -59t72 -75t100 -59t128 -26.5q97 0 184 56t141 158.5t54 226.5q0 93 -32 176t-84.5 140.5t-121 90.5t-141.5 33q-66 0 -127 -25.5t-101.5 -61.5t-71 -72t-44.5 -62l-14 -25v-389z" />
<glyph unicode="q" d="M102 461q0 105 37.5 199t98.5 160t141 104.5t164 38.5q62 0 121 -21t98.5 -51.5t70 -60.5t44.5 -51l14 -21h10v164h62v-1332h-62v574h-10q-5 -8 -14.5 -22t-43 -49.5t-71 -62.5t-97 -49t-122.5 -22q-84 0 -164 38.5t-141 104.5t-98.5 160t-37.5 199zM164 461 q0 -124 54 -226.5t141 -158.5t184 -56q66 0 127 25.5t101.5 61.5t71 72t44.5 61l14 26v389q-5 10 -14.5 26.5t-43.5 59t-72 75t-100 59t-128 26.5q-73 0 -141.5 -33t-121 -90.5t-84.5 -140.5t-32 -176z" />
<glyph unicode="r" horiz-adv-x="614" d="M154 0v922h61v-164h10q5 8 14.5 22t43 49.5t71 62.5t97 49t122.5 22h21v-62h-21q-66 0 -127 -25.5t-101.5 -61.5t-71 -72t-44.5 -62l-14 -25v-655h-61z" />
<glyph unicode="s" horiz-adv-x="942" d="M61 246h62q43 -96 131.5 -161t216.5 -65q152 0 234.5 62.5t82.5 153.5q0 56 -36 94t-94 58t-127.5 36t-139.5 35t-128 46t-94 78t-36 124q0 106 93.5 181t254.5 75q136 0 224.5 -65.5t123.5 -160.5h-61q-82 164 -287 164q-139 0 -212.5 -56t-73.5 -138q0 -60 36 -101.5 t94 -63.5t128 -38.5t139.5 -34.5t127.5 -43.5t94 -73.5t36 -116q0 -114 -101.5 -195.5t-277.5 -81.5q-151 0 -259.5 84.5t-150.5 202.5z" />
<glyph unicode="t" horiz-adv-x="655" d="M41 860v62h154v266h61v-266h287v-62h-287v-624q0 -98 54.5 -157t140.5 -59q36 0 74.5 10t58.5 20l20 11v-61q-71 -41 -153 -41q-109 0 -182.5 78t-73.5 199v624h-154z" />
<glyph unicode="u" d="M154 369v553h61v-553q0 -160 90 -254.5t238 -94.5q66 0 127 25.5t101.5 61.5t71 72t44.5 61l14 26v656h62v-922h-62v164h-10q-5 -8 -14.5 -22t-43 -49.5t-71 -62.5t-97 -49t-122.5 -22q-170 0 -279.5 113.5t-109.5 296.5z" />
<glyph unicode="v" horiz-adv-x="1013" d="M82 922h61l195 -861h338l194 861h62l-205 -922h-440z" />
<glyph unicode="w" horiz-adv-x="1392" d="M82 922h61l205 -861h82l195 861h143l195 -861h81l205 861h62l-215 -922h-185l-194 860h-41l-195 -860h-184z" />
<glyph unicode="x" horiz-adv-x="921" d="M61 0l359 481l-338 441h72l307 -400l307 400h72l-338 -441l358 -481h-72l-327 440l-328 -440h-72z" />
<glyph unicode="y" horiz-adv-x="1003" d="M82 922h61l195 -861h328l194 861h62l-205 -922q-38 -168 -83 -262.5t-100 -131t-135 -36.5q-41 0 -79 12t-56 24l-18 13v64q7 -6 19.5 -14.5t52.5 -23t81 -14.5q90 0 151 81.5t105 287.5h-368z" />
<glyph unicode="z" horiz-adv-x="901" d="M61 0v72l687 788h-666v62h737v-72l-686 -789h707v-61h-779z" />
<glyph unicode="{" horiz-adv-x="624" d="M113 563v62h51q54 0 93.5 39.5t39.5 93.5q0 51 -56.5 256t-56.5 256q0 93 58 149t157 56h144v-62h-144q-68 0 -110.5 -40.5t-42.5 -102.5q0 -51 56 -256t56 -256q0 -34 -10.5 -63t-25.5 -46t-30 -28.5t-26 -16.5l-10 -4v-12q4 -1 11 -4.5t24.5 -16t31 -28.5t24.5 -45.5 t11 -63.5q0 -51 -56 -256t-56 -256q0 -62 42.5 -102.5t110.5 -40.5h144v-62h-144q-99 0 -157 56t-58 149q0 51 56.5 256t56.5 256q0 54 -39.5 93.5t-93.5 39.5h-51z" />
<glyph unicode="|" horiz-adv-x="512" d="M225 -205v1741h62v-1741h-62z" />
<glyph unicode="}" horiz-adv-x="624" d="M82 -225h143q68 0 111 40.5t43 102.5q0 51 -56.5 256t-56.5 256q0 34 10.5 63t26 46t30.5 28.5t25 16.5l11 4v12q-4 1 -11 4.5t-25 16t-31.5 28.5t-24.5 45.5t-11 63.5q0 51 56.5 256t56.5 256q0 62 -43 102.5t-111 40.5h-143v62h143q99 0 157 -56t58 -149 q0 -51 -56 -256t-56 -256q0 -54 39.5 -93.5t93.5 -39.5h51v-62h-51q-54 0 -93.5 -39.5t-39.5 -93.5q0 -51 56 -256t56 -256q0 -93 -58 -149t-157 -56h-143v62z" />
<glyph unicode="~" horiz-adv-x="819" d="M72 563q7 83 59 139t115 56q43 0 81 -17t66 -41t55 -48t59 -41t66 -17q41 0 75 41.5t48 122.5l52 -31q-7 -83 -59.5 -139t-115.5 -56q-43 0 -81 17t-66 41t-55 48t-59 41t-66 17q-41 0 -75 -41.5t-48 -122.5z" />
<glyph unicode="&#xa1;" horiz-adv-x="512" d="M205 901q0 23 14 37t37 14t37 -14t14 -37t-14 -37t-37 -14t-37 14t-14 37zM225 276l11 277h40l11 -277v-686h-62v686z" />
<glyph unicode="&#xa2;" horiz-adv-x="1064" d="M102 461q0 202 126 345t304 155v186h62v-186q145 -7 235.5 -81t122.5 -184h-61q-74 205 -328 205q-164 0 -281.5 -125.5t-117.5 -314.5t117.5 -315t281.5 -126q137 0 231 72t128 174h61q-31 -118 -136.5 -207t-252.5 -98v-186h-62v186q-178 12 -304 155t-126 345z" />
<glyph unicode="&#xa3;" horiz-adv-x="1003" d="M41 0v61h82q85 0 139.5 56.5t54.5 148.5v471h-153v62h153v348q0 122 70 194t186 72q36 0 72 -10.5t54 -20.5l18 -10v-61q-62 41 -144 41q-93 0 -143.5 -53t-50.5 -152v-348h276v-62h-276v-471q0 -40 -9.5 -74.5t-23 -55.5t-27 -36.5t-23.5 -21.5l-9 -6v-11h676v-61h-922z " />
<glyph unicode="&#xa4;" horiz-adv-x="1269" d="M72 225v62h164v184h-164v61h164v861h430q227 0 364 -129.5t137 -331.5t-137 -331.5t-364 -129.5h-369v-184h543v-62h-543v-225h-61v225h-164zM297 532h369q204 0 322 110t118 290t-118 289.5t-322 109.5h-369v-799z" />
<glyph unicode="&#xa5;" horiz-adv-x="1218" d="M41 1393h72l501 -861l492 861h72l-512 -881h317v-61h-338v-185h338v-61h-338v-205h-61v205h-346v61h346v185h-346v61h325z" />
<glyph unicode="&#xa6;" horiz-adv-x="512" d="M225 -205v737h62v-737h-62zM225 799v737h62v-737h-62z" />
<glyph unicode="&#xa7;" horiz-adv-x="1024" d="M92 225h62q34 -94 121.5 -159.5t216.5 -65.5q158 0 242.5 60.5t84.5 144.5q0 54 -36 91.5t-94 59t-127.5 39t-139.5 39t-128 51.5t-94 83.5t-36 127.5q0 58 25.5 105.5t61.5 74.5t72 45t61 25l26 6v11q-5 1 -13 3t-31.5 10t-45 18t-47.5 29.5t-44.5 42.5t-31.5 57.5 t-13 74.5q0 106 95 181t264 75q136 0 225 -65t123 -160h-62q-82 164 -286 164q-145 0 -221 -56t-76 -139q0 -56 35 -95t91 -61.5t124 -41.5t135.5 -41t123.5 -52t91 -83.5t35 -127.5q0 -58 -25.5 -105.5t-61.5 -74.5t-72 -45t-62 -25l-25 -6v-10q5 -1 14 -3t34.5 -9.5 t48.5 -18t51.5 -29t49 -40.5t34.5 -54.5t14 -70.5q0 -108 -103.5 -187t-285.5 -79q-152 0 -259.5 84.5t-140.5 201.5zM225 696q0 -40 17 -74t44 -56t59.5 -40t65.5 -28t60 -16.5t44 -8.5l17 -2q6 1 16.5 3t40 11t57 19.5t60.5 29.5t56.5 41t40 53.5t16.5 67.5q0 55 -31.5 98 t-76.5 66t-90.5 38t-76.5 20l-32 4q-12 -2 -31 -6.5t-68.5 -23t-87.5 -41.5t-69 -64.5t-31 -90.5z" />
<glyph unicode="&#xa8;" horiz-adv-x="532" d="M41 1352q0 23 14 37t37 14t37 -14t14 -37t-14 -37.5t-37 -14.5t-37 14.5t-14 37.5zM369 1352q0 23 14 37t37 14t37 -14t14 -37t-14 -37.5t-37 -14.5t-37 14.5t-14 37.5z" />
<glyph unicode="&#xa9;" horiz-adv-x="1873" d="M102 573q0 139 43.5 268t122.5 231.5t183 180t231 119t260 41.5q167 0 319.5 -65.5t265 -177t179 -268t66.5 -329.5t-66.5 -329t-179 -267.5t-265 -177t-319.5 -65.5t-321 65.5t-268.5 176.5t-182.5 267.5t-68 329.5zM164 573q0 -161 63 -306.5t168.5 -248t248.5 -163 t298 -60.5t296.5 60t245 163t165 248t61.5 307t-61.5 307t-165 248t-245 163.5t-296.5 60.5t-298 -60.5t-248.5 -163.5t-168.5 -248.5t-63 -306.5zM614 573q0 145 93 241.5t225 96.5q110 0 186 -62t101 -153h-62q-17 60 -78 107t-147 47q-109 0 -182.5 -78t-73.5 -199 t73.5 -198.5t182.5 -77.5q94 0 156.5 48.5t78.5 115.5h62q-16 -90 -98 -157.5t-199 -67.5q-132 0 -225 96.5t-93 240.5z" />
<glyph unicode="&#xaa;" horiz-adv-x="675" d="M72 922q0 89 66.5 141.5t199.5 52.5h194q0 105 -48.5 160t-135.5 55q-137 0 -174 -112h-61q16 74 78 124t157 50q109 0 177.5 -74.5t68.5 -202.5v-358h-62v112q-4 -5 -11 -14t-31 -32t-50.5 -40.5t-68 -32t-84.5 -14.5q-90 0 -152.5 57t-62.5 128zM133 922 q0 -48 44 -85.5t110 -37.5q43 0 84 14.5t69 35.5t49.5 42.5t32.5 36.5l10 14v113h-194q-111 0 -158 -34t-47 -99z" />
<glyph unicode="&#xab;" horiz-adv-x="808" d="M92 461l225 389h62l-225 -389l225 -389h-62zM430 461l225 389h62l-225 -389l225 -389h-62z" />
<glyph unicode="&#xac;" horiz-adv-x="849" d="M82 676v61h676v-307h-62v246h-614z" />
<glyph unicode="&#xad;" horiz-adv-x="880" d="M82 604v62h717v-62h-717z" />
<glyph unicode="&#xae;" horiz-adv-x="1873" d="M102 573q0 139 43.5 268t122.5 231.5t183 180t231 119t260 41.5q167 0 319.5 -65.5t265 -177t179 -268t66.5 -329.5t-66.5 -329t-179 -267.5t-265 -177t-319.5 -65.5t-321 65.5t-268.5 176.5t-182.5 267.5t-68 329.5zM164 573q0 -161 63 -306.5t168.5 -248t248.5 -163 t298 -60.5t296.5 60t245 163t165 248t61.5 307t-61.5 307t-165 248t-245 163.5t-296.5 60.5t-298 -60.5t-248.5 -163.5t-168.5 -248.5t-63 -306.5zM696 256v645h318q98 0 161.5 -59.5t63.5 -145.5q0 -46 -17 -83t-41 -56.5t-48 -33t-41 -17.5l-17 -4l164 -246h-72l-153 236 h-256v-236h-62zM758 553h256q75 0 119.5 40t44.5 103t-44.5 103.5t-119.5 40.5h-256v-287z" />
<glyph unicode="&#xaf;" horiz-adv-x="593" d="M61 1341v62h471v-62h-471z" />
<glyph unicode="&#xb0;" horiz-adv-x="696" d="M92 1147q0 107 74.5 181.5t181.5 74.5t181.5 -74.5t74.5 -181.5t-74.5 -181.5t-181.5 -74.5t-181.5 74.5t-74.5 181.5zM143 1147q0 -85 60 -145t145 -60t145 60t60 145t-60 145t-145 60t-145 -60t-60 -145z" />
<glyph unicode="&#xb1;" horiz-adv-x="921" d="M82 164v61h348v400h-348v61h348v369h62v-369h348v-61h-348v-400h348v-61h-758z" />
<glyph unicode="&#xb2;" horiz-adv-x="634" d="M72 1229q14 75 80 124.5t165 49.5q104 0 170 -58t66 -137q0 -46 -22.5 -83.5t-59 -64t-80 -49.5t-87 -45t-80 -44.5t-59 -54t-22.5 -68.5h420v-62h-481v62q0 46 22.5 83.5t59 64t80 49.5t87 45t80 44.5t59 54t22.5 68.5q0 57 -46.5 95t-128.5 38q-151 0 -184 -112h-61z " />
<glyph unicode="&#xb3;" horiz-adv-x="614" d="M72 911h61q34 -123 174 -123q82 0 133.5 45t51.5 109t-51.5 109t-133.5 45h-102v61l225 174h-338v64h440v-64l-225 -174q105 0 175.5 -64t70.5 -151t-70.5 -151t-175.5 -64q-96 0 -157.5 52t-77.5 132z" />
<glyph unicode="&#xb4;" horiz-adv-x="471" d="M61 1229l318 174l31 -62l-328 -153z" />
<glyph unicode="&#xb5;" d="M154 -410v1332h61v-543q0 -169 89.5 -264t238.5 -95q66 0 127 26.5t101.5 64t71 75t44.5 64.5l14 26v646h62v-922h-62v164h-10q-5 -8 -14.5 -22t-43 -49.5t-71 -62.5t-97 -49t-122.5 -22q-69 0 -127 20t-91.5 48.5t-57.5 57.5t-33 49l-9 20h-10v-564h-61z" />
<glyph unicode="&#xb6;" horiz-adv-x="727" d="M102 1065q0 132 102 230t247 98h225v-62h-184v-1741h-62v1147q-130 0 -229 98.5t-99 229.5z" />
<glyph unicode="&#xb7;" horiz-adv-x="327" d="M113 717q0 23 14 37t37 14t37 -14t14 -37t-14 -37t-37 -14t-37 14t-14 37z" />
<glyph unicode="&#xb8;" horiz-adv-x="450" d="M61 -401l41 43q42 -41 103 -41q53 0 88 32.5t35 79.5t-35 80t-88 33h-62l82 174h62l-51 -113q6 -1 16.5 -3t37 -14t46.5 -29t36.5 -51t16.5 -77q0 -70 -54 -122t-130 -52q-36 0 -72 15t-54 30z" />
<glyph unicode="&#xb9;" horiz-adv-x="337" d="M20 1188v51q61 0 112.5 49.5t51.5 104.5h62v-656h-62v533q-2 -3 -6 -8.5t-19 -20t-32.5 -25t-46 -19.5t-60.5 -9z" />
<glyph unicode="&#xba;" horiz-adv-x="716" d="M72 1065q0 143 84 235.5t202 92.5t202.5 -92.5t84.5 -235.5t-84.5 -235.5t-202.5 -92.5t-202 92.5t-84 235.5zM133 1065q0 -120 65 -193t160 -73t160.5 73t65.5 193t-65.5 193t-160.5 73t-160 -73t-65 -193z" />
<glyph unicode="&#xbb;" horiz-adv-x="808" d="M92 72l225 389l-225 389h62l225 -389l-225 -389h-62zM430 72l225 389l-225 389h62l225 -389l-225 -389h-62z" />
<glyph unicode="&#xbc;" horiz-adv-x="1372" d="M102 1188v51q61 0 112.5 49.5t51.5 104.5h62v-656h-62v533q-2 -3 -6 -8.5t-19 -20t-32.5 -25t-46 -19.5t-60.5 -9zM158 2l860 1393h72l-861 -1393h-71zM778 164v61l226 430h61l-225 -430h286v154h62v-154h82v-61h-82v-164h-62v164h-348z" />
<glyph unicode="&#xbd;" horiz-adv-x="1392" d="M102 1188v51q61 0 112.5 49.5t51.5 104.5h62v-656h-62v533q-2 -3 -6 -8.5t-19 -20t-32.5 -25t-46 -19.5t-60.5 -9zM162 0l860 1393h72l-861 -1393h-71zM809 492q14 75 80.5 124.5t165.5 49.5q104 0 169.5 -58t65.5 -137q0 -53 -30.5 -96t-75.5 -69.5t-98.5 -54.5 t-98.5 -51.5t-75.5 -59.5t-30.5 -79h419v-61h-481v61q0 53 30.5 96t76 69.5t98.5 54.5t98.5 51.5t76 59.5t30.5 79q0 57 -46 95t-128 38q-152 0 -185 -112h-61z" />
<glyph unicode="&#xbe;" horiz-adv-x="1454" d="M92 911h62q34 -123 174 -123q82 0 133 45t51 109t-51 109t-133 45h-103v61l226 174h-338v64h440v-64l-225 -174q105 0 175 -64t70 -151t-70 -151t-175 -64q-96 0 -158 52t-78 132zM246 0l860 1393h72l-861 -1393h-71zM860 164v61l225 430h62l-225 -430h286v154h62v-154 h82v-61h-82v-164h-62v164h-348z" />
<glyph unicode="&#xbf;" horiz-adv-x="1064" d="M102 -154q0 79 25 138t64.5 95.5t88 68t96.5 64t87.5 72.5t64.5 106t25 153h61q0 -93 -25 -164t-64.5 -114t-87.5 -76.5t-96 -63.5t-87.5 -64t-64.5 -88.5t-25 -126.5q0 -122 98.5 -189t269.5 -67q324 0 431 287h61q-49 -157 -172.5 -252.5t-319.5 -95.5q-194 0 -312 86 t-118 231zM532 891q0 23 14.5 37t37.5 14t37 -14t14 -37t-14 -37t-37 -14t-37.5 14t-14.5 37z" />
<glyph unicode="&#xc0;" horiz-adv-x="1392" d="M82 0l338 1393h553l338 -1393h-62l-96 389h-913l-97 -389h-61zM254 451h885l-217 880h-451zM506 1780l31 61l317 -174l-20 -41z" />
<glyph unicode="&#xc1;" horiz-adv-x="1392" d="M82 0l338 1393h553l338 -1393h-62l-96 389h-913l-97 -389h-61zM254 451h885l-217 880h-451zM551 1667l317 174l31 -61l-328 -154z" />
<glyph unicode="&#xc2;" horiz-adv-x="1392" d="M82 0l338 1393h553l338 -1393h-62l-96 389h-913l-97 -389h-61zM254 451h885l-217 880h-451zM438 1577l226 287h61l225 -287h-71l-185 225l-184 -225h-72z" />
<glyph unicode="&#xc3;" horiz-adv-x="1392" d="M82 0l338 1393h553l338 -1393h-62l-96 389h-913l-97 -389h-61zM254 451h885l-217 880h-451zM455 1632v41q0 68 39 111t94 43q34 0 62 -15t46.5 -36t35 -42t37.5 -36t44 -15q32 0 52 24.5t20 68.5v41h61v-41q0 -68 -39 -111t-94 -43q-41 0 -74.5 22.5t-52 49t-44.5 49 t-54 22.5q-32 0 -52 -24t-20 -68v-41h-61z" />
<glyph unicode="&#xc4;" horiz-adv-x="1392" d="M82 0l338 1393h553l338 -1393h-62l-96 389h-913l-97 -389h-61zM254 451h885l-217 880h-451zM459 1712q0 23 14 37t37 14t37 -14t14 -37t-14 -37t-37 -14t-37 14t-14 37zM786 1712q0 23 14.5 37t37.5 14t37 -14t14 -37t-14 -37t-37 -14t-37.5 14t-14.5 37z" />
<glyph unicode="&#xc5;" horiz-adv-x="1392" d="M82 0l338 1393h553l338 -1393h-62l-96 389h-913l-97 -389h-61zM254 451h885l-217 880h-451zM506 1772q0 76 59 135t135 59q77 0 136 -59t59 -135t-59.5 -135.5t-135.5 -59.5t-135 59t-59 136zM567 1772q0 -54 39.5 -94t93.5 -40t94 40t40 94t-40 93.5t-94 39.5 t-93.5 -39.5t-39.5 -93.5z" />
<glyph unicode="&#xc6;" horiz-adv-x="1976" d="M82 0l338 1393h1485v-62h-850v-594h665v-61h-665v-615h850v-61h-912v389h-755l-95 -389h-61zM252 451h741v880h-522z" />
<glyph unicode="&#xc7;" horiz-adv-x="1556" d="M113 696q0 150 60.5 291t158 242.5t226.5 163t261 61.5q98 0 187.5 -24t158 -64t124 -93.5t91 -111t54.5 -117.5h-62q-24 65 -70 124.5t-113.5 111t-163.5 82.5t-206 31q-117 0 -234 -57.5t-207.5 -152t-147 -224t-56.5 -263.5t56.5 -263.5t147 -223.5t207.5 -151.5 t234 -57.5q119 0 219 31.5t171.5 87t121.5 122.5t82 148h62q-27 -85 -80 -161.5t-130 -140t-184.5 -103.5t-230.5 -45l-41 -93q6 -1 16.5 -3t37 -14t47 -29t37 -51t16.5 -77q0 -70 -54.5 -122t-130.5 -52q-36 0 -72 15t-54 30l-17 15l41 43q5 -5 13.5 -11.5t35 -18 t53.5 -11.5q53 0 88 32.5t35 79.5t-35 80t-88 33h-61l71 156q-128 7 -251 70.5t-216.5 163.5t-150.5 237.5t-57 283.5z" />
<glyph unicode="&#xc8;" horiz-adv-x="1228" d="M205 0v1393h952v-62h-891v-594h707v-61h-707v-615h891v-61h-952zM481 1780l31 61l317 -174l-20 -41z" />
<glyph unicode="&#xc9;" horiz-adv-x="1228" d="M205 0v1393h952v-62h-891v-594h707v-61h-707v-615h891v-61h-952zM543 1667l317 174l31 -61l-328 -154z" />
<glyph unicode="&#xca;" horiz-adv-x="1228" d="M205 0v1393h952v-62h-891v-594h707v-61h-707v-615h891v-61h-952zM428 1591l225 287h62l225 -287h-72l-184 226l-184 -226h-72z" />
<glyph unicode="&#xcb;" horiz-adv-x="1228" d="M205 0v1393h952v-62h-891v-594h707v-61h-707v-615h891v-61h-952zM455 1718q0 23 14 37t37 14t37 -14t14 -37t-14 -37t-37 -14t-37 14t-14 37zM782 1718q0 23 14.5 37t37.5 14t37 -14t14 -37t-14 -37t-37 -14t-37.5 14t-14.5 37z" />
<glyph unicode="&#xcc;" horiz-adv-x="471" d="M-41 1759l31 62l317 -174l-20 -41zM205 0v1393h61v-1393h-61z" />
<glyph unicode="&#xcd;" horiz-adv-x="471" d="M133 1667l318 174l30 -61l-327 -154zM205 0v1393h61v-1393h-61z" />
<glyph unicode="&#xce;" horiz-adv-x="471" d="M-20 1608l225 286h61l226 -286h-72l-184 225l-185 -225h-71zM205 0v1393h61v-1393h-61z" />
<glyph unicode="&#xcf;" horiz-adv-x="471" d="M20 1696q0 23 14.5 37t37.5 14t37 -14t14 -37t-14 -37t-37 -14t-37.5 14t-14.5 37zM205 0v1393h61v-1393h-61zM348 1696q0 23 14 37t37 14t37.5 -14t14.5 -37t-14.5 -37t-37.5 -14t-37 14t-14 37z" />
<glyph unicode="&#xd0;" horiz-adv-x="1474" d="M82 676v61h164v656h399q212 0 375.5 -88.5t252.5 -247t89 -361.5t-89 -361.5t-252.5 -246.5t-375.5 -88h-399v676h-164zM307 61h338q298 0 476.5 174.5t178.5 460.5t-178.5 460.5t-476.5 174.5h-338v-594h389v-61h-389v-615z" />
<glyph unicode="&#xd1;" horiz-adv-x="1474" d="M205 0v1393h71l932 -1301v1301h62v-1393h-72l-932 1300v-1300h-61zM516 1655v41q0 67 39 110t94 43q41 0 74.5 -22.5t52 -49t44.5 -49t54 -22.5q32 0 52 24t20 68v41h62v-41q0 -67 -39 -110t-95 -43q-41 0 -74.5 22.5t-52 49t-44.5 49t-54 22.5q-32 0 -51.5 -24 t-19.5 -68v-41h-62z" />
<glyph unicode="&#xd2;" horiz-adv-x="1679" d="M113 696q0 154 59.5 295t158 242t232 161t277.5 60t277.5 -60t232 -161t158 -242t59.5 -295t-59.5 -295t-158 -241.5t-232 -160.5t-277.5 -60t-277.5 60t-232 160.5t-158 241.5t-59.5 295zM174 696q0 -143 54 -272.5t144.5 -222t213 -147t254.5 -54.5t254.5 54.5 t212.5 147t144 222t54 272.5t-54 272.5t-144 222.5t-212.5 147.5t-254.5 54.5t-254.5 -54.5t-213 -147.5t-144.5 -222.5t-54 -272.5zM645 1817l31 61l317 -174l-20 -41z" />
<glyph unicode="&#xd3;" horiz-adv-x="1679" d="M113 696q0 154 59.5 295t158 242t232 161t277.5 60t277.5 -60t232 -161t158 -242t59.5 -295t-59.5 -295t-158 -241.5t-232 -160.5t-277.5 -60t-277.5 60t-232 160.5t-158 241.5t-59.5 295zM174 696q0 -143 54 -272.5t144.5 -222t213 -147t254.5 -54.5t254.5 54.5 t212.5 147t144 222t54 272.5t-54 272.5t-144 222.5t-212.5 147.5t-254.5 54.5t-254.5 -54.5t-213 -147.5t-144.5 -222.5t-54 -272.5zM711 1716l317 174l31 -61l-328 -154z" />
<glyph unicode="&#xd4;" horiz-adv-x="1679" d="M113 696q0 154 59.5 295t158 242t232 161t277.5 60t277.5 -60t232 -161t158 -242t59.5 -295t-59.5 -295t-158 -241.5t-232 -160.5t-277.5 -60t-277.5 60t-232 160.5t-158 241.5t-59.5 295zM174 696q0 -143 54 -272.5t144.5 -222t213 -147t254.5 -54.5t254.5 54.5 t212.5 147t144 222t54 272.5t-54 272.5t-144 222.5t-212.5 147.5t-254.5 54.5t-254.5 -54.5t-213 -147.5t-144.5 -222.5t-54 -272.5zM584 1628l225 287h61l226 -287h-72l-184 225l-185 -225h-71z" />
<glyph unicode="&#xd5;" horiz-adv-x="1679" d="M113 696q0 154 59.5 295t158 242t232 161t277.5 60t277.5 -60t232 -161t158 -242t59.5 -295t-59.5 -295t-158 -241.5t-232 -160.5t-277.5 -60t-277.5 60t-232 160.5t-158 241.5t-59.5 295zM174 696q0 -143 54 -272.5t144.5 -222t213 -147t254.5 -54.5t254.5 54.5 t212.5 147t144 222t54 272.5t-54 272.5t-144 222.5t-212.5 147.5t-254.5 54.5t-254.5 -54.5t-213 -147.5t-144.5 -222.5t-54 -272.5zM594 1663v41q0 68 39 111t94 43q34 0 62 -15t46.5 -36t35 -42t37.5 -36t44 -15q32 0 52 24t20 68v41h61v-41q0 -67 -39 -110t-94 -43 q-41 0 -74.5 22.5t-52 49t-44.5 49t-54 22.5q-32 0 -52 -24t-20 -68v-41h-61z" />
<glyph unicode="&#xd6;" horiz-adv-x="1679" d="M113 696q0 154 59.5 295t158 242t232 161t277.5 60t277.5 -60t232 -161t158 -242t59.5 -295t-59.5 -295t-158 -241.5t-232 -160.5t-277.5 -60t-277.5 60t-232 160.5t-158 241.5t-59.5 295zM174 696q0 -143 54 -272.5t144.5 -222t213 -147t254.5 -54.5t254.5 54.5 t212.5 147t144 222t54 272.5t-54 272.5t-144 222.5t-212.5 147.5t-254.5 54.5t-254.5 -54.5t-213 -147.5t-144.5 -222.5t-54 -272.5zM614 1759q0 23 14.5 37t37.5 14t37 -14t14 -37t-14 -37t-37 -14t-37.5 14t-14.5 37zM942 1759q0 23 14 37t37 14t37 -14t14 -37t-14 -37 t-37 -14t-37 14t-14 37z" />
<glyph unicode="&#xd7;" horiz-adv-x="737" d="M92 410l236 235l-236 236l41 41l236 -236l235 236l41 -41l-235 -236l235 -235l-41 -41l-235 235l-236 -235z" />
<glyph unicode="&#xd8;" horiz-adv-x="1720" d="M0 276v62l184 82q-51 133 -51 276q0 154 59.5 295t158 242t232 161t277.5 60q209 0 387.5 -118t268.5 -312l204 92v-61l-184 -82q51 -130 51 -277q0 -154 -59.5 -295t-158 -241.5t-232 -160.5t-277.5 -60q-208 0 -385.5 118.5t-269.5 311.5zM195 696q0 -131 45 -252 l1218 553q-83 179 -244.5 287.5t-353.5 108.5q-132 0 -254.5 -54.5t-212.5 -147.5t-144 -222.5t-54 -272.5zM260 393q84 -177 246.5 -285t353.5 -108q132 0 254.5 54.5t213 147t144.5 222t54 272.5q0 129 -45 250z" />
<glyph unicode="&#xd9;" horiz-adv-x="1474" d="M205 504v889h61v-889q0 -229 131 -366.5t340 -137.5t340 137.5t131 366.5v889h62v-889q0 -252 -150 -408.5t-383 -156.5q-114 0 -212.5 41t-169 114t-110.5 179t-40 231zM528 1794l31 61l318 -174l-21 -41z" />
<glyph unicode="&#xda;" horiz-adv-x="1474" d="M205 504v889h61v-889q0 -229 131 -366.5t340 -137.5t340 137.5t131 366.5v889h62v-889q0 -252 -150 -408.5t-383 -156.5q-114 0 -212.5 41t-169 114t-110.5 179t-40 231zM604 1681l318 174l30 -61l-327 -154z" />
<glyph unicode="&#xdb;" horiz-adv-x="1474" d="M205 504v889h61v-889q0 -229 131 -366.5t340 -137.5t340 137.5t131 366.5v889h62v-889q0 -252 -150 -408.5t-383 -156.5q-114 0 -212.5 41t-169 114t-110.5 179t-40 231zM489 1602l226 286h61l225 -286h-71l-185 225l-184 -225h-72z" />
<glyph unicode="&#xdc;" horiz-adv-x="1474" d="M205 504v889h61v-889q0 -229 131 -366.5t340 -137.5t340 137.5t131 366.5v889h62v-889q0 -252 -150 -408.5t-383 -156.5q-114 0 -212.5 41t-169 114t-110.5 179t-40 231zM496 1698q0 23 14 37t37 14t37 -14t14 -37t-14 -37t-37 -14t-37 14t-14 37zM823 1698q0 23 14 37 t37 14t37.5 -14t14.5 -37t-14.5 -37t-37.5 -14t-37 14t-14 37z" />
<glyph unicode="&#xdd;" horiz-adv-x="1290" d="M41 1393h72l532 -861l533 861h71l-573 -922v-471h-62v471zM541 1661l317 174l31 -61l-328 -154z" />
<glyph unicode="&#xde;" horiz-adv-x="1300" d="M205 -41v1516h61v-164h266q190 0 341 -80t233 -215.5t82 -298.5t-82 -298.5t-233 -215.5t-341 -80h-266v-164h-61zM266 184h266q175 0 311.5 71.5t209.5 192.5t73 269t-73 269t-209.5 192t-311.5 71h-266v-1065z" />
<glyph unicode="&#xdf;" horiz-adv-x="1105" d="M184 0v1075q0 147 108 253t261 106q154 0 256 -102.5t102 -256.5q0 -52 -12 -98t-31 -77t-41.5 -57t-45.5 -41t-42 -25.5t-31 -14.5l-12 -4v-10q7 -1 18.5 -3.5t44.5 -14.5t63 -27.5t66.5 -45.5t63 -66t44.5 -91.5t18 -120.5q0 -155 -116.5 -267t-283.5 -112h-122v61h122 q145 0 241.5 93t96.5 225q0 131 -105.5 234.5t-242.5 103.5h-92v61h31q130 0 218.5 86.5t88.5 210.5q0 131 -83 214t-214 83q-130 0 -218.5 -86.5t-88.5 -210.5v-1075h-62z" />
<glyph unicode="&#xe0;" d="M102 461q0 105 37.5 199t98.5 160t141 104.5t164 38.5q46 0 90 -11.5t77.5 -29.5t63.5 -40t51 -43.5t36 -39.5t23 -29l7 -12h10v164h62v-922h-62v164h-10q-5 -8 -15 -22t-43.5 -49.5t-71 -62.5t-97 -49t-121.5 -22q-84 0 -164 38.5t-141 104.5t-98.5 160t-37.5 199z M164 461q0 -124 54 -226.5t141 -158.5t184 -56q66 0 127 25.5t101.5 61.5t71 72t44.5 61l14 26v389q-5 10 -14.5 26.5t-43.5 59t-72 75t-100 59t-128 26.5q-73 0 -141.5 -33t-121 -90.5t-84.5 -140.5t-32 -176zM377 1346l31 61l317 -174l-20 -41z" />
<glyph unicode="&#xe1;" d="M102 461q0 105 37.5 199t98.5 160t141 104.5t164 38.5q46 0 90 -11.5t77.5 -29.5t63.5 -40t51 -43.5t36 -39.5t23 -29l7 -12h10v164h62v-922h-62v164h-10q-5 -8 -15 -22t-43.5 -49.5t-71 -62.5t-97 -49t-121.5 -22q-84 0 -164 38.5t-141 104.5t-98.5 160t-37.5 199z M164 461q0 -124 54 -226.5t141 -158.5t184 -56q66 0 127 25.5t101.5 61.5t71 72t44.5 61l14 26v389q-5 10 -14.5 26.5t-43.5 59t-72 75t-100 59t-128 26.5q-73 0 -141.5 -33t-121 -90.5t-84.5 -140.5t-32 -176zM422 1243l317 174l31 -61l-328 -154z" />
<glyph unicode="&#xe2;" d="M102 461q0 105 37.5 199t98.5 160t141 104.5t164 38.5q46 0 90 -11.5t77.5 -29.5t63.5 -40t51 -43.5t36 -39.5t23 -29l7 -12h10v164h62v-922h-62v164h-10q-5 -8 -15 -22t-43.5 -49.5t-71 -62.5t-97 -49t-121.5 -22q-84 0 -164 38.5t-141 104.5t-98.5 160t-37.5 199z M164 461q0 -124 54 -226.5t141 -158.5t184 -56q66 0 127 25.5t101.5 61.5t71 72t44.5 61l14 26v389q-5 10 -14.5 26.5t-43.5 59t-72 75t-100 59t-128 26.5q-73 0 -141.5 -33t-121 -90.5t-84.5 -140.5t-32 -176zM295 1167l225 287h62l225 -287h-72l-184 226l-184 -226h-72z " />
<glyph unicode="&#xe3;" d="M102 461q0 105 37.5 199t98.5 160t141 104.5t164 38.5q46 0 90 -11.5t77.5 -29.5t63.5 -40t51 -43.5t36 -39.5t23 -29l7 -12h10v164h62v-922h-62v164h-10q-5 -8 -15 -22t-43.5 -49.5t-71 -62.5t-97 -49t-121.5 -22q-84 0 -164 38.5t-141 104.5t-98.5 160t-37.5 199z M164 461q0 -124 54 -226.5t141 -158.5t184 -56q66 0 127 25.5t101.5 61.5t71 72t44.5 61l14 26v389q-5 10 -14.5 26.5t-43.5 59t-72 75t-100 59t-128 26.5q-73 0 -141.5 -33t-121 -90.5t-84.5 -140.5t-32 -176zM319 1202v41q0 67 39.5 110.5t94.5 43.5q34 0 62 -15t46.5 -36 t35 -42t37.5 -36t44 -15q32 0 52 24.5t20 68.5v40h61v-40q0 -68 -39 -111t-94 -43q-41 0 -74.5 22.5t-52 49t-44.5 49t-54 22.5q-32 0 -52 -24t-20 -68v-41h-62z" />
<glyph unicode="&#xe4;" d="M102 461q0 105 37.5 199t98.5 160t141 104.5t164 38.5q46 0 90 -11.5t77.5 -29.5t63.5 -40t51 -43.5t36 -39.5t23 -29l7 -12h10v164h62v-922h-62v164h-10q-5 -8 -15 -22t-43.5 -49.5t-71 -62.5t-97 -49t-121.5 -22q-84 0 -164 38.5t-141 104.5t-98.5 160t-37.5 199z M164 461q0 -124 54 -226.5t141 -158.5t184 -56q66 0 127 25.5t101.5 61.5t71 72t44.5 61l14 26v389q-5 10 -14.5 26.5t-43.5 59t-72 75t-100 59t-128 26.5q-73 0 -141.5 -33t-121 -90.5t-84.5 -140.5t-32 -176zM324 1270q0 23 14 37t37 14t37 -14t14 -37t-14 -37t-37 -14 t-37 14t-14 37zM651 1270q0 23 14 37t37 14t37.5 -14t14.5 -37t-14.5 -37t-37.5 -14t-37 14t-14 37z" />
<glyph unicode="&#xe5;" d="M102 461q0 105 37.5 199t98.5 160t141 104.5t164 38.5q46 0 90 -11.5t77.5 -29.5t63.5 -40t51 -43.5t36 -39.5t23 -29l7 -12h10v164h62v-922h-62v164h-10q-5 -8 -15 -22t-43.5 -49.5t-71 -62.5t-97 -49t-121.5 -22q-84 0 -164 38.5t-141 104.5t-98.5 160t-37.5 199z M164 461q0 -124 54 -226.5t141 -158.5t184 -56q66 0 127 25.5t101.5 61.5t71 72t44.5 61l14 26v389q-5 10 -14.5 26.5t-43.5 59t-72 75t-100 59t-128 26.5q-73 0 -141.5 -33t-121 -90.5t-84.5 -140.5t-32 -176zM360 1356q0 76 59 135t136 59t136 -59t59 -135t-59 -135.5 t-136 -59.5t-136 59.5t-59 135.5zM422 1356q0 -54 39.5 -93.5t93.5 -39.5t93.5 39.5t39.5 93.5t-39.5 93.5t-93.5 39.5t-93.5 -39.5t-39.5 -93.5z" />
<glyph unicode="&#xe6;" horiz-adv-x="1771" d="M72 225q0 119 95 198t253 79h399q0 190 -84.5 294.5t-232.5 104.5q-61 0 -112.5 -17t-82 -41t-52 -48t-29.5 -41l-9 -17h-63q3 9 10.5 24.5t36 54.5t64 68.5t99.5 54t138 24.5q63 0 116 -14.5t87.5 -38.5t62 -52t42.5 -56.5t24.5 -52.5t12.5 -39l3 -14h10q4 11 12.5 29 t42 64t73.5 81t110.5 64t150.5 29q84 0 162 -37t137.5 -100t95 -153.5t35.5 -191.5l-41 -41h-757q3 -171 115.5 -295.5t263.5 -124.5q138 0 226.5 69t121.5 177h61q-33 -131 -140.5 -219t-268.5 -88q-63 0 -119.5 16t-96.5 41t-74 55.5t-55.5 61.5t-36.5 56t-22 41l-6 16 h-10q-2 -6 -6 -16.5t-20 -40t-36 -57t-55 -60.5t-76 -56.5t-100.5 -40t-126.5 -16.5q-162 0 -255 76.5t-93 189.5zM133 225q0 -90 73.5 -147.5t213.5 -57.5q171 0 285 117.5t114 302.5h-399q-141 0 -214 -59t-73 -156zM881 502h737q0 166 -110 282.5t-259 116.5 q-148 0 -258 -116.5t-110 -282.5z" />
<glyph unicode="&#xe7;" horiz-adv-x="1064" d="M102 461q0 140 64 256t169.5 181t227.5 65q159 0 257 -75t132 -192h-61q-74 205 -328 205q-164 0 -281.5 -125.5t-117.5 -314.5t117.5 -315t281.5 -126q137 0 231 72t128 174h61q-31 -118 -136.5 -207t-252.5 -98l-41 -92q6 -1 16.5 -3t37 -14t47 -29t37 -51t16.5 -77 q0 -70 -54.5 -122t-130.5 -52q-36 0 -72 14.5t-54 29.5l-17 15l41 43q5 -5 13.5 -11.5t35 -18t53.5 -11.5q53 0 88 33t35 80t-35 79.5t-88 32.5h-61l71 154q-178 12 -304 155t-126 345z" />
<glyph unicode="&#xe8;" horiz-adv-x="1075" d="M102 461q0 105 37.5 199t98.5 160t141 104.5t164 38.5q83 0 163.5 -38.5t141 -103.5t98 -157t37.5 -193l-41 -41h-778q7 -176 122 -293t277 -117q137 0 231 72t128 174h61q-16 -59 -52 -113t-88.5 -98t-125.5 -70t-154 -26q-122 0 -227.5 65t-169.5 181t-64 256zM164 492 h758q-7 174 -118.5 291.5t-260.5 117.5t-260.5 -117.5t-118.5 -291.5zM377 1352l31 61l317 -174l-20 -41z" />
<glyph unicode="&#xe9;" horiz-adv-x="1075" d="M102 461q0 105 37.5 199t98.5 160t141 104.5t164 38.5q83 0 163.5 -38.5t141 -103.5t98 -157t37.5 -193l-41 -41h-778q7 -176 122 -293t277 -117q137 0 231 72t128 174h61q-16 -59 -52 -113t-88.5 -98t-125.5 -70t-154 -26q-122 0 -227.5 65t-169.5 181t-64 256zM164 492 h758q-7 174 -118.5 291.5t-260.5 117.5t-260.5 -117.5t-118.5 -291.5zM408 1233l317 174l31 -61l-328 -154z" />
<glyph unicode="&#xea;" horiz-adv-x="1075" d="M102 461q0 105 37.5 199t98.5 160t141 104.5t164 38.5q83 0 163.5 -38.5t141 -103.5t98 -157t37.5 -193l-41 -41h-778q7 -176 122 -293t277 -117q137 0 231 72t128 174h61q-16 -59 -52 -113t-88.5 -98t-125.5 -70t-154 -26q-122 0 -227.5 65t-169.5 181t-64 256zM164 492 h758q-7 174 -118.5 291.5t-260.5 117.5t-260.5 -117.5t-118.5 -291.5zM293 1147l225 287h62l225 -287h-72l-184 225l-184 -225h-72z" />
<glyph unicode="&#xeb;" horiz-adv-x="1075" d="M102 461q0 105 37.5 199t98.5 160t141 104.5t164 38.5q83 0 163.5 -38.5t141 -103.5t98 -157t37.5 -193l-41 -41h-778q7 -176 122 -293t277 -117q137 0 231 72t128 174h61q-16 -59 -52 -113t-88.5 -98t-125.5 -70t-154 -26q-122 0 -227.5 65t-169.5 181t-64 256zM164 492 h758q-7 174 -118.5 291.5t-260.5 117.5t-260.5 -117.5t-118.5 -291.5zM315 1270q0 23 14.5 37t37.5 14t37 -14t14 -37t-14 -37t-37 -14t-37.5 14t-14.5 37zM643 1270q0 23 14 37t37 14t37 -14t14 -37t-14 -37t-37 -14t-37 14t-14 37z" />
<glyph unicode="&#xec;" horiz-adv-x="409" d="M-72 1352l31 61l317 -174l-20 -41zM174 0v922h62v-922h-62z" />
<glyph unicode="&#xed;" horiz-adv-x="409" d="M113 1219l317 174l31 -62l-328 -153zM174 0v922h62v-922h-62z" />
<glyph unicode="&#xee;" horiz-adv-x="409" d="M-51 1126l225 287h62l225 -287h-72l-184 226l-185 -226h-71zM174 0v922h62v-922h-62z" />
<glyph unicode="&#xef;" horiz-adv-x="409" d="M-10 1249q0 23 14 37t37 14t37 -14t14 -37t-14 -37t-37 -14t-37 14t-14 37zM174 0v922h62v-922h-62zM317 1249q0 23 14.5 37t37.5 14t37 -14t14 -37t-14 -37t-37 -14t-37.5 14t-14.5 37z" />
<glyph unicode="&#xf0;" horiz-adv-x="1105" d="M72 420q0 199 128.5 330t321.5 131q61 0 114.5 -12.5t91 -32.5t68.5 -44t50 -48t32 -44t18 -32l5 -13h10v164q0 72 -16 142t-38.5 118t-44.5 86t-38 56l-16 18l-144 -113l-30 41l143 113l-164 174l41 41l164 -184l143 112l31 -41l-141 -112q7 -7 18.5 -20.5t41 -58.5 t52.5 -94t41.5 -125t18.5 -153v-399q0 -199 -129 -330t-322 -131t-321.5 131t-128.5 330zM133 420q0 -176 109.5 -288t279.5 -112t279.5 112t109.5 288t-109.5 287.5t-279.5 111.5t-279.5 -111.5t-109.5 -287.5z" />
<glyph unicode="&#xf1;" horiz-adv-x="1105" d="M154 0v922h61v-164h10q5 8 14.5 22t43 49.5t71 62.5t97 49t122.5 22q170 0 280 -113.5t110 -296.5v-553h-62v553q0 160 -90 254t-238 94q-66 0 -127 -25.5t-101.5 -61.5t-71 -72t-44.5 -62l-14 -25v-655h-61zM299 1219v41q0 67 39 110t94 43q41 0 74.5 -22.5t52 -49 t44.5 -49t54 -22.5q32 0 52 24t20 68v41h62v-41q0 -67 -39.5 -110.5t-94.5 -43.5q-34 0 -62 15t-46.5 36t-35 42t-37.5 36t-44 15q-32 0 -52 -24t-20 -68v-41h-61z" />
<glyph unicode="&#xf2;" horiz-adv-x="1146" d="M102 461q0 140 64 256t172 181t235 65t235 -65t172 -181t64 -256t-64 -256t-172 -181t-235 -65t-235 65t-172 181t-64 256zM164 461q0 -190 119 -315.5t290 -125.5t290.5 125.5t119.5 315.5q0 189 -119.5 314.5t-290.5 125.5t-290 -125t-119 -315zM387 1331l31 62 l317 -174l-20 -41z" />
<glyph unicode="&#xf3;" horiz-adv-x="1146" d="M102 461q0 140 64 256t172 181t235 65t235 -65t172 -181t64 -256t-64 -256t-172 -181t-235 -65t-235 65t-172 181t-64 256zM164 461q0 -190 119 -315.5t290 -125.5t290.5 125.5t119.5 315.5q0 189 -119.5 314.5t-290.5 125.5t-290 -125t-119 -315zM432 1239l318 174 l30 -61l-327 -154z" />
<glyph unicode="&#xf4;" horiz-adv-x="1146" d="M102 461q0 140 64 256t172 181t235 65t235 -65t172 -181t64 -256t-64 -256t-172 -181t-235 -65t-235 65t-172 181t-64 256zM164 461q0 -190 119 -315.5t290 -125.5t290.5 125.5t119.5 315.5q0 189 -119.5 314.5t-290.5 125.5t-290 -125t-119 -315zM326 1171l225 287h61 l226 -287h-72l-184 226l-185 -226h-71z" />
<glyph unicode="&#xf5;" horiz-adv-x="1146" d="M102 461q0 140 64 256t172 181t235 65t235 -65t172 -181t64 -256t-64 -256t-172 -181t-235 -65t-235 65t-172 181t-64 256zM164 461q0 -190 119 -315.5t290 -125.5t290.5 125.5t119.5 315.5q0 189 -119.5 314.5t-290.5 125.5t-290 -125t-119 -315zM336 1182v41 q0 67 39 110t94 43q41 0 74.5 -22.5t52 -49t44.5 -49t54 -22.5q32 0 52 24t20 68v41h61v-41q0 -68 -39 -111t-94 -43q-34 0 -62 15t-46.5 36t-35 42t-37.5 36t-44 15q-32 0 -52 -24t-20 -68v-41h-61z" />
<glyph unicode="&#xf6;" horiz-adv-x="1146" d="M102 461q0 140 64 256t172 181t235 65t235 -65t172 -181t64 -256t-64 -256t-172 -181t-235 -65t-235 65t-172 181t-64 256zM164 461q0 -190 119 -315.5t290 -125.5t290.5 125.5t119.5 315.5q0 189 -119.5 314.5t-290.5 125.5t-290 -125t-119 -315zM340 1290q0 23 14 37 t37 14t37 -14t14 -37t-14 -37t-37 -14t-37 14t-14 37zM668 1290q0 23 14 37t37 14t37 -14t14 -37t-14 -37t-37 -14t-37 14t-14 37z" />
<glyph unicode="&#xf7;" horiz-adv-x="860" d="M82 604v62h696v-62h-696zM379 266q0 23 14 37t37 14t37 -14t14 -37t-14 -37t-37 -14t-37 14t-14 37zM379 1004q0 23 14 37t37 14t37 -14t14 -37t-14 -37.5t-37 -14.5t-37 14.5t-14 37.5z" />
<glyph unicode="&#xf8;" horiz-adv-x="1167" d="M0 174v62l137 59q-24 77 -24 166q0 140 64 256t172 181t235 65q137 0 252 -77.5t174 -207.5l157 70v-62l-139 -61q27 -86 27 -164q0 -140 -64 -256t-172 -181t-235 -65q-139 0 -254 77.5t-172 207.5zM174 461q0 -74 19 -142l761 334q-50 114 -149.5 181t-220.5 67 q-171 0 -290.5 -125.5t-119.5 -314.5zM213 268q50 -114 149 -181t222 -67q171 0 290 125.5t119 315.5q0 78 -20 139z" />
<glyph unicode="&#xf9;" d="M154 369v553h61v-553q0 -160 90 -254.5t238 -94.5q66 0 127 25.5t101.5 61.5t71 72t44.5 61l14 26v656h62v-922h-62v164h-10q-5 -8 -14.5 -22t-43 -49.5t-71 -62.5t-97 -49t-122.5 -22q-170 0 -279.5 113.5t-109.5 296.5zM375 1321l31 61l317 -174l-21 -41z" />
<glyph unicode="&#xfa;" d="M154 369v553h61v-553q0 -160 90 -254.5t238 -94.5q66 0 127 25.5t101.5 61.5t71 72t44.5 61l14 26v656h62v-922h-62v164h-10q-5 -8 -14.5 -22t-43 -49.5t-71 -62.5t-97 -49t-122.5 -22q-170 0 -279.5 113.5t-109.5 296.5zM432 1192l318 174l30 -61l-327 -154z" />
<glyph unicode="&#xfb;" d="M154 369v553h61v-553q0 -160 90 -254.5t238 -94.5q66 0 127 25.5t101.5 61.5t71 72t44.5 61l14 26v656h62v-922h-62v164h-10q-5 -8 -14.5 -22t-43 -49.5t-71 -62.5t-97 -49t-122.5 -22q-170 0 -279.5 113.5t-109.5 296.5zM303 1151l225 287h62l225 -287h-72l-184 225 l-184 -225h-72z" />
<glyph unicode="&#xfc;" d="M154 369v553h61v-553q0 -160 90 -254.5t238 -94.5q66 0 127 25.5t101.5 61.5t71 72t44.5 61l14 26v656h62v-922h-62v164h-10q-5 -8 -14.5 -22t-43 -49.5t-71 -62.5t-97 -49t-122.5 -22q-170 0 -279.5 113.5t-109.5 296.5zM324 1249q0 23 14 37t37 14t37 -14t14 -37 t-14 -37t-37 -14t-37 14t-14 37zM651 1249q0 23 14 37t37 14t37.5 -14t14.5 -37t-14.5 -37t-37.5 -14t-37 14t-14 37z" />
<glyph unicode="&#xfd;" horiz-adv-x="1003" d="M82 922h61l195 -861h328l194 861h62l-205 -922q-38 -168 -83 -262.5t-100 -131t-135 -36.5q-41 0 -79 12t-56 24l-18 13v64q7 -6 19.5 -14.5t52.5 -23t81 -14.5q90 0 151 81.5t105 287.5h-368zM377 1212l317 174l31 -61l-328 -154z" />
<glyph unicode="&#xfe;" horiz-adv-x="1126" d="M164 -410v1803h61v-635h11q5 8 15 22t43.5 49.5t71 62.5t97 49t121.5 22q84 0 163.5 -38.5t141 -104.5t98.5 -160t37 -199t-37 -199t-98.5 -160t-141 -104.5t-163.5 -38.5q-63 0 -122 21t-98.5 51.5t-69.5 60.5t-44 51l-14 21h-11v-574h-61zM225 266q5 -10 14.5 -26.5 t43.5 -59t72.5 -75t100.5 -59t128 -26.5q97 0 184 56t141 158.5t54 226.5q0 93 -32 176t-84.5 140.5t-121 90.5t-141.5 33q-66 0 -127.5 -25.5t-101.5 -61.5t-71 -72t-45 -62l-14 -25v-389z" />
<glyph unicode="&#xff;" horiz-adv-x="1003" d="M82 922h61l195 -861h328l194 861h62l-205 -922q-38 -168 -83 -262.5t-100 -131t-135 -36.5q-41 0 -79 12t-56 24l-18 13v64q7 -6 19.5 -14.5t52.5 -23t81 -14.5q90 0 151 81.5t105 287.5h-368zM287 1219q0 23 14 37t37 14t37 -14t14 -37t-14 -37.5t-37 -14.5t-37 14.5 t-14 37.5zM614 1219q0 23 14.5 37t37.5 14t37 -14t14 -37t-14 -37.5t-37 -14.5t-37.5 14.5t-14.5 37.5z" />
<glyph unicode="&#x152;" horiz-adv-x="2058" d="M113 696q0 148 54 277t149.5 221.5t233.5 145.5t300 53h1137v-62h-850v-594h665v-61h-665v-615h850v-61h-1137q-162 0 -300 53t-234 145.5t-149.5 221t-53.5 276.5zM174 696q0 -280 186 -457.5t490 -177.5h225v1270h-225q-304 0 -490 -177.5t-186 -457.5z" />
<glyph unicode="&#x153;" horiz-adv-x="1873" d="M102 461q0 109 36 203.5t96 159.5t140.5 102t168.5 37q63 0 120 -16t96.5 -41t73 -55.5t54 -61.5t35 -56t20.5 -41l6 -16h8q4 12 13.5 31t43.5 68.5t75.5 87.5t112.5 69t151 31q84 0 162 -37t137.5 -100t95 -153.5t35.5 -191.5l-41 -41h-758q3 -171 115.5 -295.5 t263.5 -124.5q138 0 226.5 69t121.5 177h62q-33 -131 -141 -219t-269 -88q-63 0 -119 16t-96 41t-73.5 55.5t-54.5 61.5t-36 56t-21 41l-6 16h-8q-4 -12 -12.5 -31t-42 -68.5t-75 -87.5t-115.5 -69t-160 -31q-88 0 -168.5 37t-140.5 102t-96 159.5t-36 203.5zM164 461 q0 -195 110.5 -318t268.5 -123t268.5 123t110.5 318q0 196 -110.5 318t-268.5 122t-268.5 -122.5t-110.5 -317.5zM983 502h737q0 166 -110 282.5t-258 116.5q-149 0 -259 -116.5t-110 -282.5z" />
<glyph unicode="&#x178;" horiz-adv-x="1290" d="M41 1393h72l532 -861l533 861h71l-573 -922v-471h-62v471zM420 1692q0 23 14 37t37 14t37 -14t14 -37t-14 -37.5t-37 -14.5t-37 14.5t-14 37.5zM748 1692q0 23 14 37t37 14t37 -14t14 -37t-14 -37.5t-37 -14.5t-37 14.5t-14 37.5z" />
<glyph unicode="&#x2c6;" horiz-adv-x="634" d="M61 1116l226 287h61l225 -287h-71l-185 225l-184 -225h-72z" />
<glyph unicode="&#x2dc;" horiz-adv-x="614" d="M61 1208v41q0 67 39.5 110.5t94.5 43.5q41 0 74.5 -22.5t52 -49t44.5 -49t54 -22.5q32 0 52 24t20 68v41h61v-41q0 -68 -39 -111t-94 -43q-41 0 -74.5 22.5t-52 49t-44.5 49t-54 22.5q-32 0 -52 -24t-20 -68v-41h-62z" />
<glyph unicode="&#x2000;" horiz-adv-x="983" />
<glyph unicode="&#x2001;" horiz-adv-x="1966" />
<glyph unicode="&#x2002;" horiz-adv-x="983" />
<glyph unicode="&#x2003;" horiz-adv-x="1966" />
<glyph unicode="&#x2004;" horiz-adv-x="655" />
<glyph unicode="&#x2005;" horiz-adv-x="491" />
<glyph unicode="&#x2006;" horiz-adv-x="327" />
<glyph unicode="&#x2007;" horiz-adv-x="327" />
<glyph unicode="&#x2008;" horiz-adv-x="245" />
<glyph unicode="&#x2009;" horiz-adv-x="393" />
<glyph unicode="&#x200a;" horiz-adv-x="109" />
<glyph unicode="&#x2010;" horiz-adv-x="880" d="M82 604v62h717v-62h-717z" />
<glyph unicode="&#x2011;" horiz-adv-x="880" d="M82 604v62h717v-62h-717z" />
<glyph unicode="&#x2012;" horiz-adv-x="880" d="M82 604v62h717v-62h-717z" />
<glyph unicode="&#x2013;" horiz-adv-x="1218" d="M82 512v61h1055v-61h-1055z" />
<glyph unicode="&#x2014;" horiz-adv-x="1515" d="M82 512v61h1352v-61h-1352z" />
<glyph unicode="&#x2018;" horiz-adv-x="368" d="M133 1188q0 9 2.5 19t4.5 16l3 6l93 174h30l-61 -170q31 -14 31 -45q0 -23 -14.5 -37t-37.5 -14t-37 14t-14 37z" />
<glyph unicode="&#x2019;" horiz-adv-x="368" d="M102 1137l62 170q-31 14 -31 45q0 23 14 37t37 14t37.5 -14t14.5 -37q0 -9 -3 -19t-5 -16l-3 -6l-92 -174h-31z" />
<glyph unicode="&#x201a;" horiz-adv-x="368" d="M102 -174l62 170q-31 14 -31 45q0 23 14 37t37 14t37.5 -14t14.5 -37q0 -9 -3 -19t-5 -16l-3 -6l-92 -174h-31z" />
<glyph unicode="&#x201c;" horiz-adv-x="604" d="M133 1188q0 9 2.5 19t4.5 16l3 6l93 174h30l-61 -170q31 -14 31 -45q0 -23 -14.5 -37t-37.5 -14t-37 14t-14 37zM369 1188q0 9 2.5 19t4.5 16l3 6l92 174h31l-62 -170q31 -14 31 -45q0 -23 -14 -37t-37 -14t-37 14t-14 37z" />
<glyph unicode="&#x201d;" horiz-adv-x="604" d="M102 1137l62 170q-31 14 -31 45q0 23 14 37t37 14t37.5 -14t14.5 -37q0 -9 -3 -19t-5 -16l-3 -6l-92 -174h-31zM338 1137l61 170q-30 14 -30 45q0 23 14 37t37 14t37 -14t14 -37q0 -9 -2.5 -19t-4.5 -16l-3 -6l-92 -174h-31z" />
<glyph unicode="&#x201e;" horiz-adv-x="604" d="M102 -174l62 170q-31 14 -31 45q0 23 14 37t37 14t37.5 -14t14.5 -37q0 -9 -3 -19t-5 -16l-3 -6l-92 -174h-31zM338 -174l61 170q-30 14 -30 45q0 23 14 37t37 14t37 -14t14 -37q0 -9 -2.5 -19t-4.5 -16l-3 -6l-92 -174h-31z" />
<glyph unicode="&#x2022;" horiz-adv-x="430" d="M123 614q0 38 27 65.5t65 27.5t65 -27.5t27 -65.5t-27 -65t-65 -27t-65 27t-27 65z" />
<glyph unicode="&#x2026;" horiz-adv-x="1105" d="M133 41q0 23 14 37t37 14t37.5 -14t14.5 -37t-14.5 -37t-37.5 -14t-37 14t-14 37zM502 41q0 23 14 37t37 14t37 -14t14 -37t-14 -37t-37 -14t-37 14t-14 37zM870 41q0 23 14.5 37t37.5 14t37 -14t14 -37t-14 -37t-37 -14t-37.5 14t-14.5 37z" />
<glyph unicode="&#x202f;" horiz-adv-x="393" />
<glyph unicode="&#x2039;" horiz-adv-x="665" d="M92 471l440 461l41 -41l-399 -420l399 -420l-41 -41z" />
<glyph unicode="&#x203a;" horiz-adv-x="665" d="M92 51l400 420l-400 420l41 41l440 -461l-440 -461z" />
<glyph unicode="&#x205f;" horiz-adv-x="491" />
<glyph unicode="&#x20ac;" horiz-adv-x="1648" d="M41 532v62h174q-10 51 -10 102q0 23 2.5 48.5t4.5 39.5l3 15h-174v61h184q37 164 141 300.5t248.5 215t296.5 78.5q98 0 187.5 -24t158 -64t124 -93.5t91 -111t54.5 -117.5h-62q-24 65 -70 124.5t-113.5 111t-163.5 82.5t-206 31q-202 0 -383.5 -155.5t-240.5 -377.5h614 v-61h-625q-10 -52 -10 -103q0 -23 2.5 -48.5t5.5 -39.5l2 -14h625v-62h-614q38 -146 134.5 -268.5t226.5 -193t263 -70.5q119 0 219 31.5t171.5 87t121.5 122.5t82 148h62q-28 -87 -83.5 -165.5t-136 -143.5t-194 -103t-242.5 -38q-232 0 -430.5 171t-255.5 422h-184z" />
<glyph unicode="&#x2122;" horiz-adv-x="1413" d="M20 1331v62h533v-62h-236v-553h-61v553h-236zM635 778v615h72l256 -359l256 359h71v-615h-61v533l-266 -369l-267 369v-533h-61z" />
<glyph unicode="&#x25fc;" horiz-adv-x="921" d="M0 0v922h922v-922h-922z" />
</font>
</defs>
</svg>
