<?xml version="1.0" standalone="no"?>
<!DOCTYPE svg PUBLIC "-//W3C//DTD SVG 1.1//EN" "http://www.w3.org/Graphics/SVG/1.1/DTD/svg11.dtd" >
<svg xmlns="http://www.w3.org/2000/svg">
<metadata></metadata>
<defs>
<font id="tt_firshairline" horiz-adv-x="1116" >
<font-face units-per-em="2048" ascent="1638" descent="-410" />
<missing-glyph horiz-adv-x="307" />
<glyph horiz-adv-x="0" />
<glyph horiz-adv-x="0" />
<glyph horiz-adv-x="682" />
<glyph unicode="&#xd;" horiz-adv-x="0" />
<glyph unicode=" "  horiz-adv-x="307" />
<glyph unicode="&#x09;" horiz-adv-x="307" />
<glyph unicode="&#xa0;" horiz-adv-x="307" />
<glyph unicode="!" horiz-adv-x="491" d="M215 31q0 30 31 30q30 0 30 -30q0 -31 -30 -31q-31 0 -31 31zM236 369v1024h20v-1024h-20z" />
<glyph unicode="&#x22;" horiz-adv-x="634" d="M184 922v471h21v-471h-21zM430 922v471h21v-471h-21z" />
<glyph unicode="#" horiz-adv-x="1280" d="M41 430v21h293l141 491h-291v21h297l123 430h21l-123 -430h430l123 430h20l-123 -430h287v-21h-293l-141 -491h291v-21h-297l-123 -430h-21l123 430h-430l-123 -430h-20l123 430h-287zM354 451h430l142 491h-430z" />
<glyph unicode="$" horiz-adv-x="1075" d="M102 410h21q53 -107 153.5 -176.5t255.5 -69.5q191 0 295.5 82.5t104.5 204.5q0 70 -43 118t-111.5 72t-151.5 41t-166 35t-151.5 43.5t-111.5 76.5t-43 126q0 121 100.5 203.5t277.5 82.5v226h21v-226q277 0 389 -245h-20q-25 50 -55.5 88t-75.5 70t-107.5 49.5 t-140.5 17.5q-176 0 -272.5 -76t-96.5 -190q0 -70 43 -118t111.5 -72t151.5 -41t166 -35t151.5 -43.5t111.5 -76.5t43 -126q0 -129 -108 -218.5t-291 -89.5v-204h-21v204q-163 0 -270.5 76.5t-159.5 190.5z" />
<glyph unicode="%" horiz-adv-x="1454" d="M102 1085q0 142 83 235t194 93t193.5 -93t82.5 -235t-82.5 -234.5t-193.5 -92.5t-194 92.5t-83 234.5zM123 1085q0 -134 76.5 -220.5t179.5 -86.5t179.5 86.5t76.5 220.5t-76.5 221t-179.5 87t-179.5 -87t-76.5 -221zM287 0l860 1393h20l-860 -1393h-20zM799 307 q0 142 82.5 235t193.5 93t194 -93t83 -235t-83 -234.5t-194 -92.5t-193.5 92.5t-82.5 234.5zM819 307q0 -134 76.5 -220.5t179.5 -86.5t179.5 86.5t76.5 220.5t-76.5 220.5t-179.5 86.5t-179.5 -86.5t-76.5 -220.5z" />
<glyph unicode="&#x26;" horiz-adv-x="1187" d="M123 348q0 73 23.5 141t61.5 117.5t84 93t92 72t84 49t62 29.5l23 10l-328 502v31h758v-21h-737l880 -1372h-30l-103 164q-6 -9 -18 -24t-53 -54t-86.5 -68.5t-117 -54t-145.5 -24.5q-196 0 -323 118.5t-127 290.5zM143 348q0 -164 120.5 -276.5t309.5 -112.5 q52 0 103 12.5t90.5 32.5t75 43.5t61 47.5t44 44t27.5 33l9 12l-420 656q-9 -3 -24 -9t-58.5 -28t-83.5 -47.5t-88.5 -68t-83 -89.5t-58.5 -113t-24 -137z" />
<glyph unicode="'" horiz-adv-x="389" d="M184 922v471h21v-471h-21z" />
<glyph unicode="(" horiz-adv-x="727" d="M184 594q0 80 10 156.5t25 139t42 127t50 111.5t61 102t63.5 88.5t69 81.5t66 71t64.5 65l10 -20q-51 -51 -80 -81.5t-82 -92.5t-85.5 -111.5t-73 -125.5t-63.5 -149t-39.5 -167.5t-16.5 -194.5t16.5 -194.5t39.5 -167.5t63.5 -149t73 -125.5t85.5 -111.5t82 -92.5 t80 -81.5l-10 -20q-42 42 -64.5 65t-66 71t-69 81.5t-63.5 88.5t-61 102t-50 111.5t-42 127t-25 139t-10 156.5z" />
<glyph unicode=")" horiz-adv-x="727" d="M82 -328q51 51 80 81.5t82 92.5t85.5 111.5t73 125.5t63.5 149t39.5 167.5t16.5 194.5t-16.5 194.5t-39.5 167.5t-63.5 149t-73 125.5t-85.5 111.5t-82 92.5t-80 81.5l10 20q42 -42 64.5 -65t66 -71t69 -81.5t63.5 -88.5t61 -102t50 -111.5t42 -127t25 -139t10 -156.5 t-10 -156.5t-25 -139t-42 -127t-50 -111.5t-61 -102t-63.5 -88.5t-69 -81.5t-66 -71t-64.5 -65z" />
<glyph unicode="*" horiz-adv-x="716" d="M102 1126v21h246v246h21v-246h245v-21h-235l153 -235l-20 -10l-154 237l-153 -237l-21 10l154 235h-236z" />
<glyph unicode="+" horiz-adv-x="921" d="M82 635v20h369v389h20v-389h369v-20h-369v-389h-20v389h-369z" />
<glyph unicode="," horiz-adv-x="389" d="M123 -164l72 164q-31 0 -31 31q0 30 31 30q30 0 30 -30l-10 -31l-72 -164h-20z" />
<glyph unicode="-" horiz-adv-x="860" d="M82 635v20h696v-20h-696z" />
<glyph unicode="." horiz-adv-x="389" d="M164 31q0 30 31 30q30 0 30 -30q0 -31 -30 -31q-31 0 -31 31z" />
<glyph unicode="/" horiz-adv-x="757" d="M82 0l573 1393h21l-574 -1393h-20z" />
<glyph unicode="0" horiz-adv-x="1433" d="M123 696q0 163 52.5 307.5t137 241.5t190.5 153t214 56t214 -56t190.5 -153t137 -241.5t52.5 -307.5t-52.5 -307.5t-137 -241t-190.5 -152.5t-214 -56t-214 56t-190.5 152.5t-137 241t-52.5 307.5zM143 696q0 -159 51 -299.5t132.5 -235t184 -148.5t206.5 -54t206 54 t184 148.5t132.5 235t50.5 299.5t-50.5 300t-132.5 235t-184 148.5t-206 54.5t-206.5 -54.5t-184 -148.5t-132.5 -235t-51 -300z" />
<glyph unicode="1" horiz-adv-x="604" d="M102 1106v20q92 0 164 72t103 195h20v-1393h-20v1331q-32 -96 -105 -160.5t-162 -64.5z" />
<glyph unicode="2" horiz-adv-x="1157" d="M102 0v20q0 92 31 171t83 138t119.5 111.5t142.5 96.5t150 86.5t142.5 89t119.5 96.5t83 115.5t31 140.5q0 157 -114.5 263t-295.5 106q-363 0 -471 -308h-21q50 150 169.5 239t322.5 89q189 0 309.5 -112.5t120.5 -276.5q0 -79 -31 -147t-83 -120t-119.5 -99.5 t-142 -90.5t-149.5 -86.5t-142.5 -94.5t-119.5 -108.5t-83 -134t-31 -164.5h921v-20h-942z" />
<glyph unicode="3" horiz-adv-x="1157" d="M61 307h21q49 -157 172 -252.5t319 -95.5q198 0 324.5 122t126.5 308t-126.5 308t-324.5 122h-163v21l563 532h-809v21h840v-21l-564 -532h133q205 0 338 -129t133 -322t-132.5 -321.5t-338.5 -128.5q-204 0 -333.5 101.5t-178.5 266.5z" />
<glyph unicode="4" horiz-adv-x="1167" d="M82 369v20l512 1004h20l-512 -1004h799v451h21v-451h204v-20h-204v-369h-21v369h-819z" />
<glyph unicode="5" horiz-adv-x="1146" d="M61 307h21q49 -157 172 -252.5t319 -95.5q192 0 321.5 123t129.5 307q0 186 -126.5 308t-324.5 122h-327l102 574h635v-21h-614l-93 -532h297q205 0 338 -129t133 -322t-132.5 -321.5t-338.5 -128.5q-204 0 -333.5 101.5t-178.5 266.5z" />
<glyph unicode="6" horiz-adv-x="1187" d="M102 430q0 63 14 124t33.5 103.5t39 76t33.5 49.5l14 16l481 594h20l-481 -594h10q5 5 14.5 13.5t42.5 29.5t69.5 37t94 29.5t117.5 13.5q214 0 358 -142t144 -350t-144 -349.5t-358 -141.5t-358 141.5t-144 349.5zM123 430q0 -200 137.5 -335.5t343.5 -135.5 t343.5 135.5t137.5 335.5t-137.5 335.5t-343.5 135.5q-202 0 -341.5 -133.5t-139.5 -337.5z" />
<glyph unicode="7" horiz-adv-x="962" d="M41 1372v21h881v-31l-615 -1362h-20l614 1372h-860z" />
<glyph unicode="8" horiz-adv-x="1249" d="M113 348q0 67 20.5 125t52 98t71.5 72t78 51t72 32t53 17.5t21 4.5v10q-6 2 -17.5 5t-43 15.5t-60.5 28.5t-64.5 44.5t-61 61t-43 81t-17.5 102.5q0 69 32 133.5t89.5 114.5t143.5 80t186 30q199 0 324.5 -107t125.5 -251q0 -54 -17 -102t-44 -81.5t-59.5 -61 t-65.5 -44.5t-60 -28.5t-44 -16.5l-17 -4v-10q3 0 21.5 -4.5t52.5 -17.5t72 -32t78 -51t72 -72t52.5 -98t20.5 -125q0 -81 -36 -154.5t-100.5 -130.5t-162 -90.5t-213.5 -33.5t-213.5 33.5t-162 90.5t-100.5 130.5t-36 154.5zM133 348q0 -77 34 -147t96 -124t156 -86 t206 -32t206 32t155.5 86t95.5 124t34 147t-34 147t-95.5 124t-155.5 86t-206 32t-206 -32t-156 -86t-96 -124t-34 -147zM195 1096q0 -137 119 -237.5t311 -100.5t311 100.5t119 237.5t-119 237.5t-311 100.5t-311 -100.5t-119 -237.5z" />
<glyph unicode="9" horiz-adv-x="1187" d="M82 963q0 208 144 349.5t358 141.5t357.5 -141.5t143.5 -349.5q0 -63 -13.5 -124t-33.5 -103.5t-39.5 -76t-32.5 -49.5l-14 -16l-481 -594h-20l481 594h-10q-5 -5 -14.5 -13.5t-42.5 -29.5t-69.5 -37t-94 -29.5t-117.5 -13.5q-214 0 -358 142t-144 350zM102 963 q0 -200 138 -335.5t344 -135.5q202 0 341.5 133.5t139.5 337.5q0 200 -137.5 335.5t-343.5 135.5t-344 -135.5t-138 -335.5z" />
<glyph unicode=":" horiz-adv-x="389" d="M164 31q0 30 31 30q30 0 30 -30q0 -31 -30 -31q-31 0 -31 31zM164 891q0 31 31 31q30 0 30 -31t-30 -31q-31 0 -31 31z" />
<glyph unicode=";" horiz-adv-x="389" d="M123 -164l72 164q-31 0 -31 31q0 30 31 30q30 0 30 -30l-10 -31l-72 -164h-20zM164 891q0 31 31 31q30 0 30 -31t-30 -31q-31 0 -31 31z" />
<glyph unicode="&#x3c;" horiz-adv-x="921" d="M82 451v30l758 379v-20l-738 -369v-10l738 -369v-20z" />
<glyph unicode="=" horiz-adv-x="901" d="M102 410v20h697v-20h-697zM102 778v21h697v-21h-697z" />
<glyph unicode="&#x3e;" horiz-adv-x="921" d="M82 72v20l737 369v10l-737 369v20l758 -379v-30z" />
<glyph unicode="?" horiz-adv-x="1044" d="M41 1126q49 149 165.5 238.5t305.5 89.5q187 0 308.5 -109t121.5 -260q0 -83 -25 -142t-64.5 -92.5t-87.5 -60.5t-96 -58t-87.5 -72.5t-64.5 -115t-25 -175.5h-21q0 104 25 179.5t64.5 117.5t87.5 73.5t96.5 58.5t88 59.5t64.5 89.5t25 138q0 143 -115.5 246t-294.5 103 q-343 0 -451 -308h-20zM451 31q0 30 30 30q31 0 31 -30q0 -31 -31 -31q-30 0 -30 31z" />
<glyph unicode="@" horiz-adv-x="1699" d="M123 655q0 158 58 299t156.5 241.5t235 159t287.5 58.5q161 0 300 -52t234 -139t149 -202.5t54 -241.5q0 -189 -132.5 -309.5t-358.5 -120.5v113h-10q-3 -5 -9.5 -14t-29 -32t-48 -40.5t-66 -32t-83.5 -14.5q-117 0 -212 99t-95 228t95 228.5t212 99.5q43 0 83 -13.5 t67 -33.5t47 -39.5t29 -32.5l10 -14h10v113h20v-594q204 0 327.5 114.5t123.5 294.5q0 122 -52 234t-144.5 196.5t-228 134.5t-292.5 50q-147 0 -280 -56.5t-228.5 -154.5t-152 -235t-56.5 -292q0 -206 95.5 -375.5t260 -265.5t361.5 -96q100 0 202.5 25.5t155.5 50.5l52 26 v-20q-8 -4 -21.5 -11t-57.5 -24.5t-89.5 -31t-112 -24.5t-129.5 -11q-152 0 -288 58.5t-234.5 158.5t-156.5 241t-58 299zM573 655q0 -121 89 -214t198 -93q46 0 88 17t69.5 41t48.5 48t30 41l10 17v287q-3 7 -9.5 18t-29.5 39t-49.5 50t-69 39.5t-88.5 17.5 q-109 0 -198 -93.5t-89 -214.5z" />
<glyph unicode="A" horiz-adv-x="1392" d="M102 0l338 1393h512l338 -1393h-20l-103 410h-942l-102 -410h-21zM231 430h930l-229 942h-471z" />
<glyph unicode="B" horiz-adv-x="1402" d="M215 0v1393h553q166 0 267.5 -93.5t101.5 -234.5q0 -63 -21 -117t-51.5 -85.5t-60.5 -54t-51 -31.5l-21 -9v-10q154 -15 261 -124t107 -255q0 -157 -119 -268t-300 -111h-666zM236 20h645q174 0 286.5 105t112.5 254t-112.5 253.5t-286.5 104.5h-645v-717zM236 758h532 q158 0 253 87t95 220t-95 220t-253 87h-532v-614z" />
<glyph unicode="C" horiz-adv-x="1546" d="M113 696q0 150 60 291t157 242.5t223.5 163t255.5 61.5q118 0 221.5 -34.5t176.5 -91.5t122.5 -124t73.5 -139h-21q-19 54 -52.5 105.5t-85 99.5t-114.5 84t-146 58t-175 22q-125 0 -248 -60t-217 -159t-152.5 -236t-58.5 -283t58.5 -283t152.5 -236t217 -158.5 t248 -59.5q122 0 226 33t178 92t126 130t84 155h21q-32 -88 -86 -163t-131 -136t-184.5 -96t-233.5 -35q-129 0 -255.5 61.5t-223.5 162.5t-157 242t-60 291z" />
<glyph unicode="D" horiz-adv-x="1413" d="M215 0v1393h369q212 0 375.5 -88.5t252 -247t88.5 -361.5q0 -152 -52 -281.5t-144.5 -220.5t-226.5 -142.5t-293 -51.5h-369zM236 20h348q313 0 504.5 187.5t191.5 488.5t-191.5 488.5t-504.5 187.5h-348v-1352z" />
<glyph unicode="E" horiz-adv-x="1218" d="M215 0v1393h922v-21h-901v-655h716v-21h-716v-676h901v-20h-922z" />
<glyph unicode="F" horiz-adv-x="1157" d="M215 0v1393h881v-21h-860v-696h696v-21h-696v-655h-21z" />
<glyph unicode="G" horiz-adv-x="1576" d="M113 696q0 150 60 291t157 242.5t223.5 163t255.5 61.5q118 0 221.5 -34.5t176.5 -91.5t122.5 -124t73.5 -139h-21q-19 54 -52.5 105.5t-85 99.5t-114.5 84t-146 58t-175 22q-125 0 -248 -60t-217 -159t-152.5 -236t-58.5 -283t58.5 -283t152.5 -236t217 -158.5 t248 -59.5q130 0 246 48t202 133t136.5 208t50.5 266h-512v21h532q0 -151 -50.5 -281.5t-138 -221t-208.5 -142t-258 -51.5q-129 0 -255.5 61.5t-223.5 162.5t-157 242t-60 291z" />
<glyph unicode="H" horiz-adv-x="1413" d="M215 0v1393h21v-676h942v676h20v-1393h-20v696h-942v-696h-21z" />
<glyph unicode="I" horiz-adv-x="450" d="M215 0v1393h21v-1393h-21z" />
<glyph unicode="J" horiz-adv-x="1054" d="M41 205h20q105 -246 349 -246q181 0 295 126.5t114 344.5v963h21v-963q0 -226 -120.5 -358.5t-309.5 -132.5q-264 0 -369 266z" />
<glyph unicode="K" horiz-adv-x="1239" d="M215 0v1393h21v-893l870 893h31l-533 -543l553 -850h-31l-532 829h-10l-348 -358v-471h-21z" />
<glyph unicode="L" horiz-adv-x="1136" d="M215 0v1393h21v-1373h860v-20h-881z" />
<glyph unicode="M" horiz-adv-x="1740" d="M215 0v1393h31l624 -768l625 768h31v-1393h-21v1372l-635 -778l-634 778v-1372h-21z" />
<glyph unicode="N" horiz-adv-x="1454" d="M215 0v1393h31l973 -1373v1373h20v-1393h-31l-972 1372v-1372h-21z" />
<glyph unicode="O" horiz-adv-x="1658" d="M113 696q0 150 60.5 291t159 242.5t229.5 163t267 61.5q182 0 347.5 -103t267.5 -279t102 -376q0 -150 -60.5 -290.5t-159 -242t-230 -163t-267.5 -61.5t-267 61.5t-229.5 163t-159 242t-60.5 290.5zM133 696q0 -146 59 -283t154.5 -236t223 -158.5t259.5 -59.5 t259.5 59.5t223.5 158.5t155 236t59 283t-59 283t-155 236t-223.5 159t-259.5 60t-259.5 -60t-223 -159t-154.5 -236t-59 -283z" />
<glyph unicode="P" horiz-adv-x="1361" d="M215 0v1393h533q227 0 369.5 -134.5t142.5 -336.5t-142.5 -336.5t-369.5 -134.5h-512v-451h-21zM236 471h512q220 0 355.5 128t135.5 323t-135.5 322.5t-355.5 127.5h-512v-901z" />
<glyph unicode="Q" horiz-adv-x="1658" d="M113 696q0 150 60.5 291t159 242.5t229.5 163t267 61.5q182 0 347.5 -103t267.5 -279t102 -376q0 -71 -13 -139.5t-33.5 -120.5t-46 -99t-50.5 -79.5t-45.5 -56.5t-33.5 -35l-13 -12l235 -226l-10 -10l-236 225q-7 -8 -21.5 -22t-61.5 -49t-98.5 -62t-130.5 -49t-159 -22 q-136 0 -267 61.5t-229.5 163t-159 242t-60.5 290.5zM133 696q0 -146 59 -283t154.5 -236t223 -158.5t259.5 -59.5q77 0 153 20t129 48.5t95.5 57.5t63.5 49l20 20l-174 163l10 11l174 -164q9 8 24.5 23t54.5 67t68.5 109t54 147.5t24.5 185.5q0 146 -59 283t-155 236 t-223.5 159t-259.5 60t-259.5 -60t-223 -159t-154.5 -236t-59 -283z" />
<glyph unicode="R" horiz-adv-x="1372" d="M215 0v1393h573q212 0 342 -121.5t130 -308.5q0 -163 -102.5 -279.5t-246.5 -140.5l318 -543h-31l-307 532h-655v-532h-21zM236 553h552q204 0 327.5 115t123.5 295t-123.5 294.5t-327.5 114.5h-552v-819z" />
<glyph unicode="S" horiz-adv-x="1228" d="M92 307h21q24 -76 65 -137t102 -109.5t149 -75t196 -26.5q105 0 194.5 32t149.5 85.5t93.5 124t33.5 147.5q0 75 -31.5 132.5t-85 94t-122.5 64.5t-145.5 49l-153 42t-145.5 50t-122.5 67.5t-85 98.5t-31.5 139q0 73 32 140t89.5 118t143 81t186.5 30q382 0 491 -328h-20 q-108 308 -471 308q-193 0 -311.5 -102.5t-118.5 -246.5q0 -75 31.5 -132.5t85 -94t122.5 -64.5t145 -49t152.5 -42t145.5 -50t122.5 -67.5t85 -98.5t31.5 -139q0 -167 -137.5 -288t-353.5 -121q-218 0 -351 101t-182 267z" />
<glyph unicode="T" horiz-adv-x="1167" d="M41 1372v21h1085v-21h-532v-1372h-21v1372h-532z" />
<glyph unicode="U" horiz-adv-x="1454" d="M215 492v901h21v-901q0 -243 136.5 -388t354.5 -145t355 145t137 388v901h20v-901q0 -250 -143 -401.5t-369 -151.5t-369 151.5t-143 401.5z" />
<glyph unicode="V" horiz-adv-x="1392" d="M102 1393h21l338 -1373h471l338 1373h20l-338 -1393h-512z" />
<glyph unicode="W" horiz-adv-x="1863" d="M102 1393h21l328 -1373h102l328 1373h102l328 -1373h102l328 1373h20l-327 -1393h-144l-327 1372h-62l-328 -1372h-143z" />
<glyph unicode="X" horiz-adv-x="1269" d="M82 0l543 737l-492 656h31l467 -625h8l467 625h31l-492 -656l543 -737h-31l-518 707h-8l-518 -707h-31z" />
<glyph unicode="Y" horiz-adv-x="1290" d="M61 1393h31l553 -901l553 901h31l-574 -922v-471h-20v471z" />
<glyph unicode="Z" horiz-adv-x="1187" d="M82 0v31l1003 1341h-962v21h983v-31l-1004 -1342h1004v-20h-1024z" />
<glyph unicode="[" horiz-adv-x="645" d="M215 -287v1762h369v-21h-348v-1720h348v-21h-369z" />
<glyph unicode="\" horiz-adv-x="757" d="M82 1393h20l574 -1393h-21z" />
<glyph unicode="]" horiz-adv-x="645" d="M61 -266h349v1720h-349v21h369v-1762h-369v21z" />
<glyph unicode="^" horiz-adv-x="798" d="M82 778l307 615h21l307 -615h-21l-297 584l-297 -584h-20z" />
<glyph unicode="_" horiz-adv-x="696" d="M0 -307h696v-21h-696v21z" />
<glyph unicode="`" horiz-adv-x="471" d="M82 1372l10 21l297 -164l-10 -21z" />
<glyph unicode="a" d="M113 461q0 105 37 199t98.5 160t141 104.5t163.5 38.5q66 0 127 -25.5t101.5 -61.5t71 -72t44.5 -62l14 -25h11v205h20v-922h-20v205h-11q-5 -10 -14.5 -26.5t-43.5 -59t-72 -75t-100 -59t-128 -26.5q-84 0 -163.5 38.5t-141 104.5t-98.5 160t-37 199zM133 461 q0 -101 35.5 -191.5t94 -153t134.5 -99.5t156 -37q69 0 132.5 28.5t104.5 69t72.5 81t45.5 69.5l14 28v410q-5 11 -15 29.5t-44.5 66.5t-73.5 84t-103 66t-133 30q-80 0 -156 -37t-134.5 -99.5t-94 -153t-35.5 -191.5z" />
<glyph unicode="b" horiz-adv-x="1126" d="M184 0v1393h21v-676h10q5 10 14.5 26.5t43.5 59t72 75t100 59t128 26.5q84 0 164 -38.5t141 -104.5t98.5 -160t37.5 -199t-37.5 -199t-98.5 -160t-141 -104.5t-164 -38.5q-66 0 -127 25.5t-101.5 61.5t-71 72t-44.5 62l-14 25h-10v-205h-21zM205 256q5 -11 14.5 -29.5 t44 -66.5t73.5 -84t103 -66t133 -30q80 0 156 37t134.5 99.5t94 153t35.5 191.5t-35.5 191.5t-94 153t-134.5 99.5t-156 37q-50 0 -97.5 -15t-83 -39.5t-67 -54t-53 -59t-37 -54t-23.5 -39.5l-7 -15v-410z" />
<glyph unicode="c" horiz-adv-x="1064" d="M113 461q0 105 37 199t98.5 160t141 104.5t163.5 38.5q150 0 247.5 -71.5t131.5 -174.5h-21q-35 95 -125 160t-233 65q-80 0 -156 -37t-134.5 -99.5t-94 -153t-35.5 -191.5t35.5 -191.5t94 -153t134.5 -99.5t156 -37q150 0 256.5 81.5t132.5 184.5h21 q-26 -110 -139 -198.5t-271 -88.5q-84 0 -163.5 38.5t-141 104.5t-98.5 160t-37 199z" />
<glyph unicode="d" horiz-adv-x="1126" d="M113 461q0 105 37 199t98.5 160t141 104.5t163.5 38.5q66 0 127 -25.5t101.5 -61.5t71 -72t44.5 -62l14 -25h11v676h20v-1393h-20v205h-11q-5 -10 -14.5 -26.5t-43.5 -59t-72 -75t-100 -59t-128 -26.5q-84 0 -163.5 38.5t-141 104.5t-98.5 160t-37 199zM133 461 q0 -101 35.5 -191.5t94 -153t134.5 -99.5t156 -37q69 0 132.5 28.5t104.5 69t72.5 81t45.5 69.5l14 28v410q-5 11 -15 29.5t-44.5 66.5t-73.5 84t-103 66t-133 30q-80 0 -156 -37t-134.5 -99.5t-94 -153t-35.5 -191.5z" />
<glyph unicode="e" horiz-adv-x="1075" d="M113 461q0 104 37 199t97 160.5t138 104t158 38.5t158 -38.5t138 -103.5t97 -157t37 -193l-21 -20h-819q0 -130 60.5 -239.5t157 -170.5t202.5 -61q150 0 255.5 81.5t133.5 184.5h21q-13 -51 -47 -101t-85 -92t-123.5 -68t-154.5 -26q-84 0 -163.5 38.5t-141 104.5 t-98.5 160t-37 199zM133 471h819q0 130 -59.5 239.5t-153.5 170.5t-196 61t-196 -61t-154 -170.5t-60 -239.5z" />
<glyph unicode="f" horiz-adv-x="552" d="M41 881v20h164v266q0 114 62 180t163 66q36 0 72 -10.5t54 -20.5l17 -10v-20q-61 41 -143 41q-93 0 -149 -60t-56 -166v-266h287v-20h-287v-881h-20v881h-164z" />
<glyph unicode="g" d="M113 481q0 97 37.5 187t98 154t141 102.5t163.5 38.5q66 0 127 -25.5t101.5 -61.5t71 -72t44.5 -62l14 -25h11v205h20v-912q0 -93 -32 -176t-84.5 -140.5t-121 -90.5t-141.5 -33q-150 0 -247.5 71.5t-131.5 174.5h21q35 -96 125 -161t233 -65t251 120.5t108 299.5v236 h-11q-5 -10 -14.5 -26.5t-43.5 -59t-72 -75t-100 -59t-128 -26.5q-112 0 -213 64t-164 176t-63 241zM133 481q0 -93 35.5 -179.5t93.5 -147.5t134.5 -97.5t156.5 -36.5q69 0 132.5 28.5t104.5 69.5t72.5 81.5t45.5 68.5l14 29v369q-5 11 -15 29.5t-44.5 66.5t-73.5 84 t-103 66t-133 30q-80 0 -156.5 -36.5t-134.5 -97.5t-93.5 -147.5t-35.5 -179.5z" />
<glyph unicode="h" horiz-adv-x="1126" d="M184 0v1393h21v-676h10q5 10 14.5 26.5t43.5 59t72 75t100 59t128 26.5q170 0 280 -113.5t110 -296.5v-553h-21v553q0 175 -103 282t-266 107q-50 0 -97.5 -15t-83 -39.5t-67 -54t-53 -59t-37 -54t-23.5 -39.5l-7 -15v-666h-21z" />
<glyph unicode="i" horiz-adv-x="409" d="M174 1300q0 31 31 31t31 -31q0 -30 -31 -30t-31 30zM195 0v922h20v-922h-20z" />
<glyph unicode="j" horiz-adv-x="409" d="M-154 -369q62 -41 144 -41q93 0 149 60t56 166v1106h20v-1106q0 -114 -62 -180t-163 -66q-36 0 -72 10t-54 20l-18 11v20zM174 1300q0 31 31 31t31 -31q0 -30 -31 -30t-31 30z" />
<glyph unicode="k" horiz-adv-x="952" d="M184 0v1393h21v-1094l614 623h31l-350 -359l411 -563h-30l-392 543h-10l-274 -277v-266h-21z" />
<glyph unicode="l" horiz-adv-x="430" d="M41 1372v21h205v-1393h-21v1372h-184z" />
<glyph unicode="m" horiz-adv-x="1628" d="M174 0v922h21v-205h10q3 10 9 26.5t30.5 59t55.5 75t85 59t117 26.5q54 0 100.5 -14.5t78 -38.5t56.5 -52t39 -56.5t23.5 -52.5t12.5 -39l3 -14h8q1 6 3.5 15.5t12.5 37t23.5 53t39 56t56.5 53t78 37.5t101 15q142 0 234.5 -105t92.5 -285v-573h-20v573q0 172 -86 270.5 t-221 98.5t-221.5 -98.5t-86.5 -270.5v-573h-20v573q0 172 -86 270.5t-221 98.5q-46 0 -87.5 -16.5t-71.5 -42.5t-56 -57.5t-42.5 -63.5t-28 -58t-16.5 -42l-5 -17v-645h-21z" />
<glyph unicode="n" d="M174 0v922h21v-205h10q5 10 14.5 26.5t43.5 59t72 75t100 59t128 26.5q170 0 279.5 -113.5t109.5 -296.5v-553h-20v553q0 175 -103 282t-266 107q-50 0 -97.5 -15t-83 -39.5t-67 -54t-53 -59t-37 -54t-23.5 -39.5l-7 -15v-666h-21z" />
<glyph unicode="o" horiz-adv-x="1146" d="M113 461q0 140 63.5 256t169 181t227.5 65t227.5 -65t169.5 -181t64 -256t-64 -256t-169.5 -181t-227.5 -65t-227.5 65t-169 181t-63.5 256zM133 461q0 -135 60.5 -246t161.5 -173t218 -62t218 62t162 173t61 246t-61 246t-162 173t-218 62t-218 -62t-161.5 -173 t-60.5 -246z" />
<glyph unicode="p" d="M174 -410v1332h21v-205h10q5 10 14.5 26.5t43.5 59t72 75t100 59t128 26.5q84 0 164 -38.5t141 -104.5t98.5 -160t37.5 -199t-37.5 -199t-98.5 -160t-141 -104.5t-164 -38.5q-66 0 -127 25.5t-101.5 61.5t-71 72t-44.5 62l-14 25h-10v-615h-21zM195 256q5 -11 14.5 -29.5 t44 -66.5t73.5 -84t103 -66t133 -30q80 0 156 37t134.5 99.5t94 153t35.5 191.5t-35.5 191.5t-94 153t-134.5 99.5t-156 37q-50 0 -97.5 -15t-83 -39.5t-67 -54t-53 -59t-37 -54t-23.5 -39.5l-7 -15v-410z" />
<glyph unicode="q" d="M113 461q0 105 37 199t98.5 160t141 104.5t163.5 38.5q66 0 127 -25.5t101.5 -61.5t71 -72t44.5 -62l14 -25h11v205h20v-1332h-20v615h-11q-5 -10 -14.5 -26.5t-43.5 -59t-72 -75t-100 -59t-128 -26.5q-84 0 -163.5 38.5t-141 104.5t-98.5 160t-37 199zM133 461 q0 -101 35.5 -191.5t94 -153t134.5 -99.5t156 -37q69 0 132.5 28.5t104.5 69t72.5 81t45.5 69.5l14 28v410q-5 11 -15 29.5t-44.5 66.5t-73.5 84t-103 66t-133 30q-80 0 -156 -37t-134.5 -99.5t-94 -153t-35.5 -191.5z" />
<glyph unicode="r" horiz-adv-x="624" d="M174 0v922h21v-205h10q5 10 14.5 26.5t43.5 59t72 75t100 59t128 26.5h21v-21h-21q-50 0 -97.5 -15t-83 -39.5t-67 -54t-53 -59t-37 -54t-23.5 -39.5l-7 -15v-666h-21z" />
<glyph unicode="s" horiz-adv-x="942" d="M82 225h20q34 -102 129.5 -173.5t239.5 -71.5q171 0 259.5 73t88.5 193q0 55 -28.5 93.5t-75.5 57.5t-106.5 34.5t-122 24t-122 26t-106.5 40.5t-75.5 67.5t-28.5 106.5q0 112 91.5 189.5t246.5 77.5q128 0 210 -59t117 -146h-20q-35 79 -111 131.5t-196 52.5 q-148 0 -233 -71t-85 -175q0 -52 23 -90.5t61.5 -61t88.5 -38t105 -25.5l110 -20t105 -25.5t88.5 -38t61.5 -61t23 -90.5q0 -128 -95.5 -207.5t-273.5 -79.5q-151 0 -253 78t-136 188z" />
<glyph unicode="t" horiz-adv-x="634" d="M41 881v20h164v287h20v-287h287v-20h-287v-676q0 -106 55.5 -165.5t149.5 -59.5q36 0 72 10t54 20l17 10v-20q-61 -41 -143 -41q-101 0 -163 66t-62 180v676h-164z" />
<glyph unicode="u" horiz-adv-x="1126" d="M174 369v553h21v-553q0 -175 102.5 -282t265.5 -107q69 0 132.5 28.5t104.5 69t72.5 81t45.5 69.5l14 28v666h20v-922h-20v205h-10q-5 -10 -14.5 -26.5t-43.5 -59t-72.5 -75t-100.5 -59t-128 -26.5q-170 0 -279.5 113.5t-109.5 296.5z" />
<glyph unicode="v" horiz-adv-x="1024" d="M102 922h21l205 -902h368l205 902h21l-205 -922h-410z" />
<glyph unicode="w" horiz-adv-x="1382" d="M102 922h21l215 -902h92l215 902h92l215 -902h92l216 902h20l-215 -922h-133l-215 901h-51l-215 -901h-134z" />
<glyph unicode="x" horiz-adv-x="942" d="M82 0l379 481l-348 441h28l326 -410h8l324 410h30l-348 -441l379 -481h-31l-354 451h-8l-354 -451h-31z" />
<glyph unicode="y" horiz-adv-x="1003" d="M102 922h21l205 -902h348l205 902h20l-246 -1106q-27 -117 -90.5 -181.5t-154.5 -64.5q-36 0 -72 10t-54 20l-18 11v20q62 -41 144 -41q84 0 142 59t83 167l41 184h-369z" />
<glyph unicode="z" horiz-adv-x="880" d="M61 0v31l719 870h-698v21h717v-31l-717 -871h737v-20h-758z" />
<glyph unicode="{" horiz-adv-x="593" d="M82 584v20h51q73 2 113.5 54.5t19.5 140.5l-102 430q-14 58 -4.5 103.5t36.5 77t66.5 48.5t85.5 17h164v-21h-164q-90 0 -139.5 -61t-24.5 -164l103 -430q11 -52 5 -88t-23.5 -58t-36.5 -34.5t-34 -16.5l-14 -4v-8q3 -1 8 -2t19.5 -7t25.5 -15t26.5 -24.5t21 -36.5 t9.5 -50t-7 -66l-103 -430q-25 -103 24.5 -164t139.5 -61h164v-21h-164q-46 0 -85.5 17t-66.5 48.5t-36.5 77t4.5 103.5l102 430q21 88 -19.5 140.5t-113.5 54.5h-51z" />
<glyph unicode="|" horiz-adv-x="450" d="M215 -205v1741h21v-1741h-21z" />
<glyph unicode="}" horiz-adv-x="593" d="M82 -266h164q90 0 139.5 61t24.5 164l-103 430q-11 52 -5 88t23.5 58t36.5 34.5t34 16.5l14 4v8q-3 1 -8 2t-19.5 7t-25.5 15t-26.5 24.5t-21 36.5t-9.5 50t7 66l103 430q25 103 -24.5 164t-139.5 61h-164v21h164q46 0 85.5 -17t66.5 -48.5t36.5 -77t-4.5 -103.5 l-102 -430q-21 -88 19.5 -140.5t113.5 -54.5h51v-20h-51q-73 -2 -113.5 -54.5t-19.5 -140.5l102 -430q14 -58 4.5 -103.5t-36.5 -77t-66.5 -48.5t-85.5 -17h-164v21z" />
<glyph unicode="~" horiz-adv-x="798" d="M82 563q15 76 62 125t102 49q37 0 70.5 -17t60 -41t52.5 -48t58 -41t66 -17q47 0 87.5 45t55.5 119l21 -10q-15 -76 -62 -125t-102 -49q-37 0 -70.5 17t-60 41t-52.5 48t-58 41t-66 17q-47 0 -88 -45t-56 -119z" />
<glyph unicode="&#xa1;" horiz-adv-x="491" d="M215 891q0 31 31 31q30 0 30 -31t-30 -31q-31 0 -31 31zM236 -410v963h20v-963h-20z" />
<glyph unicode="&#xa2;" horiz-adv-x="1064" d="M113 461q0 103 36 196.5t96 159t138 105t160 41.5v184h20v-184q146 -3 240.5 -74t128.5 -172h-21q-35 95 -125 160t-233 65q-80 0 -156 -37t-134.5 -99.5t-94 -153t-35.5 -191.5t35.5 -191.5t94 -153t134.5 -99.5t156 -37q150 0 256.5 81.5t132.5 184.5h21 q-16 -68 -67.5 -131t-140 -108t-192.5 -48v-184h-20v184q-82 2 -160 41.5t-138 105t-96 159t-36 196.5z" />
<glyph unicode="&#xa3;" horiz-adv-x="962" d="M41 0v20h90q88 0 142.5 60.5t54.5 165.5v512h-164v20h164v389q0 114 62 180t163 66q36 0 72 -10.5t53 -20.5l18 -10v-20q-61 41 -143 41q-93 0 -149 -60t-56 -166v-389h287v-20h-287v-512q0 -46 -10.5 -85t-25.5 -62t-30 -39.5t-26 -22.5l-10 -6v-11h696v-20h-901z" />
<glyph unicode="&#xa4;" horiz-adv-x="1249" d="M82 225v21h164v225h-164v21h164v901h399q227 0 364.5 -129.5t137.5 -331.5t-137.5 -331.5t-364.5 -129.5h-379v-225h553v-21h-553v-225h-20v225h-164zM266 492h379q220 0 350.5 122.5t130.5 317.5t-130.5 317.5t-350.5 122.5h-379v-880z" />
<glyph unicode="&#xa5;" horiz-adv-x="1228" d="M61 1393h31l522 -901l523 901h30l-532 -901h338v-21h-348v-225h348v-21h-348v-225h-21v225h-348v21h348v225h-348v21h338z" />
<glyph unicode="&#xa6;" horiz-adv-x="450" d="M215 -205v737h21v-737h-21zM215 799v737h21v-737h-21z" />
<glyph unicode="&#xa7;" horiz-adv-x="1003" d="M102 205h21q34 -103 129.5 -174.5t239.5 -71.5q169 0 258.5 70t89.5 176q0 66 -36 109.5t-94 64t-128 34.5t-140 30.5t-128 42t-94 78.5t-36 132q0 46 16 85t41 64t56 45t61.5 31.5t55.5 18t41 9.5l16 3v11q-6 1 -15.5 2.5t-37 8.5t-52.5 16.5t-56 27.5t-53 40t-37 56 t-15 74q0 113 93 189.5t255 76.5q128 0 210.5 -59t117.5 -146h-21q-35 79 -111 132t-196 53q-155 0 -241.5 -70.5t-86.5 -175.5q0 -66 35 -109.5t91 -64t123.5 -34.5t135.5 -30.5t124 -42.5t91 -79t35 -132q0 -46 -16 -85t-41 -64t-56 -45t-61.5 -31.5t-55.5 -18t-41 -9.5 l-16 -3v-10q6 0 16.5 -1.5t40 -7.5t57 -15t60.5 -26.5t56.5 -40t40 -57.5t16.5 -77q0 -114 -96 -190t-272 -76q-151 0 -253.5 78t-136.5 188zM205 696q0 -104 74.5 -163.5t252.5 -81.5q6 0 17.5 1.5t43.5 8t61 16t64.5 28.5t61 43.5t43 63t17.5 84.5q0 104 -75 164t-253 82 q-6 0 -17.5 -1.5t-43 -8t-60.5 -16.5t-64.5 -29t-61 -43.5t-43 -63t-17.5 -84.5z" />
<glyph unicode="&#xa8;" horiz-adv-x="491" d="M61 1362q0 31 31 31t31 -31t-31 -31t-31 31zM369 1362q0 31 30 31q31 0 31 -31t-31 -31q-30 0 -30 31z" />
<glyph unicode="&#xa9;" horiz-adv-x="1884" d="M123 573q0 173 65 329t175 268t261.5 177.5t317.5 65.5t317.5 -65.5t261.5 -177.5t175 -268t65 -329t-65 -329t-175 -267.5t-261 -177t-318 -65.5t-318 65.5t-261 177t-175 267.5t-65 329zM143 573q0 -170 63.5 -322t170.5 -261t254.5 -172.5t310.5 -63.5t310.5 63.5 t254.5 172.5t170.5 261t63.5 322t-63.5 322.5t-170.5 261t-255 172.5t-310 64t-310 -64t-255 -172.5t-170.5 -261t-63.5 -322.5zM635 573q0 129 95 228.5t212 99.5q109 0 175 -50.5t91 -133.5h-20q-55 164 -246 164q-109 0 -198 -93.5t-89 -214.5t89 -214t198 -93 q102 0 162.5 47.5t93.5 137.5h21q-68 -205 -277 -205q-117 0 -212 99t-95 228z" />
<glyph unicode="&#xaa;" horiz-adv-x="675" d="M82 922q0 184 266 184h205q0 134 -54.5 200t-150.5 66q-88 0 -138.5 -38.5t-66.5 -104.5h-20q16 73 73 118.5t152 45.5q104 0 164.5 -72.5t60.5 -214.5v-348h-20v123q-4 -6 -12 -15.5t-34.5 -34.5t-55 -44t-73.5 -34.5t-91 -15.5q-91 0 -148 53.5t-57 131.5zM102 922 q0 -70 51 -117t134 -47q46 0 90.5 16t74.5 39t54 46.5t36 39.5l11 16v170h-205q-133 0 -189.5 -41.5t-56.5 -121.5z" />
<glyph unicode="&#xab;" horiz-adv-x="757" d="M102 451l226 389h20l-227 -389l227 -390h-20zM410 451l225 389h20l-227 -389l227 -390h-20z" />
<glyph unicode="&#xac;" horiz-adv-x="839" d="M102 696v21h635v-287h-20v266h-615z" />
<glyph unicode="&#xad;" horiz-adv-x="860" d="M82 635v20h696v-20h-696z" />
<glyph unicode="&#xae;" horiz-adv-x="1863" d="M113 573q0 173 65 329t175 268t261.5 177.5t317.5 65.5t317.5 -65.5t261.5 -177.5t175 -268t65 -329t-65 -329t-175 -267.5t-261 -177t-318 -65.5t-318 65.5t-261 177t-175 267.5t-65 329zM133 573q0 -170 63.5 -322t170.5 -261t254.5 -172.5t310.5 -63.5t310.5 63.5 t254.5 172.5t170.5 261t63.5 322t-63.5 322.5t-170.5 261t-255 172.5t-310 64t-310 -64t-255 -172.5t-170.5 -261t-63.5 -322.5zM707 266v615h307q91 0 148 -53.5t57 -131.5q0 -75 -43 -122t-121 -62l153 -246h-30l-144 246h-307v-246h-20zM727 532h287q83 0 133.5 46.5 t50.5 117.5t-50.5 117.5t-133.5 46.5h-287v-328z" />
<glyph unicode="&#xaf;" horiz-adv-x="573" d="M61 1372v21h451v-21h-451z" />
<glyph unicode="&#xb0;" horiz-adv-x="655" d="M82 1147q0 100 73 173t173 73t172.5 -73t72.5 -173t-72.5 -173t-172.5 -73t-173 73t-73 173zM102 1147q0 -92 67 -158.5t159 -66.5t158.5 66.5t66.5 158.5t-66.5 158.5t-158.5 66.5t-159 -66.5t-67 -158.5z" />
<glyph unicode="&#xb1;" horiz-adv-x="962" d="M102 184v21h369v442h-369v21h369v389h21v-389h368v-21h-368v-442h368v-21h-758z" />
<glyph unicode="&#xb2;" horiz-adv-x="614" d="M82 737v21q0 40 18.5 75.5t48.5 61t69 50.5t79 45.5t79 44.5t69 48t48.5 56t18.5 69q0 72 -54 118t-151 46q-88 0 -138.5 -38.5t-66.5 -104.5h-20q16 73 73 118.5t152 45.5q104 0 164.5 -53t60.5 -132q0 -40 -18.5 -75.5t-48.5 -61t-69 -50.5t-79 -45.5t-79 -44.5 t-69 -48t-48.5 -56t-18.5 -69h430v-21h-450z" />
<glyph unicode="&#xb3;" horiz-adv-x="593" d="M61 901h21q16 -66 66.5 -104.5t138.5 -38.5q97 0 151 47.5t54 126.5q0 85 -52.5 129.5t-152.5 44.5h-92v20l276 246h-389v21h420v-21l-277 -246h62q107 0 166 -51t59 -143q0 -87 -60 -141t-165 -54q-95 0 -152.5 45.5t-73.5 118.5z" />
<glyph unicode="&#xb4;" horiz-adv-x="430" d="M61 1229l297 164l11 -21l-297 -164z" />
<glyph unicode="&#xb5;" horiz-adv-x="1126" d="M174 -410v1332h21v-553q0 -175 102.5 -282t265.5 -107q69 0 132.5 28.5t104.5 69t72.5 81t45.5 69.5l14 28v666h20v-922h-20v205h-10q-5 -10 -14.5 -26.5t-43.5 -59t-72.5 -75t-100.5 -59t-128 -26.5q-59 0 -110 13.5t-86.5 35.5t-64.5 48t-46.5 52t-29.5 48t-16 36 l-5 13h-10v-615h-21z" />
<glyph unicode="&#xb6;" horiz-adv-x="655" d="M82 1085q0 125 96 216.5t232 91.5h204v-21h-204v-1782h-21v1188q-123 0 -215 92t-92 215z" />
<glyph unicode="&#xb7;" horiz-adv-x="307" d="M123 717q0 31 31 31q30 0 30 -31t-30 -31q-31 0 -31 31z" />
<glyph unicode="&#xb8;" horiz-adv-x="419" d="M61 -389l11 10q5 -6 14 -14.5t41 -22.5t68 -14q61 0 102 41.5t41 101.5q0 64 -46 104t-128 40h-21l72 143h21l-62 -123q7 0 19.5 -1t44.5 -10t56 -24.5t44 -49t20 -79.5q0 -69 -47 -116.5t-116 -47.5q-41 0 -74.5 15.5t-46.5 31.5z" />
<glyph unicode="&#xb9;" horiz-adv-x="348" d="M41 1208v21q61 0 112.5 51.5t51.5 112.5h20v-656h-20v574l-5.5 -11t-17 -25t-30.5 -31.5t-47 -24.5t-64 -11z" />
<glyph unicode="&#xba;" horiz-adv-x="716" d="M82 1065q0 142 82.5 235t193.5 93t194 -93t83 -235t-83 -235t-194 -93t-193.5 93t-82.5 235zM102 1065q0 -134 76.5 -220.5t179.5 -86.5t179.5 86.5t76.5 220.5t-76.5 220.5t-179.5 86.5t-179.5 -86.5t-76.5 -220.5z" />
<glyph unicode="&#xbb;" horiz-adv-x="757" d="M102 61l228 390l-228 389h21l225 -389l-225 -390h-21zM410 61l227 390l-227 389h20l225 -389l-225 -390h-20z" />
<glyph unicode="&#xbc;" horiz-adv-x="1331" d="M123 1208v21q61 0 112.5 51.5t51.5 112.5h20v-656h-20v574l-5.5 -11t-17 -25t-30.5 -31.5t-47 -24.5t-64 -11zM172 0l860 1393h21l-860 -1393h-21zM758 184v21l225 450h21l-226 -450h328v164h20v-164h82v-21h-82v-184h-20v184h-348z" />
<glyph unicode="&#xbd;" horiz-adv-x="1372" d="M123 1208v21q61 0 112.5 51.5t51.5 112.5h20v-656h-20v574l-5.5 -11t-17 -25t-30.5 -31.5t-47 -24.5t-64 -11zM172 0l860 1393h21l-860 -1393h-21zM799 0v20q0 62 44.5 112.5t107.5 85.5t126 69.5t107.5 81t44.5 102.5q0 72 -54 118t-151 46q-88 0 -138.5 -38.5 t-66.5 -104.5h-20q16 73 73 118t152 45q104 0 164.5 -52.5t60.5 -131.5q0 -62 -44.5 -112.5t-107.5 -85.5t-126 -69.5t-107.5 -81t-44.5 -102.5h430v-20h-450z" />
<glyph unicode="&#xbe;" horiz-adv-x="1433" d="M102 901h21q16 -66 66.5 -104.5t138.5 -38.5q97 0 150.5 47.5t53.5 126.5q0 85 -52 129.5t-152 44.5h-92v20l276 246h-389v21h420v-21l-277 -246h62q107 0 166 -51t59 -143q0 -87 -60 -141t-165 -54q-95 0 -152.5 45.5t-73.5 118.5zM254 0l860 1393h21l-861 -1393h-20z M840 184v21l225 450h20l-225 -450h328v164h20v-164h82v-21h-82v-184h-20v184h-348z" />
<glyph unicode="&#xbf;" horiz-adv-x="1044" d="M102 -102q0 79 25 134.5t64.5 87t88 57t96.5 53t87.5 64t64.5 102.5t25 157h20q0 -95 -25 -164.5t-64.5 -107.5t-87.5 -66.5t-96 -53t-87.5 -54t-64.5 -82t-25 -127.5q0 -62 30 -120.5t82 -105t130 -74.5t167 -28q343 0 451 307h21q-49 -149 -166 -238.5t-306 -89.5 q-93 0 -174.5 30t-137 79t-87 112t-31.5 128zM532 891q0 31 31 31t31 -31t-31 -31t-31 31z" />
<glyph unicode="&#xc0;" horiz-adv-x="1392" d="M102 0l338 1393h512l338 -1393h-20l-103 410h-942l-102 -410h-21zM231 430h930l-229 942h-471zM543 1802l10 21l297 -164l-10 -21z" />
<glyph unicode="&#xc1;" horiz-adv-x="1392" d="M102 0l338 1393h512l338 -1393h-20l-103 410h-942l-102 -410h-21zM231 430h930l-229 942h-471zM602 1659l297 164l10 -21l-297 -164z" />
<glyph unicode="&#xc2;" horiz-adv-x="1392" d="M102 0l338 1393h512l338 -1393h-20l-103 410h-942l-102 -410h-21zM231 430h930l-229 942h-471zM461 1577l225 266h21l225 -266h-31l-205 246l-204 -246h-31z" />
<glyph unicode="&#xc3;" horiz-adv-x="1392" d="M102 0l338 1393h512l338 -1393h-20l-103 410h-942l-102 -410h-21zM231 430h930l-229 942h-471zM471 1618v41q0 68 34 105.5t89 37.5q25 0 48 -17t40.5 -41l35 -48t38.5 -41t43 -17q47 0 74.5 31.5t27.5 91.5v41h21v-41q0 -68 -34 -105.5t-89 -37.5q-25 0 -48 17t-40.5 41 l-35 48t-38.5 41t-43 17q-47 0 -74.5 -31.5t-27.5 -91.5v-41h-21z" />
<glyph unicode="&#xc4;" horiz-adv-x="1392" d="M102 0l338 1393h512l338 -1393h-20l-103 410h-942l-102 -410h-21zM231 430h930l-229 942h-471zM512 1702q0 31 31 31q30 0 30 -31t-30 -31q-31 0 -31 31zM819 1702q0 31 31 31t31 -31t-31 -31t-31 31z" />
<glyph unicode="&#xc5;" horiz-adv-x="1392" d="M102 0l338 1393h512l338 -1393h-20l-103 410h-942l-102 -410h-21zM231 430h930l-229 942h-471zM512 1761q0 77 54 131t130 54t130.5 -54t54.5 -131q0 -76 -54 -130t-131 -54q-76 0 -130 53.5t-54 130.5zM532 1761q0 -69 47.5 -116.5t116.5 -47.5t116.5 47.5t47.5 116.5 t-47.5 116.5t-116.5 47.5t-116.5 -47.5t-47.5 -116.5z" />
<glyph unicode="&#xc6;" horiz-adv-x="1935" d="M61 0l338 1393h1454v-21h-860v-655h676v-21h-676v-676h860v-20h-880v410h-789l-100 -410h-23zM190 430h783v942h-553z" />
<glyph unicode="&#xc7;" horiz-adv-x="1546" d="M113 696q0 150 60 291t157 242.5t223.5 163t255.5 61.5q118 0 221.5 -34.5t176.5 -91.5t122.5 -124t73.5 -139h-21q-19 54 -52.5 105.5t-85 99.5t-114.5 84t-146 58t-175 22q-125 0 -248 -60t-217 -159t-152.5 -236t-58.5 -283t58.5 -283t152.5 -236t217 -158.5 t248 -59.5q122 0 226 33t178 92t126 130t84 155h21q-32 -88 -85.5 -163t-130 -136t-182 -96t-227.5 -35l-51 -103q7 0 19.5 -1t44.5 -10t56 -24.5t44 -49t20 -79.5q0 -69 -47.5 -116.5t-116.5 -47.5q-41 0 -74 15.5t-46 30.5l-13 16l11 10q2 -2 5 -5.5t14.5 -12.5 t24.5 -15.5t34 -12t44 -5.5q61 0 102.5 41.5t41.5 101.5q0 64 -46 104t-128 40h-21l62 123q-125 0 -249.5 61.5t-220.5 162.5t-156 242.5t-60 290.5z" />
<glyph unicode="&#xc8;" horiz-adv-x="1218" d="M215 0v1393h922v-21h-901v-655h716v-21h-716v-676h901v-20h-922zM492 1802l10 21l297 -164l-11 -21z" />
<glyph unicode="&#xc9;" horiz-adv-x="1218" d="M215 0v1393h922v-21h-901v-655h716v-21h-716v-676h901v-20h-922zM555 1659l297 164l10 -21l-297 -164z" />
<glyph unicode="&#xca;" horiz-adv-x="1218" d="M215 0v1393h922v-21h-901v-655h716v-21h-716v-676h901v-20h-922zM440 1597l226 267h20l225 -267h-30l-205 246l-205 -246h-31z" />
<glyph unicode="&#xcb;" horiz-adv-x="1218" d="M215 0v1393h922v-21h-901v-655h716v-21h-716v-676h901v-20h-922zM502 1712q0 31 30 31q31 0 31 -31t-31 -31q-30 0 -30 31zM809 1712q0 31 31 31q30 0 30 -31t-30 -31q-31 0 -31 31z" />
<glyph unicode="&#xcc;" horiz-adv-x="409" d="M-41 1782l10 20l297 -164l-10 -20zM197 0v1393h20v-1393h-20z" />
<glyph unicode="&#xcd;" horiz-adv-x="409" d="M143 1659l297 164l11 -21l-297 -164zM174 0v1393h21v-1393h-21z" />
<glyph unicode="&#xce;" horiz-adv-x="471" d="M0 1618l225 266h21l225 -266h-31l-204 246l-205 -246h-31zM225 0v1393h21v-1393h-21z" />
<glyph unicode="&#xcf;" horiz-adv-x="450" d="M41 1690q0 30 31 30q30 0 30 -30q0 -31 -30 -31q-31 0 -31 31zM215 0v1393h21v-1393h-21zM348 1690q0 30 31 30t31 -30q0 -31 -31 -31t-31 31z" />
<glyph unicode="&#xd0;" horiz-adv-x="1464" d="M82 696v21h184v676h369q212 0 375.5 -88.5t252.5 -247t89 -361.5t-89 -361.5t-252.5 -246.5t-375.5 -88h-369v696h-184zM287 20h348q313 0 504.5 187.5t191.5 488.5t-191.5 488.5t-504.5 187.5h-348v-655h368v-21h-368v-676z" />
<glyph unicode="&#xd1;" horiz-adv-x="1454" d="M215 0v1393h31l973 -1373v1373h20v-1393h-31l-972 1372v-1372h-21zM522 1659v41q0 68 34 105.5t89 37.5q25 0 48 -17t40.5 -41l35 -48t38.5 -41t43 -17q47 0 74.5 31.5t27.5 91.5v41h21v-41q0 -68 -34 -105.5t-89 -37.5q-25 0 -48 17t-40.5 41l-35 48t-38.5 41t-43 17 q-47 0 -74.5 -31.5t-27.5 -91.5v-41h-21z" />
<glyph unicode="&#xd2;" horiz-adv-x="1658" d="M113 696q0 150 60.5 291t159 242.5t229.5 163t267 61.5q182 0 347.5 -103t267.5 -279t102 -376q0 -150 -60.5 -290.5t-159 -242t-230 -163t-267.5 -61.5t-267 61.5t-229.5 163t-159 242t-60.5 290.5zM133 696q0 -146 59 -283t154.5 -236t223 -158.5t259.5 -59.5 t259.5 59.5t223.5 158.5t155 236t59 283t-59 283t-155 236t-223.5 159t-259.5 60t-259.5 -60t-223 -159t-154.5 -236t-59 -283zM676 1843l10 21l297 -164l-10 -21z" />
<glyph unicode="&#xd3;" horiz-adv-x="1658" d="M113 696q0 150 60.5 291t159 242.5t229.5 163t267 61.5q182 0 347.5 -103t267.5 -279t102 -376q0 -150 -60.5 -290.5t-159 -242t-230 -163t-267.5 -61.5t-267 61.5t-229.5 163t-159 242t-60.5 290.5zM133 696q0 -146 59 -283t154.5 -236t223 -158.5t259.5 -59.5 t259.5 59.5t223.5 158.5t155 236t59 283t-59 283t-155 236t-223.5 159t-259.5 60t-259.5 -60t-223 -159t-154.5 -236t-59 -283zM717 1720l297 164l10 -20l-297 -164z" />
<glyph unicode="&#xd4;" horiz-adv-x="1658" d="M113 696q0 150 60.5 291t159 242.5t229.5 163t267 61.5q182 0 347.5 -103t267.5 -279t102 -376q0 -150 -60.5 -290.5t-159 -242t-230 -163t-267.5 -61.5t-267 61.5t-229.5 163t-159 242t-60.5 290.5zM133 696q0 -146 59 -283t154.5 -236t223 -158.5t259.5 -59.5 t259.5 59.5t223.5 158.5t155 236t59 283t-59 283t-155 236t-223.5 159t-259.5 60t-259.5 -60t-223 -159t-154.5 -236t-59 -283zM594 1638l225 267h21l225 -267h-31l-205 246l-204 -246h-31z" />
<glyph unicode="&#xd5;" horiz-adv-x="1658" d="M113 696q0 150 60.5 291t159 242.5t229.5 163t267 61.5q182 0 347.5 -103t267.5 -279t102 -376q0 -150 -60.5 -290.5t-159 -242t-230 -163t-267.5 -61.5t-267 61.5t-229.5 163t-159 242t-60.5 290.5zM133 696q0 -146 59 -283t154.5 -236t223 -158.5t259.5 -59.5 t259.5 59.5t223.5 158.5t155 236t59 283t-59 283t-155 236t-223.5 159t-259.5 60t-259.5 -60t-223 -159t-154.5 -236t-59 -283zM604 1659v41q0 68 34 105.5t89 37.5q25 0 48 -17t40.5 -41l35 -48t38.5 -41t43 -17q47 0 74.5 31.5t27.5 91.5v41h21v-41q0 -68 -34 -105.5 t-89 -37.5q-25 0 -48 17t-40.5 41l-35 48t-38.5 41t-43 17q-47 0 -74.5 -31.5t-27.5 -91.5v-41h-21z" />
<glyph unicode="&#xd6;" horiz-adv-x="1658" d="M113 696q0 150 60.5 291t159 242.5t229.5 163t267 61.5q182 0 347.5 -103t267.5 -279t102 -376q0 -150 -60.5 -290.5t-159 -242t-230 -163t-267.5 -61.5t-267 61.5t-229.5 163t-159 242t-60.5 290.5zM133 696q0 -146 59 -283t154.5 -236t223 -158.5t259.5 -59.5 t259.5 59.5t223.5 158.5t155 236t59 283t-59 283t-155 236t-223.5 159t-259.5 60t-259.5 -60t-223 -159t-154.5 -236t-59 -283zM645 1751q0 31 31 31t31 -31t-31 -31t-31 31zM952 1751q0 31 31 31t31 -31t-31 -31t-31 31z" />
<glyph unicode="&#xd7;" horiz-adv-x="675" d="M82 399l246 256l-246 256l20 11l236 -246l235 246l21 -11l-246 -256l246 -256l-21 -10l-235 246l-236 -246z" />
<glyph unicode="&#xd8;" horiz-adv-x="1720" d="M0 297v25l199 88q-6 14 -15.5 38.5t-25 99.5t-15.5 148q0 200 102 376t267.5 279t347.5 103q115 0 218 -36.5t183 -101t141.5 -142t108.5 -170.5l209 92v-25l-198 -88q6 -14 15 -39t24.5 -100t15.5 -148q0 -150 -60.5 -290.5t-159 -242t-230 -163t-267.5 -61.5 q-115 0 -218 36.5t-183 101t-141.5 142t-108.5 170.5zM164 696q0 -64 14 -133t28 -106l15 -37l1270 573q-47 93 -106.5 169.5t-137 139t-177 97.5t-210.5 35q-132 0 -259.5 -60t-223 -159t-154.5 -236t-59 -283zM229 399q47 -93 106.5 -169t137 -138.5t177 -97.5t210.5 -35 q132 0 259.5 59.5t223 158.5t154.5 236t59 283q0 64 -14 133t-28 107l-15 37z" />
<glyph unicode="&#xd9;" horiz-adv-x="1454" d="M215 492v901h21v-901q0 -243 136.5 -388t354.5 -145t355 145t137 388v901h20v-901q0 -250 -143 -401.5t-369 -151.5t-369 151.5t-143 401.5zM543 1802l10 21l297 -164l-10 -21z" />
<glyph unicode="&#xda;" horiz-adv-x="1454" d="M215 492v901h21v-901q0 -243 136.5 -388t354.5 -145t355 145t137 388v901h20v-901q0 -250 -143 -401.5t-369 -151.5t-369 151.5t-143 401.5zM614 1659l297 164l11 -21l-297 -164z" />
<glyph unicode="&#xdb;" horiz-adv-x="1454" d="M215 492v901h21v-901q0 -243 136.5 -388t354.5 -145t355 145t137 388v901h20v-901q0 -250 -143 -401.5t-369 -151.5t-369 151.5t-143 401.5zM500 1597l225 267h20l226 -267h-31l-205 246l-205 -246h-30z" />
<glyph unicode="&#xdc;" horiz-adv-x="1454" d="M215 492v901h21v-901q0 -243 136.5 -388t354.5 -145t355 145t137 388v901h20v-901q0 -250 -143 -401.5t-369 -151.5t-369 151.5t-143 401.5zM543 1669q0 31 30 31q31 0 31 -31t-31 -31q-30 0 -30 31zM850 1669q0 31 31 31q30 0 30 -31t-30 -31q-31 0 -31 31z" />
<glyph unicode="&#xdd;" horiz-adv-x="1290" d="M61 1393h31l553 -901l553 901h31l-574 -922v-471h-20v471zM573 1638l297 164l11 -20l-297 -164z" />
<glyph unicode="&#xde;" horiz-adv-x="1290" d="M215 -41v1516h21v-185h266q151 0 275 -43.5t207 -120t128 -181.5t45 -228t-45 -228t-128 -182t-207 -120.5t-275 -43.5h-266v-184h-21zM236 164h266q293 0 464 155t171 398t-171 398t-464 155h-266v-1106z" />
<glyph unicode="&#xdf;" horiz-adv-x="1105" d="M195 0v1085q0 146 101 247.5t247 101.5t247 -101.5t101 -247.5q0 -54 -12.5 -101.5t-32.5 -79.5t-44 -58t-47.5 -41t-43.5 -25.5t-33 -13.5l-12 -4v-8q7 -1 18.5 -3t45.5 -12.5t65 -25.5t69 -44.5t65 -67t45.5 -95.5t18.5 -127q0 -162 -110.5 -270.5t-278.5 -108.5h-123 v20h123q160 0 264.5 102.5t104.5 256.5t-104 256t-265 102h-102v21h41q138 0 232.5 94.5t94.5 232.5t-94.5 233t-232.5 95t-233 -95t-95 -233v-1085h-20z" />
<glyph unicode="&#xe0;" d="M113 461q0 105 37 199t98.5 160t141 104.5t163.5 38.5q66 0 127 -25.5t101.5 -61.5t71 -72t44.5 -62l14 -25h11v205h20v-922h-20v205h-11q-5 -10 -14.5 -26.5t-43.5 -59t-72 -75t-100 -59t-128 -26.5q-84 0 -163.5 38.5t-141 104.5t-98.5 160t-37 199zM133 461 q0 -101 35.5 -191.5t94 -153t134.5 -99.5t156 -37q69 0 132.5 28.5t104.5 69t72.5 81t45.5 69.5l14 28v410q-5 11 -15 29.5t-44.5 66.5t-73.5 84t-103 66t-133 30q-80 0 -156 -37t-134.5 -99.5t-94 -153t-35.5 -191.5zM408 1352l10 20l297 -164l-10 -20z" />
<glyph unicode="&#xe1;" d="M113 461q0 105 37 199t98.5 160t141 104.5t163.5 38.5q66 0 127 -25.5t101.5 -61.5t71 -72t44.5 -62l14 -25h11v205h20v-922h-20v205h-11q-5 -10 -14.5 -26.5t-43.5 -59t-72 -75t-100 -59t-128 -26.5q-84 0 -163.5 38.5t-141 104.5t-98.5 160t-37 199zM133 461 q0 -101 35.5 -191.5t94 -153t134.5 -99.5t156 -37q69 0 132.5 28.5t104.5 69t72.5 81t45.5 69.5l14 28v410q-5 11 -15 29.5t-44.5 66.5t-73.5 84t-103 66t-133 30q-80 0 -156 -37t-134.5 -99.5t-94 -153t-35.5 -191.5zM446 1229l297 164l11 -21l-297 -164z" />
<glyph unicode="&#xe2;" d="M113 461q0 105 37 199t98.5 160t141 104.5t163.5 38.5q66 0 127 -25.5t101.5 -61.5t71 -72t44.5 -62l14 -25h11v205h20v-922h-20v205h-11q-5 -10 -14.5 -26.5t-43.5 -59t-72 -75t-100 -59t-128 -26.5q-84 0 -163.5 38.5t-141 104.5t-98.5 160t-37 199zM133 461 q0 -101 35.5 -191.5t94 -153t134.5 -99.5t156 -37q69 0 132.5 28.5t104.5 69t72.5 81t45.5 69.5l14 28v410q-5 11 -15 29.5t-44.5 66.5t-73.5 84t-103 66t-133 30q-80 0 -156 -37t-134.5 -99.5t-94 -153t-35.5 -191.5zM324 1167l225 267h20l226 -267h-31l-205 246l-205 -246 h-30z" />
<glyph unicode="&#xe3;" d="M113 461q0 105 37 199t98.5 160t141 104.5t163.5 38.5q66 0 127 -25.5t101.5 -61.5t71 -72t44.5 -62l14 -25h11v205h20v-922h-20v205h-11q-5 -10 -14.5 -26.5t-43.5 -59t-72 -75t-100 -59t-128 -26.5q-84 0 -163.5 38.5t-141 104.5t-98.5 160t-37 199zM133 461 q0 -101 35.5 -191.5t94 -153t134.5 -99.5t156 -37q69 0 132.5 28.5t104.5 69t72.5 81t45.5 69.5l14 28v410q-5 11 -15 29.5t-44.5 66.5t-73.5 84t-103 66t-133 30q-80 0 -156 -37t-134.5 -99.5t-94 -153t-35.5 -191.5zM328 1200v41q0 68 34 105.5t89 37.5q31 0 59 -25.5 t46.5 -56t45 -56t53.5 -25.5q47 0 75 31t28 91v41h20v-41q0 -68 -34 -105.5t-89 -37.5q-31 0 -59 25.5t-46.5 56.5t-45 56.5t-53.5 25.5q-47 0 -75 -31.5t-28 -91.5v-41h-20z" />
<glyph unicode="&#xe4;" d="M113 461q0 105 37 199t98.5 160t141 104.5t163.5 38.5q66 0 127 -25.5t101.5 -61.5t71 -72t44.5 -62l14 -25h11v205h20v-922h-20v205h-11q-5 -10 -14.5 -26.5t-43.5 -59t-72 -75t-100 -59t-128 -26.5q-84 0 -163.5 38.5t-141 104.5t-98.5 160t-37 199zM133 461 q0 -101 35.5 -191.5t94 -153t134.5 -99.5t156 -37q69 0 132.5 28.5t104.5 69t72.5 81t45.5 69.5l14 28v410q-5 11 -15 29.5t-44.5 66.5t-73.5 84t-103 66t-133 30q-80 0 -156 -37t-134.5 -99.5t-94 -153t-35.5 -191.5zM362 1251q0 31 31 31t31 -31q0 -30 -31 -30t-31 30z M670 1251q0 31 30 31q31 0 31 -31q0 -30 -31 -30q-30 0 -30 30z" />
<glyph unicode="&#xe5;" d="M113 461q0 105 37 199t98.5 160t141 104.5t163.5 38.5q66 0 127 -25.5t101.5 -61.5t71 -72t44.5 -62l14 -25h11v205h20v-922h-20v205h-11q-5 -10 -14.5 -26.5t-43.5 -59t-72 -75t-100 -59t-128 -26.5q-84 0 -163.5 38.5t-141 104.5t-98.5 160t-37 199zM133 461 q0 -101 35.5 -191.5t94 -153t134.5 -99.5t156 -37q69 0 132.5 28.5t104.5 69t72.5 81t45.5 69.5l14 28v410q-5 11 -15 29.5t-44.5 66.5t-73.5 84t-103 66t-133 30q-80 0 -156 -37t-134.5 -99.5t-94 -153t-35.5 -191.5zM369 1348q0 76 53.5 130t130.5 54t130.5 -54t53.5 -130 q0 -77 -54 -131t-130 -54t-130 54t-54 131zM389 1348q0 -69 47.5 -116.5t116.5 -47.5t116.5 47.5t47.5 116.5t-47.5 116t-116.5 47t-116.5 -47t-47.5 -116z" />
<glyph unicode="&#xe6;" horiz-adv-x="1781" d="M82 225q0 113 93 190t255 77h410q0 223 -94 336.5t-254 113.5q-50 0 -94 -10t-74.5 -26.5t-55.5 -36t-40 -39t-25.5 -36t-14.5 -26.5l-4 -10h-20q1 4 4 11.5t14.5 29t26.5 40.5t42 43t59.5 41t80 28.5t101.5 11.5q139 0 237 -87.5t121 -238.5h10q2 7 6 18.5t19.5 45.5 t35 65t53.5 68.5t72.5 64.5t94.5 45.5t119 18.5q169 0 294 -140t125 -331l-20 -21h-799q0 -104 35 -197t91.5 -156.5t128.5 -100.5t145 -37q150 0 256.5 81.5t132.5 184.5h20q-26 -110 -138.5 -198.5t-270.5 -88.5q-63 0 -118.5 19t-95 50t-72.5 68t-53.5 74t-34.5 68 t-20 50l-6 19h-10q-2 -7 -5.5 -19.5t-18.5 -49t-34.5 -69t-54.5 -73t-76 -69t-101.5 -48.5t-129.5 -20q-162 0 -255 76.5t-93 189.5zM102 225q0 -105 86.5 -175t241.5 -70q173 0 291.5 130.5t118.5 340.5v20h-410q-155 0 -241.5 -70.5t-86.5 -175.5zM860 492h799 q0 121 -54.5 225t-146.5 164.5t-198 60.5t-198 -60.5t-147 -164.5t-55 -225z" />
<glyph unicode="&#xe7;" horiz-adv-x="1064" d="M113 461q0 105 37 199t98.5 160t141 104.5t163.5 38.5q150 0 247.5 -71.5t131.5 -174.5h-21q-35 95 -125 160t-233 65q-80 0 -156 -37t-134.5 -99.5t-94 -153t-35.5 -191.5t35.5 -191.5t94 -153t134.5 -99.5t156 -37q150 0 256.5 81.5t132.5 184.5h21q-25 -109 -137 -198 t-263 -89l-51 -102q7 0 19.5 -1t44.5 -10t56 -24.5t44 -49t20 -79.5q0 -69 -47.5 -116.5t-116.5 -47.5q-41 0 -74 15.5t-46 30.5l-13 15l11 11q4 -6 13 -14.5t41 -23t68 -14.5q61 0 102.5 42t41.5 102q0 64 -46 103.5t-128 39.5h-21l62 123q-80 0 -158 38.5t-138 104 t-97 160.5t-37 199z" />
<glyph unicode="&#xe8;" horiz-adv-x="1075" d="M113 461q0 -105 37 -199t98.5 -160t141 -104.5t163.5 -38.5q82 0 154.5 26t123.5 68t85 92t47 101h-21q-28 -103 -133.5 -184.5t-255.5 -81.5q-106 0 -202.5 61t-157 170.5t-60.5 239.5h819l21 20q0 101 -37 193t-97 157t-138 103.5t-158 38.5t-158 -38.5t-138 -104 t-97 -160.5t-37 -199zM133 471q0 130 60 239.5t154 170.5t196 61t196 -61t153.5 -170.5t59.5 -239.5h-819zM410 1372l10 21l297 -164l-10 -21z" />
<glyph unicode="&#xe9;" horiz-adv-x="1075" d="M113 461q0 -105 37 -199t98.5 -160t141 -104.5t163.5 -38.5q82 0 154.5 26t123.5 68t85 92t47 101h-21q-28 -103 -133.5 -184.5t-255.5 -81.5q-106 0 -202.5 61t-157 170.5t-60.5 239.5h819l21 20q0 101 -37 193t-97 157t-138 103.5t-158 38.5t-158 -38.5t-138 -104 t-97 -160.5t-37 -199zM133 471q0 130 60 239.5t154 170.5t196 61t196 -61t153.5 -170.5t59.5 -239.5h-819zM451 1208l297 164l10 -20l-297 -164z" />
<glyph unicode="&#xea;" horiz-adv-x="1075" d="M113 461q0 -105 37 -199t98.5 -160t141 -104.5t163.5 -38.5q82 0 154.5 26t123.5 68t85 92t47 101h-21q-28 -103 -133.5 -184.5t-255.5 -81.5q-106 0 -202.5 61t-157 170.5t-60.5 239.5h819l21 20q0 101 -37 193t-97 157t-138 103.5t-158 38.5t-158 -38.5t-138 -104 t-97 -160.5t-37 -199zM133 471q0 130 60 239.5t154 170.5t196 61t196 -61t153.5 -170.5t59.5 -239.5h-819zM317 1147l226 266h20l225 -266h-30l-205 246l-205 -246h-31z" />
<glyph unicode="&#xeb;" horiz-adv-x="1075" d="M113 461q0 -105 37 -199t98.5 -160t141 -104.5t163.5 -38.5q82 0 154.5 26t123.5 68t85 92t47 101h-21q-28 -103 -133.5 -184.5t-255.5 -81.5q-106 0 -202.5 61t-157 170.5t-60.5 239.5h819l21 20q0 101 -37 193t-97 157t-138 103.5t-158 38.5t-158 -38.5t-138 -104 t-97 -160.5t-37 -199zM133 471q0 130 60 239.5t154 170.5t196 61t196 -61t153.5 -170.5t59.5 -239.5h-819zM369 1260q0 30 30 30q31 0 31 -30q0 -31 -31 -31q-30 0 -30 31zM676 1260q0 30 31 30q30 0 30 -30q0 -31 -30 -31q-31 0 -31 31z" />
<glyph unicode="&#xec;" horiz-adv-x="430" d="M-20 1372l10 21l297 -164l-11 -21zM205 0v922h20v-922h-20z" />
<glyph unicode="&#xed;" horiz-adv-x="430" d="M143 1208l297 164l11 -20l-297 -164zM205 0v922h20v-922h-20z" />
<glyph unicode="&#xee;" horiz-adv-x="430" d="M-20 1147l225 266h20l226 -266h-31l-205 246l-205 -246h-30zM205 0v922h20v-922h-20z" />
<glyph unicode="&#xef;" horiz-adv-x="430" d="M31 1239q0 31 30 31q31 0 31 -31t-31 -31q-30 0 -30 31zM205 0v922h20v-922h-20zM338 1239q0 31 31 31q30 0 30 -31t-30 -31q-31 0 -31 31z" />
<glyph unicode="&#xf0;" d="M102 420q0 205 121.5 333t308.5 128q71 0 132 -17t101.5 -44t73.5 -60t51.5 -66t31 -60t16.5 -44l4 -17v226q0 237 -119 420q-32 50 -45 59l-143 -111l-10 21l143 112q-32 41 -73 87t-66 72l-25 26l10 10q102 -102 174 -184l144 102l10 -20l-143 -103q7 -8 18 -22 t39 -62.5t50 -101.5t39.5 -136t17.5 -169v-379q0 -205 -122 -333t-309 -128t-308.5 128t-121.5 333zM123 420q0 -197 115 -318.5t294 -121.5t294.5 121.5t115.5 318.5t-115.5 318.5t-294.5 121.5t-294 -121.5t-115 -318.5z" />
<glyph unicode="&#xf1;" d="M174 0v922h21v-205h10q5 10 14.5 26.5t43.5 59t72 75t100 59t128 26.5q170 0 279.5 -113.5t109.5 -296.5v-553h-20v553q0 175 -103 282t-266 107q-50 0 -97.5 -15t-83 -39.5t-67 -54t-53 -59t-37 -54t-23.5 -39.5l-7 -15v-666h-21zM317 1208v41q0 68 34 106t89 38 q25 0 48 -17t40.5 -41l35 -48t38 -41t43.5 -17q47 0 75 31.5t28 91.5v41h20v-41q0 -68 -34 -106t-89 -38q-25 0 -48 17t-40.5 41l-35 48t-38.5 41t-43 17q-47 0 -74.5 -31.5t-27.5 -91.5v-41h-21z" />
<glyph unicode="&#xf2;" horiz-adv-x="1146" d="M113 461q0 140 63.5 256t169 181t227.5 65t227.5 -65t169.5 -181t64 -256t-64 -256t-169.5 -181t-227.5 -65t-227.5 65t-169 181t-63.5 256zM133 461q0 -135 60.5 -246t161.5 -173t218 -62t218 62t162 173t61 246t-61 246t-162 173t-218 62t-218 -62t-161.5 -173 t-60.5 -246zM424 1352l10 20l297 -164l-10 -20z" />
<glyph unicode="&#xf3;" horiz-adv-x="1146" d="M113 461q0 140 63.5 256t169 181t227.5 65t227.5 -65t169.5 -181t64 -256t-64 -256t-169.5 -181t-227.5 -65t-227.5 65t-169 181t-63.5 256zM133 461q0 -135 60.5 -246t161.5 -173t218 -62t218 62t162 173t61 246t-61 246t-162 173t-218 62t-218 -62t-161.5 -173 t-60.5 -246zM463 1229l297 164l10 -21l-297 -164z" />
<glyph unicode="&#xf4;" horiz-adv-x="1146" d="M113 461q0 140 63.5 256t169 181t227.5 65t227.5 -65t169.5 -181t64 -256t-64 -256t-169.5 -181t-227.5 -65t-227.5 65t-169 181t-63.5 256zM133 461q0 -135 60.5 -246t161.5 -173t218 -62t218 62t162 173t61 246t-61 246t-162 173t-218 62t-218 -62t-161.5 -173 t-60.5 -246zM360 1167l226 267h20l225 -267h-30l-205 246l-205 -246h-31z" />
<glyph unicode="&#xf5;" horiz-adv-x="1146" d="M113 461q0 140 63.5 256t169 181t227.5 65t227.5 -65t169.5 -181t64 -256t-64 -256t-169.5 -181t-227.5 -65t-227.5 65t-169 181t-63.5 256zM133 461q0 -135 60.5 -246t161.5 -173t218 -62t218 62t162 173t61 246t-61 246t-162 173t-218 62t-218 -62t-161.5 -173 t-60.5 -246zM358 1167v41q0 68 34 106t89 38q25 0 48 -17t40.5 -41l35 -48t38.5 -41t43 -17q47 0 74.5 31.5t27.5 91.5v41h21v-41q0 -68 -34 -106t-89 -38q-25 0 -48 17t-40.5 41l-35 48t-38 41t-43.5 17q-47 0 -74.5 -31.5t-27.5 -91.5v-41h-21z" />
<glyph unicode="&#xf6;" horiz-adv-x="1146" d="M113 461q0 140 63.5 256t169 181t227.5 65t227.5 -65t169.5 -181t64 -256t-64 -256t-169.5 -181t-227.5 -65t-227.5 65t-169 181t-63.5 256zM133 461q0 -135 60.5 -246t161.5 -173t218 -62t218 62t162 173t61 246t-61 246t-162 173t-218 62t-218 -62t-161.5 -173 t-60.5 -246zM389 1272q0 31 31 31t31 -31t-31 -31t-31 31zM696 1272q0 31 31 31t31 -31t-31 -31t-31 31z" />
<glyph unicode="&#xf7;" horiz-adv-x="860" d="M82 635v20h696v-20h-696zM389 276q0 31 31 31t31 -31q0 -30 -31 -30t-31 30zM389 1014q0 30 31 30t31 -30q0 -31 -31 -31t-31 31z" />
<glyph unicode="&#xf8;" horiz-adv-x="1167" d="M0 201v24l147 64q-24 59 -24 172q0 140 64 256t169.5 181t227.5 65q157 0 263.5 -85.5t166.5 -222.5l153 62v-25l-147 -59q24 -59 24 -172q0 -140 -63.5 -256t-169 -181t-227.5 -65q-157 0 -263.5 85t-166.5 222zM143 461q0 -41 6.5 -81.5t12.5 -60.5l6 -20l825 346 q-130 297 -409 297q-117 0 -218 -62t-162 -173t-61 -246zM174 276q130 -296 410 -296q117 0 218 62t161.5 173t60.5 246q0 41 -6 81.5t-12 60.5l-7 20z" />
<glyph unicode="&#xf9;" horiz-adv-x="1126" d="M174 369v553h21v-553q0 -175 102.5 -282t265.5 -107q69 0 132.5 28.5t104.5 69t72.5 81t45.5 69.5l14 28v666h20v-922h-20v205h-10q-5 -10 -14.5 -26.5t-43.5 -59t-72.5 -75t-100.5 -59t-128 -26.5q-170 0 -279.5 113.5t-109.5 296.5zM410 1329l10 21l297 -164l-10 -21z " />
<glyph unicode="&#xfa;" horiz-adv-x="1126" d="M174 369v553h21v-553q0 -175 102.5 -282t265.5 -107q69 0 132.5 28.5t104.5 69t72.5 81t45.5 69.5l14 28v666h20v-922h-20v205h-10q-5 -10 -14.5 -26.5t-43.5 -59t-72.5 -75t-100.5 -59t-128 -26.5q-170 0 -279.5 113.5t-109.5 296.5zM471 1167l297 164l10 -20l-297 -164 z" />
<glyph unicode="&#xfb;" horiz-adv-x="1126" d="M174 369v553h21v-553q0 -175 102.5 -282t265.5 -107q69 0 132.5 28.5t104.5 69t72.5 81t45.5 69.5l14 28v666h20v-922h-20v205h-10q-5 -10 -14.5 -26.5t-43.5 -59t-72.5 -75t-100.5 -59t-128 -26.5q-170 0 -279.5 113.5t-109.5 296.5zM338 1147l225 266h21l225 -266h-31 l-205 246l-204 -246h-31z" />
<glyph unicode="&#xfc;" horiz-adv-x="1126" d="M174 369v553h21v-553q0 -175 102.5 -282t265.5 -107q69 0 132.5 28.5t104.5 69t72.5 81t45.5 69.5l14 28v666h20v-922h-20v205h-10q-5 -10 -14.5 -26.5t-43.5 -59t-72.5 -75t-100.5 -59t-128 -26.5q-170 0 -279.5 113.5t-109.5 296.5zM379 1231q0 31 31 31q30 0 30 -31 t-30 -31q-31 0 -31 31zM686 1231q0 31 31 31t31 -31t-31 -31t-31 31z" />
<glyph unicode="&#xfd;" horiz-adv-x="1003" d="M102 922h21l205 -902h348l205 902h20l-246 -1106q-27 -117 -90.5 -181.5t-154.5 -64.5q-36 0 -72 10t-54 20l-18 11v20q62 -41 144 -41q84 0 142 59t83 167l41 184h-369zM418 1188l297 164l10 -21l-297 -164z" />
<glyph unicode="&#xfe;" horiz-adv-x="1126" d="M184 -410v1803h21v-676h10q5 10 14.5 26.5t43.5 59t72 75t100 59t128 26.5q84 0 164 -38.5t141 -104.5t98.5 -160t37.5 -199t-37.5 -199t-98.5 -160t-141 -104.5t-164 -38.5q-66 0 -127 25.5t-101.5 61.5t-71 72t-44.5 62l-14 25h-10v-615h-21zM205 256q5 -11 14.5 -29.5 t44 -66.5t73.5 -84t103 -66t133 -30q80 0 156 37t134.5 99.5t94 153t35.5 191.5t-35.5 191.5t-94 153t-134.5 99.5t-156 37q-50 0 -97.5 -15t-83 -39.5t-67 -54t-53 -59t-37 -54t-23.5 -39.5l-7 -15v-410z" />
<glyph unicode="&#xff;" horiz-adv-x="1003" d="M102 922h21l205 -902h348l205 902h20l-246 -1106q-27 -117 -90.5 -181.5t-154.5 -64.5q-36 0 -72 10t-54 20l-18 11v20q62 -41 144 -41q84 0 142 59t83 167l41 184h-369zM328 1198q0 31 30 31q31 0 31 -31t-31 -31q-30 0 -30 31zM635 1198q0 31 31 31q30 0 30 -31 t-30 -31q-31 0 -31 31z" />
<glyph unicode="&#x152;" horiz-adv-x="2037" d="M113 696q0 203 88.5 361.5t252 247t375.5 88.5h1127v-21h-860v-655h676v-21h-676v-676h860v-20h-1127q-159 0 -293 51.5t-226.5 142.5t-144.5 220.5t-52 281.5zM133 696q0 -301 191.5 -488.5t504.5 -187.5h246v1352h-246q-313 0 -504.5 -187.5t-191.5 -488.5z" />
<glyph unicode="&#x153;" horiz-adv-x="1873" d="M113 461q0 212 124 357t295 145q67 0 125.5 -20t98.5 -51.5t73 -69.5t52.5 -76.5t33 -70t18.5 -51.5l5 -20h8q2 8 5.5 20.5t18 50t33 71.5t52 75.5t73.5 71t98.5 50t125.5 20.5q169 0 294.5 -140t125.5 -331l-21 -21h-799q0 -104 35 -197t91.5 -156.5t128.5 -100.5 t145 -37q150 0 256.5 81.5t132.5 184.5h20q-26 -110 -138.5 -198.5t-270.5 -88.5q-63 0 -119 19.5t-96 51.5t-73.5 70t-54.5 76t-36 70t-21 52l-6 19h-8q-2 -7 -6 -20t-19.5 -50.5t-34.5 -71t-53 -75t-73.5 -71t-97 -50t-122.5 -20.5q-171 0 -295 145t-124 357zM133 461 q0 -204 117.5 -342.5t281.5 -138.5q163 0 281.5 139t118.5 342q0 204 -118 342.5t-282 138.5t-281.5 -138.5t-117.5 -342.5zM952 492h799q0 121 -54.5 225t-146.5 164.5t-198 60.5t-198 -60.5t-147 -164.5t-55 -225z" />
<glyph unicode="&#x178;" horiz-adv-x="1290" d="M61 1393h31l553 -901l553 901h31l-574 -922v-471h-20v471zM461 1669q0 31 31 31q30 0 30 -31t-30 -31q-31 0 -31 31zM768 1669q0 31 31 31q30 0 30 -31t-30 -31q-31 0 -31 31z" />
<glyph unicode="&#x2c6;" horiz-adv-x="593" d="M61 1126l226 267h20l225 -267h-30l-205 246l-205 -246h-31z" />
<glyph unicode="&#x2dc;" horiz-adv-x="573" d="M61 1208v41q0 68 34 106t89 38q25 0 48 -17t40.5 -41l35 -48t38 -41t43.5 -17q47 0 75 31.5t28 91.5v41h20v-41q0 -68 -34 -106t-89 -38q-25 0 -48 17t-40.5 41l-35 48t-38.5 41t-43 17q-47 0 -74.5 -31.5t-27.5 -91.5v-41h-21z" />
<glyph unicode="&#x2000;" horiz-adv-x="973" />
<glyph unicode="&#x2001;" horiz-adv-x="1946" />
<glyph unicode="&#x2002;" horiz-adv-x="973" />
<glyph unicode="&#x2003;" horiz-adv-x="1946" />
<glyph unicode="&#x2004;" horiz-adv-x="648" />
<glyph unicode="&#x2005;" horiz-adv-x="486" />
<glyph unicode="&#x2006;" horiz-adv-x="324" />
<glyph unicode="&#x2007;" horiz-adv-x="324" />
<glyph unicode="&#x2008;" horiz-adv-x="243" />
<glyph unicode="&#x2009;" horiz-adv-x="389" />
<glyph unicode="&#x200a;" horiz-adv-x="108" />
<glyph unicode="&#x2010;" horiz-adv-x="860" d="M82 635v20h696v-20h-696z" />
<glyph unicode="&#x2011;" horiz-adv-x="860" d="M82 635v20h696v-20h-696z" />
<glyph unicode="&#x2012;" horiz-adv-x="860" d="M82 635v20h696v-20h-696z" />
<glyph unicode="&#x2013;" horiz-adv-x="1187" d="M82 532v21h1024v-21h-1024z" />
<glyph unicode="&#x2014;" horiz-adv-x="1474" d="M82 532v21h1311v-21h-1311z" />
<glyph unicode="&#x2018;" horiz-adv-x="389" d="M164 1198l10 31l72 164h20l-71 -164q30 0 30 -31t-30 -31q-31 0 -31 31z" />
<glyph unicode="&#x2019;" horiz-adv-x="389" d="M123 1167l72 164q-31 0 -31 31t31 31q30 0 30 -31l-10 -31l-72 -164h-20z" />
<glyph unicode="&#x201a;" horiz-adv-x="389" d="M123 -164l72 164q-31 0 -31 31q0 30 31 30q30 0 30 -30l-10 -31l-72 -164h-20z" />
<glyph unicode="&#x201c;" horiz-adv-x="593" d="M164 1198l10 31l72 164h20l-71 -164q30 0 30 -31t-30 -31q-31 0 -31 31zM369 1198l10 31l72 164h20l-72 -164q31 0 31 -31t-31 -31q-30 0 -30 31z" />
<glyph unicode="&#x201d;" horiz-adv-x="593" d="M123 1167l72 164q-31 0 -31 31t31 31q30 0 30 -31l-10 -31l-72 -164h-20zM328 1167l71 164q-30 0 -30 31t30 31q31 0 31 -31l-10 -31l-72 -164h-20z" />
<glyph unicode="&#x201e;" horiz-adv-x="593" d="M123 -164l72 164q-31 0 -31 31q0 30 31 30q30 0 30 -30l-10 -31l-72 -164h-20zM328 -164l71 164q-30 0 -30 31q0 30 30 30q31 0 31 -30l-10 -31l-72 -164h-20z" />
<glyph unicode="&#x2022;" horiz-adv-x="389" d="M123 614q0 31 20.5 51.5t51.5 20.5t51 -20.5t20 -51.5t-20 -51t-51 -20t-51.5 20t-20.5 51z" />
<glyph unicode="&#x2026;" horiz-adv-x="1064" d="M164 31q0 30 31 30q30 0 30 -30q0 -31 -30 -31q-31 0 -31 31zM504 31q0 30 31 30q30 0 30 -30q0 -31 -30 -31q-31 0 -31 31zM840 31q0 30 30 30q31 0 31 -30q0 -31 -31 -31q-30 0 -30 31z" />
<glyph unicode="&#x202f;" horiz-adv-x="389" />
<glyph unicode="&#x2039;" horiz-adv-x="651" d="M102 471l430 451l17 -17l-416 -434l416 -434l-17 -17z" />
<glyph unicode="&#x203a;" horiz-adv-x="651" d="M102 37l416 434l-416 434l17 17l430 -451l-430 -451z" />
<glyph unicode="&#x205f;" horiz-adv-x="486" />
<glyph unicode="&#x20ac;" horiz-adv-x="1679" d="M82 553v20h174q-10 62 -10 123q0 27 2.5 58t5.5 48l2 17h-174v21h176q26 122 90.5 234t154 196t204.5 134t235 50q118 0 221.5 -34.5t176.5 -91.5t122.5 -124t73.5 -139h-20q-24 68 -72 131.5t-118 118t-170 87t-214 32.5q-116 0 -227 -48.5t-197.5 -129.5t-149.5 -189.5 t-89 -226.5h643v-21h-646q-10 -62 -10 -123q0 -27 2.5 -58t5.5 -48l2 -17h646v-20h-646q27 -118 90.5 -226.5t150 -189.5t198 -129.5t227.5 -48.5q122 0 226 33t178 92t126 130t84 155h21q-32 -88 -86 -163t-131 -136t-184.5 -96t-233.5 -35q-120 0 -235 50t-204.5 134 t-154.5 196t-92 234h-174z" />
<glyph unicode="&#x2122;" horiz-adv-x="1351" d="M20 1372v21h492v-21h-236v-594h-20v594h-236zM614 778v615h31l277 -400l276 400h31v-615h-21v594l-286 -409l-287 411v-596h-21z" />
<glyph unicode="&#x25fc;" horiz-adv-x="921" d="M0 0v922h922v-922h-922z" />
</font>
</defs>
</svg>
