<?xml version="1.0" encoding="utf-8"?>
<!-- Generator: Adobe Illustrator 23.0.2, SVG Export Plug-In . SVG Version: 6.00 Build 0)  -->
<svg version="1.1" id="Calque_1" xmlns="http://www.w3.org/2000/svg" xmlns:xlink="http://www.w3.org/1999/xlink" x="0px" y="0px"
	 viewBox="0 0 14.2 14.2" style="enable-background:new 0 0 14.2 14.2;" xml:space="preserve">
<style type="text/css">
	.st0{fill:url(#SVGID_1_);}
	.st1{fill:#FFFFFF;}
</style>
<g>
	
		<linearGradient id="SVGID_1_" gradientUnits="userSpaceOnUse" x1="2.075" y1="8.95" x2="12.025" y2="8.95" gradientTransform="matrix(-1 0 0 1 14.0996 -1.9)">
		<stop  offset="0" style="stop-color:#9E2DDC"/>
		<stop  offset="1" style="stop-color:#0D6AD9"/>
	</linearGradient>
	<path class="st0" d="M2.3,7.2c0.3,0.3,0.8,0.3,1.1,0l2.9-2.9v7.3c0,0.4,0.3,0.8,0.8,0.8s0.7-0.4,0.7-0.8V4.3l2.9,2.9
		c0.3,0.3,0.8,0.3,1.1,0c0.3-0.3,0.3-0.8,0-1.1L7.6,1.9C7.5,1.8,7.3,1.7,7.1,1.7S6.7,1.8,6.6,1.9L2.3,6.1C2,6.4,2,6.9,2.3,7.2z"/>
	<path class="st1" d="M7.1,12.4c-0.5,0-0.8-0.4-0.8-0.8V4.3L3.4,7.2C3.2,7.4,3,7.4,2.8,7.4S2.4,7.4,2.3,7.2C2,6.9,2,6.4,2.3,6.1
		l4.3-4.2c0.1-0.1,0.3-0.2,0.5-0.2c0.2,0,0.4,0.1,0.5,0.2l4.2,4.2c0.3,0.3,0.3,0.8,0,1.1c-0.2,0.2-0.4,0.2-0.6,0.2s-0.4-0.1-0.6-0.2
		L7.8,4.3v7.3C7.8,12,7.6,12.4,7.1,12.4 M7.1,12.8c0.6,0,1.1-0.5,1.1-1.2V5.3l2.2,2.2c0.2,0.2,0.5,0.3,0.8,0.3
		c0.3,0,0.6-0.1,0.8-0.3c0.5-0.5,0.5-1.2,0-1.7L7.9,1.6C7.7,1.4,7.4,1.3,7.1,1.3c-0.3,0-0.6,0.1-0.8,0.3L2,5.8C1.6,6.3,1.6,7,2,7.5
		c0.2,0.2,0.5,0.3,0.8,0.3c0.3,0,0.6-0.1,0.8-0.3l2.2-2.2v6.3C5.9,12.2,6.3,12.8,7.1,12.8L7.1,12.8z"/>
</g>
</svg>
