<?xml version="1.0" encoding="utf-8"?>
<!-- Generator: Adobe Illustrator 23.0.2, SVG Export Plug-In . SVG Version: 6.00 Build 0)  -->
<svg version="1.1" id="Calque_1" xmlns="http://www.w3.org/2000/svg" xmlns:xlink="http://www.w3.org/1999/xlink" x="0px" y="0px"
	 viewBox="0 0 14.2 14.2" style="enable-background:new 0 0 14.2 14.2;" xml:space="preserve">
<style type="text/css">
	.st0{fill:url(#SVGID_1_);}
	.st1{fill:#FFFFFF;}
</style>
<linearGradient id="SVGID_1_" gradientUnits="userSpaceOnUse" x1="2.084" y1="7.085" x2="12.0371" y2="7.085">
	<stop  offset="0" style="stop-color:#9E2DDC"/>
	<stop  offset="1" style="stop-color:#0D6AD9"/>
</linearGradient>
<path class="st0" d="M11.8,6.9c-0.3-0.3-0.8-0.3-1.1,0L7.8,9.8V2.5c0-0.4-0.3-0.8-0.8-0.8S6.3,2.1,6.3,2.5v7.3L3.4,6.9
	c-0.3-0.3-0.8-0.3-1.1,0S2,7.7,2.3,8l4.2,4.2c0.1,0.1,0.3,0.2,0.5,0.2s0.4-0.1,0.5-0.2L11.8,8C12.1,7.7,12.1,7.2,11.8,6.9z"/>
</svg>
