<?xml version="1.0" encoding="utf-8"?>
<!-- Generator: Adobe Illustrator 23.0.2, SVG Export Plug-In . SVG Version: 6.00 Build 0)  -->
<svg version="1.1" id="Calque_1" xmlns="http://www.w3.org/2000/svg" xmlns:xlink="http://www.w3.org/1999/xlink" x="0px" y="0px"
	 viewBox="0 0 425.2 425.2" style="enable-background:new 0 0 425.2 425.2;" xml:space="preserve">
<style type="text/css">
	.st0{fill:url(#SVGID_1_);}
	.st1{fill:url(#SVGID_2_);}
	.st2{fill:url(#SVGID_3_);}
	.st3{fill:url(#SVGID_4_);}
	.st4{fill:url(#SVGID_5_);}
	.st5{fill:url(#SVGID_6_);}
	.st6{fill:url(#SVGID_7_);}
	.st7{fill:url(#SVGID_8_);}
	.st8{fill:url(#SVGID_9_);}
	.st9{fill:url(#SVGID_10_);}
	.st10{fill:url(#SVGID_11_);}
	.st11{fill:url(#SVGID_12_);}
	.st12{fill:url(#SVGID_13_);}
	.st13{fill:url(#SVGID_14_);}
	.st14{fill:url(#SVGID_15_);}
	.st15{fill:url(#SVGID_16_);}
	.st16{fill:url(#SVGID_17_);}
	.st17{fill:#1D1D1B;}
</style>
<linearGradient id="SVGID_1_" gradientUnits="userSpaceOnUse" x1="154.6135" y1="393.3937" x2="406.6135" y2="92.8719">
	<stop  offset="0" style="stop-color:#9E2DDC"/>
	<stop  offset="1" style="stop-color:#0D6AD9"/>
</linearGradient>
<path class="st0" d="M298.4,220.2c-1.1,0.1-2.2,0-3.3,0.2c-1.8,0.4-3,2.3-2.4,4.2c0.6,2.1,3,3.5,5.3,3.2c1.7-0.2,3.2-2.3,3.3-4.3
	c0-2-1.3-3.6-3-3.7C298.2,219.9,298.3,220.1,298.4,220.2L298.4,220.2z"/>
<linearGradient id="SVGID_2_" gradientUnits="userSpaceOnUse" x1="24.2589" y1="284.0859" x2="276.2589" y2="-16.4358">
	<stop  offset="0" style="stop-color:#9E2DDC"/>
	<stop  offset="1" style="stop-color:#0D6AD9"/>
</linearGradient>
<path class="st1" d="M157.4,182.7c0.6-0.6,1.2-1.2,1.8-1.8c0.6-0.7,0.2-2.1-0.7-2.3c-1.4-0.4-2.9-0.5-4.3-0.8
	c-2.5-0.6-4.9-1.3-7.4-1.9c-2.4-0.7-4.7-1.3-7.1-2.1c-1.3-0.4-2.6-1.1-3.9-1.6c-3.9-1.6-7.7-3.2-11.6-4.6c-3.7-1.4-7.6-2.6-11.3-3.9
	c-4-1.4-8-3-12.1-4.4c-4.1-1.5-8.1-2.9-12.2-4.3c-0.5-0.2-1.3-0.2-1.7,0c-1.3,0.6-2.6,1.4-3.8,2.2c-0.9,0.5-2.1,0.9-1.6,2.5
	c2-0.3,3.6-1.2,5-2.4c0.6-0.5,1-0.6,1.6-0.2c0.2,0.2,0.5,0.3,0.8,0.4c3.5,1.2,7.1,2.4,10.6,3.7c3.7,1.3,7.3,2.7,11,4
	c3.1,1.1,6.3,2.2,9.4,3.3c2.9,1,5.7,2.1,8.6,3.2c2.2,0.8,4.5,1.8,6.7,2.5c2.6,0.9,5.3,1.7,8,2.4c3.2,0.9,6.4,1.8,9.7,2.6
	c1.5,0.4,3.1,0.6,4.7,0.9C156.3,181.4,156.3,182.1,157.4,182.7z"/>
<linearGradient id="SVGID_3_" gradientUnits="userSpaceOnUse" x1="163.4196" y1="400.778" x2="415.4196" y2="100.2562">
	<stop  offset="0" style="stop-color:#9E2DDC"/>
	<stop  offset="1" style="stop-color:#0D6AD9"/>
</linearGradient>
<path class="st2" d="M245.6,307.1c-0.5-0.8-0.9-1.6-1.5-2.4c-0.5-0.7-1.2-0.9-2-0.5c-0.8,0.4-1.6,0.7-2.4,1.1
	c-0.3,0.2-0.5,0.5-0.8,0.8c0.4,0.2,0.8,0.4,1.2,0.5c0.3,0.1,0.7,0.1,0.9-0.1c1.3-0.9,2.3-1,3,0.8c0.1,0.2,0.7,0.3,1.1,0.4
	C245.2,307.8,245.3,307.5,245.6,307.1z"/>
<linearGradient id="SVGID_4_" gradientUnits="userSpaceOnUse" x1="151.3635" y1="390.6684" x2="403.3635" y2="90.1467">
	<stop  offset="0" style="stop-color:#9E2DDC"/>
	<stop  offset="1" style="stop-color:#0D6AD9"/>
</linearGradient>
<path class="st3" d="M236.8,292.4c1.2-1.2,0.8-3-0.6-3.2c-0.9-0.1-1.9,0.1-2.9,0.3c-0.3,0.1-0.7,0.6-0.6,0.7
	c0.1,0.3,0.6,0.9,0.8,0.8C234.9,290.7,236.1,290.9,236.8,292.4z"/>
<linearGradient id="SVGID_5_" gradientUnits="userSpaceOnUse" x1="177.6908" y1="412.7449" x2="429.6907" y2="112.2232">
	<stop  offset="0" style="stop-color:#9E2DDC"/>
	<stop  offset="1" style="stop-color:#0D6AD9"/>
</linearGradient>
<path class="st4" d="M257.1,317.5c0.6,0.3,1.3,0.7,1.9,1c0.3,0.1,0.8,0,0.9-0.2c0.2-0.2,0.2-0.8,0-0.9c-0.7-0.5-1.5-1-2.3-1.3
	c-1.7-0.5-1.7-0.4-2.4,1.2c-0.1,0.2-0.1,0.7,0,0.7c0.2,0.2,0.6,0.2,0.9,0.2C256.4,318.1,256.7,317.8,257.1,317.5z"/>
<linearGradient id="SVGID_6_" gradientUnits="userSpaceOnUse" x1="136.613" y1="378.2995" x2="388.613" y2="77.7778">
	<stop  offset="0" style="stop-color:#9E2DDC"/>
	<stop  offset="1" style="stop-color:#0D6AD9"/>
</linearGradient>
<path class="st5" d="M277.2,274.4c-3.8-4.1-7.9-8.6-11.9-12.8c-1.7-1.5-4.3-4.8-5.8-6.6c-2.4-2.8-7-5.4-10.1-7.2
	c-2.1-1.2-3.9-2.9-5.7-4.4c-1.5-1.2-2.9-2.6-4.5-3.7c-0.6-0.5-1.5-0.8-2.2-1.1c-1.5-0.5-2.4-1.6-2.5-3.1c-0.2-1.9-1.3-3.2-2.1-4.8
	c-1.5-2.8-2.7-5.6-4.3-8.3c-0.6-1.1-1-2.5-2.5-3.1c-1.6-0.7-2.4-2.4-2.4-4.1c0-1.1-0.4-1.9-1.2-2.3c-1.4-0.8-1.5-1.7-1.8-3.1
	c-1.6-1.7-2.3-2.5-3.1-3.5c-1.8-2.1-3.3-3.7-5-5.9c-1.4-1.8-2.7-3.6-4.1-5.4c-0.7-0.8-1.5-1.5-2.2-2.3c-2.1-2.5-4.1-5-6.2-7.4
	c-2-2.4-4.1-4.7-6.1-7.1c-2-2.4-3.8-5-5.8-7.5c-1.7-2.1-3.7-4.1-5.5-6.1c-1.2-1.3-2.6-2.6-3.8-4c-0.2-0.2-0.3-0.6-0.5-0.9
	c0.7-0.8,1.2-0.8,1.9-0.1c4,3.4,7.4,7.4,10.7,11.4c2.7,3.3,5.4,6.5,8.1,9.7c2.4,2.9,4.8,5.8,7.3,8.7c2,2.4,4.1,4.7,6.1,7.1
	c2.7,3.3,5.4,6.6,8.1,9.9c0.7-1.2-0.3-2.1-1-2.8c-1.2-1.2-1.6-2.7-1.4-4.2c0.2-1.9,0.7-3.8,1-5.7c0.1-0.3-0.1-0.9-0.3-1.1
	c-1.7-1.4-2.2-3.3-2.3-5.3c-0.1-1.9,0.1-3.8,0.5-5.7c0.1-0.6,0.9-1.4,1.6-1.6c2.2-0.6,3-2.3,3.9-3.9c2.5-4.3,1.7-8.8,0.9-13.4
	c-0.7-3.7-1.1-7.5,0.2-11.2c1.1-3,3.7-3.8,6.1-3.4c4.3,0.8,7,3.6,8.5,7.6c1.3,3.6,1.2,7.2-0.1,10.8c-0.4,1-1.1,2-2,2.6
	c-1,0.7-1.2,1.5-1.4,2.5c-0.5,2.5-0.4,5,0.7,7.4c0.5,1.1,1.6,1.5,2.6,2c0.5,0.3,1.1,0.7,1.3,1.1c1.4,2.6,1.1,5.1-0.3,7.6
	c-0.2,0.4-0.2,0.7,0.1,1.2c0.6,0.8,0.8,2,1.1,3c0.9,2.7,1.9,5.4,2.8,8.2c0.3,0.8,0.6,1.8,0.5,2.6c-0.1,1.9,0.7,3.9-0.4,5.8
	c-0.5,0.8-0.3,1.6,0.1,2.4c1.3,2.2,1.6,4.6,0.8,7.1c-0.2,0.6-0.3,1.2-0.4,1.7c5.9,4.4,12.7,6.4,19.8,8c-0.4-1.6-0.9-3.2-1.3-4.7
	c-0.3-1.2-0.9-2.3-1.1-3.5c-0.3-1.6-1.4-2.1-2.6-2.7c-2.9-1.5-5.5-3.4-7.5-6.1c-1-1.4-0.8-3-0.9-4.6c-0.1-3-0.2-6.1,0-9.1
	c0.2-2.9,0.8-5.7,1.3-8.6c0.5-3.4,1.5-6.6,3.4-9.5c1.1-1.7,2.4-3.2,3.6-5c-0.3-0.4-0.6-0.8-1-1.2c-3.3-3.5-5.8-7.5-7.6-12
	c-1.2-3-1.9-6.2-2.3-9.5c-0.7-5.5,0.4-10.9,1.6-16.2c0.3-1.3,0.8-2.7,1.3-3.9c0.3-0.7,0.3-1.2-0.2-1.8c-2.9-3.2-3.1-7-2.3-11
	c0.4-1.7,0.9-3.5,1.6-5.1c0.9-2,2.8-3.2,4.7-4.2c0.9-0.4,1.1-0.8,0.9-1.8c-0.8-3.7-1.1-7.4,0.1-11.1c0.3-0.8,0.3-1.7,0.5-2.6
	c0-0.2-0.1-0.5-0.2-0.6c-3.3-4-5.8-8.4-7.9-13.1c-1.9-4-3.4-8.3-3.8-12.7c-0.1-1.3,0.1-2.7,0.4-4c0.4-1.6,2.2-2.1,3.5-1.1
	c0.7,0.5,1.3,1.2,1.8,1.9c1.5,2.1,2.9,4.2,4.4,6.2c1.3,1.7,3.1,3.2,5.3,3.5c-0.9-1.6-1.7-2.9-2.5-4.2c-2.3-3.5-3.2-7.5-3.7-11.6
	c-0.2-2.2,0.7-4,2.3-5.3c1.2-1,2.3-0.6,3.6-0.4c2.2,0.8,3.2,2.2,4.1,3.6c1.4,2.2,3,4.5,4.9,6.1c0.6,0.7,1.4,1.3,2.1,1.8
	c2,1.8,3.4,2.3,6.7,3.1s8.7,1.4,13,1.1c2.6-0.2,5-0.8,7.3-1.9c3.4-1.5,6.9-2.9,10.7-3.1c4.9-0.3,9.8-0.3,14.6,1.2
	c0.6,0.2,1.2,0.5,1.9,0.7c-0.5-1.7-2.3-3.9-4.2-5c-0.4-0.2-0.8-0.5-1-0.8c-0.9-1-0.6-1.7,0.6-2.1c2.3-0.8,4.1,0.3,5.9,1.4
	c3.1,1.9,5.4,4.5,7,7.7c0.8,1.7,0.9,1.7,2.7,1.1c2.9-0.9,5.9-1.3,8.9-0.6c3.3,0.8,5,3.2,6,6.2c0.1,0.4-0.4,1.2-0.8,1.5
	c-1.3,1-2.9,0.3-4.3,0.2c-1.4-0.1-2.8-0.4-4.2-0.6c-1.1-0.1-2.9,0.9-4,2.1c0.8,1.6,1.8,3.1,2.5,4.8c1,2.5,1.9,5,2.6,7.6
	c0.7,2.6,1,5.3,1.9,7.9c0.9,2.6,0.8,5.1,0.6,7.6c-0.2,2.8-0.6,5.6-0.7,8.3c-0.2,3.2-1.6,5.9-2.7,8.8c-1.1,2.9-2.5,5.8-4,8.6
	c-1.5,2.7-3.2,5.2-5,7.7c-1.8,2.4-3.8,4.6-5.8,6.8c-0.3,0.3-0.7,0.5-1,0.8c-0.9,0.8-1.3,1.7-1.2,2.9c0,1.3-0.1,2.8-0.7,4
	c-1.6,3.6-6.4,4.9-9.7,2.8c-0.8-0.5-1.6-1-2.8-1.8c0.6,2.1,1,4,1.7,5.8c0.8,2.4,2.4,4.4,4.4,5.9c0.9,0.7,2.1,1,3.3,1.2
	c3.1,0.4,6.1,1.2,8.8,3c1.3,0.9,1.7,2.3,1.5,3.9c0,0.4,0.1,1,0.3,1.2c4.4,4,7.1,11.5,9.6,13.6c2.5,2.1,4.7,4.7,6.8,7.1
	c2.6,2.9,4.6,6.3,6,10c0.9,2.5,2,4.9,2.7,7.4c1.3,5.2,2.1,10.5,1.8,16c-0.2,2.9,0,5.8-0.6,8.7c-0.7,3.2-1.5,6.5-2.3,9.6
	c-1.1,4.1-2.6,8-4.4,11.9c-1.5,3.1-2.6,6.4-4.2,9.5c-1.6,3.2-3.4,6.4-5.2,9.5c-2.4,4.2-4.6,8.4-7.2,12.5c-2.6,4.2-5.5,8.2-8.2,12.3
	c-0.7,1-1.4,1.9-2.2,2.7c-0.8,0.8-1.9,1.3-2.8,1.9c-0.4,0.2-7.5,2.5-7.9,2.6c-0.6,0.1-1.5,0.3-1.8,0c-0.6-0.6,0-1.2,0.6-1.4
	c10.3-2.9,12.8-7.5,15.2-10.8c2.1-2.9,3.8-6.1,5.7-9.2c2-3.4,4.1-6.8,6-10.3c2.9-5.4,6-10.8,8.5-16.4c3.2-7,5.9-14.2,7.4-21.8
	c0.8-4.1,1-8.3,1.1-12.5c0.1-4.5-0.5-8.8-1.5-13.1c-1.6-6.6-4.3-12.8-8.7-18.1c-1.2-1.4-1.7-1.9-4.2-3.8c-2.5-2-4.7-6.3-6.2-8.4
	s-2.2-4.8-3.9-6.3c-0.3-0.3-0.6-0.7-1-1.1c-0.4,1-0.7,2-1.1,3c-1.2,3.3-3.4,5.8-6,8.1c-2,1.8-3.7,3.8-5.7,5.6c-2.1,1.9-4,4-6.4,5.6
	c-2.9,1.9-5.9,3.8-9.3,4.6c-1.8,0.4-3.6,1-5.6,0.6c-2.2-0.5-4.1-1.6-5.7-3.1c-5-4.6-8.1-10.2-9.3-16.9c-0.2-0.9-0.6-1-1.4-1
	c-3.8,0-7.5-0.5-10.9-1.9c-2.9-1.2-4.6-2.1-5.8-2.9c-1.1-0.7-2.2-1.6-2.8-2.2c-0.3,0.5-0.6,1-1,1.5c-3.5,4.1-5.1,8.8-5.9,14.1
	c-0.6,4-0.9,8.1-0.9,12.1c0,1,0.2,1.8,1.2,2.4c2.5,1.5,4.8,3.5,7.3,4.9c2.7,1.5,5.5,2.6,8.4,3.7c1.1,0.4,2.3,0.5,3.7,0.7
	c-1.3-3.9-2.6-7.7-3.9-11.5c-1.3-3.8-4-6.9-5.1-10.9c1.3-0.1,1.9,0.3,2.3,1.3c1.2,2.5,2.6,4.8,3.7,7.3c1,2,1.7,4.1,2.5,6.2
	c0.3,0.8,0.8,1.1,1.7,1.2c3.4,0.3,6.7,0.9,9.2,3.6c2.3,2.5,3.4,5.5,4,8.8c0.1-0.7,0.3-1.5,0.4-2.2c0.9-5.1,3.9-8.4,8.4-10.5
	c3-1.4,7.5-0.1,9.2,1.9c-0.8-0.1-1.7-0.1-2.4-0.4c-3.8-1.6-6.8-0.1-9.5,2.4c-4,3.6-4.5,8.3-4.2,13.3c0.2,2.9,1.3,5.5,3.5,7.5
	c2.8,2.5,6.1,4.2,10.1,3.2c1.2-0.3,2.4-0.8,3.5-1.4c1-0.5,1.6-0.2,2.1,0.8c-1,1.3-2.6,1.8-4.1,2.1c-2.7,0.6-5.3,0.6-7.9-0.5
	c-0.3-0.1-0.8,0.1-1.1,0.4c-1.3,1.3-2.4,2.8-3.8,4.1c-1,1-2.1,2.1-3.4,2.8c-0.6,0.3-1.9,0.3-2.3-0.1c-1.3-1.2-2.5-2.5-3.5-3.9
	c-0.9-1.2-0.4-2.5,0.4-3.6c0.9-1.2,1.9-2.2,2.9-3.3c-0.2-0.2-0.5-0.4-0.7-0.6c-1.7-1.6-1.7-1.6-3.9-0.3c-0.5,0.3-1.1,0.4-1.8,0.7
	c-0.7,1.5,0.9,2.4,1.5,3.8c-1.5,0.1-1.3,1-1.3,1.9c-0.1,2.5,0,5-0.3,7.5c-0.5,4.9-1.2,9.9-3.5,14.4c-0.5,0.9-0.8,2-1.1,3
	c-0.1,0.3-0.8,1.6-0.6,1.8c1,1.1,5.2,5.7,6.3,6.7L277.2,274.4z M274.9,274.3c0.4-0.3,2.8-1.2,3.4-1.6c4.4-2.7,13.7-5.4,18.5-7.2
	c2.2-0.8,4.3-2,6.5-2.8c1.4-0.5,3-0.6,4.5-1c0.3-0.1,0.9-0.5,0.9-0.7c0.2-2.4,0.5-4.8,0.5-7.3c0-1.7-0.3-3.3-0.5-5
	c-0.3-2.8,0.1-5.5,0.7-8.2c0.4-1.9,0.7-3.8,1-5.9c-0.6-0.2-1.4-0.3-2-0.6c-0.4-0.2-1-0.7-1.1-1.2c-0.8-3-1.7-5.9-2.1-9
	c-0.3-2,0-4,0.2-6.1c0.1-1.9,0.6-3.8,0.6-5.6c0-1.2,0.8-0.8,1.1-0.7c0.3,0.1,0.8,0.6,0.8,1c-0.1,3.4-0.4,6.8-0.5,10.2
	c0,1.3,0.2,2.7,0.4,4c0,0.3,0.4,0.7,0.7,0.8c4.1,2.1,8.3,3.1,13,3.2c5.2,0.1,10.3-0.6,15.2-2.4c2.3-0.8,4.5-1.9,6.7-2.7
	c0.7-0.3,1.5-0.3,2.5-0.5c-0.1-0.5-0.3-1.2-0.5-1.9c-1.1-3.3-2-6.7-3.3-9.9c-0.7-1.8-1.9-3.4-3.2-5c-1.3-1.6-2.5-3.4-4.6-4.3
	c-0.5-0.2-1.5-0.9-1.2-1.5c0.2-0.7,1.8-0.6,2.6,0.1c4.3,3.6,8,7.7,9.5,13.3c0.8,3,1.9,6,2.7,9c0.4,1.6,0.8,3.3,0.8,5
	c0,2.3-0.4,3.6-4.1,4.7c-1.2,0.3-2.3,0.8-3.5,1.2c-1.1,0.4-2.3,0.7-3.2,1c-0.3,3.2-0.5,6.4-0.9,9.5c-0.2,1.9-0.7,3.7-1.2,5.5
	c-1,3.6-2.2,7.1-4,10.3c-1.4,2.5-2.5,5.1-3.8,7.7c-1.4,2.7-1.4,5.6-1.3,8.5c0.1,3.4-1.6,5.7-4.2,7.6c-0.8,0.6-1.7,0.4-2.7,0.2
	c-2.4-0.6-4.8-0.3-7.1,0.3c-3.4,0.9-6.7,1.8-10.1,2.7c-1.2,0.3-2.5,0.4-3.7,0.7c-1.3,0.3-2.6,0.7-4.1,1.1c1.4,1.5,2.5,3.1,3.9,4.4
	c3,2.9,5.8,6,8.3,9.3c1.9,2.5,4.1,4.9,6.1,7.3c2.9,3.4,5.9,6.8,8.8,10.3c2.5,3,4.7,6.1,7.2,9.1c3.7,4.5,7.4,8.9,11.3,13.3
	c3.9,4.4,7.9,8.7,11.8,13.2c2.5,2.9,4.9,6,7.4,8.9c1.7,2.1,3.5,4.1,5.3,6.1c2.4,2.7,4.9,5.3,7.3,8c0.4,0.4,0.5,0.9,0.8,1.4
	c-1.3,1.2-1.6,1.1-2.7-0.2c-1.4-1.6-3-3.2-4.4-4.8c-2.1-2.5-4.2-5-6.4-7.5c-2-2.4-4.1-4.7-6.2-7.1c-2.1-2.4-4-4.8-6.1-7.2
	c-1.5-1.7-3.1-3.3-4.6-5c-2.6-2.9-5.3-5.8-7.8-8.8c-2.6-3.1-5.1-6.2-7.6-9.3c-2.5-3.2-5-6.4-7.6-9.5c-1.4-1.7-3-3.3-4.4-5
	c-1.6-1.9-3.2-3.9-4.8-5.9c-2.2-2.7-4.6-5.2-6.6-8c-2.8-3.9-6.5-7-9.6-10.6c-0.7-0.8-1.4-1.6-2-2.4c-0.4,0.2-2.6,0.9-2.7,0.8
	c-0.4-0.4-0.8-1-0.8-1.5c0-0.3,2-1.1,2.4-1.2c1.8-0.4,3.7-0.6,5.5-1.1c4.2-1,8.4-2.2,12.7-3.2c2.1-0.5,4.3-0.9,6.4-1.1
	c1.1-0.1,2.2,0.2,3.3,0.5c0.9,0.3,1.6,0.3,2.3-0.3c1.8-1.4,2.6-3.2,2.7-5.4c0.1-2.2-0.2-4.5,0.5-6.5c1.2-3.5,2.8-6.8,4.5-10.1
	c1.5-2.9,3-5.7,3.7-8.8c0.6-2.7,1.6-5.4,2.1-8.1c0.5-2.5,0.6-5.1,0.9-7.8c-1.8,0.2-3.4,0.4-4.9,0.6c-3.7,0.5-7.3,0.4-10.9-0.4
	c-2.3-0.5-4.5-1.1-6.8-1.7c-0.8-0.2-1,0.3-1.1,0.9c-0.3,1.8-0.4,3.5-0.7,5.3c-0.7,3.6-0.3,7.2,0.1,10.8c0.3,2.8-0.3,5.6-0.5,8.4
	c0,0.4-0.3,0.9-0.5,1.3c2.2,1.5,4.4,3,6.6,4.5c0.2,0.2,0.5,0.3,0.7,0.5c0.5,0.4,1.2,1,0.6,1.7c-0.6,0.7-1.3,0.4-2,0
	c-2.1-1.5-4.3-2.9-6.5-4.4c-1.8-1.2-3.7-0.8-5.4-0.1c-3.9,1.5-7.8,3.2-11.7,5c-4.1,1.9-12.9,4.5-16.4,7.2c0.9,0.6,1.8,1.3,2.6,1.9
	c0,0.2-0.1,0.3-0.1,0.5c-0.6-0.1-1.2-0.1-1.7-0.2c-1.3-0.3-2.7-0.7-4-1.1c-1.7-0.4-0.8-0.3-2.2-0.7c-1.5-0.1-1.2-0.6-2.9-0.3
	c0.5,1.9,0.9,3.5,1.4,5.1c0.1,0.2,0.5,0.4,0.8,0.5c2.7,0.8,5.1,2.1,7,4.2c0.9,1,0.9,2.2,0.8,3.4c0,0.3-0.4,0.5-0.9,1.1
	c-0.3-0.8-0.5-1.4-0.5-1.9c0-0.9-0.3-1.4-1-2c-1.7-1.4-3.5-2.6-5.8-3c-2-0.4-2.6-2.1-3-3.9c-0.3-1.3-0.6-2.7-1.1-3.8
	c-0.7-1.5-2.9-1.9-4.7-0.9c-2.7,1.4-5.3,3-8,4.5c-2.5,1.4-5,3-7.7,4.1c-2.8,1.1-5.8,1.6-8.6,2.4c-1.4,0.4-2.7,0.9-4,1.6
	c-1.7,0.9-2,3.4-0.2,4.8c2.2,1.7,4.6,1.4,7,1c2.3-0.3,4.6-0.8,6.8-1.6c3-1,6-2.2,9-3.3c0.6-0.2,1.3-0.7,1.9-0.7
	c2.5,0.1,2.6-2.2,4-3.6c0.4,0.3,1,0.6,1.6,0.9c-1.4,2.7-2.6,5.3-5.2,7c-1.4,0.9-2.5,2.1-3.7,3.1c-1.4,1.2-2.8,2.4-4.4,3.4
	c-0.6,0.4-1.6,0.4-2.3,0.7c-2.6,1.1-5.2,2-7.3,3.8c-0.8,0.7-1.6,1.4-1.1,2.7c0.4,1,1.8,2.3,2.8,2.4c4.1,0.3,7.9-0.8,11.5-2.8
	c3.1-1.8,6.2-3.3,9.3-5.1c2.3-1.4,4.5-2.9,6.1-5c0.2-0.2,0.8-0.4,1-0.3c0.4,0.3,0.6,0.8,1,1.2c-0.3,1.7-0.6,2.2-1.2,3.3
	c-1.9,3.2-3.9,6.2-6.8,8.5c-1.9,1.6-3.8,3.3-5.6,4.9c-0.2,0.2-0.2,0.5-0.3,0.7c-0.2,0.3-0.4,0.7-0.6,0.7c-1.3,0.3-2.1,1-2.2,2.3
	c-0.1,1.1,0.2,2,1.3,2.8c1.9,1.2,3.7,1.1,5.3-0.1c2.1-1.6,4.1-3.3,5.9-5.2c3.1-3.2,6.1-6.6,8.9-10.1c1-1.2,1.6-2.7,2.2-4.2
	c0.8-1.9,1.5-2.2,3.1-0.8c-1.4,2.6-2.8,5.2-4.2,7.9c1.1,0.7,0.5,1.7,0.1,2.5c-1.5,2.6-3.2,5.1-4.7,7.6c-0.2,0.3-0.4,0.6-0.6,0.9
	c1,0.9,3,0.1,3.3,2.1c-1.1,0.5-2.6,0-3.8-1.4c-0.5,0.9-1.1,1.8-1.4,2.7c-0.2,0.4-0.1,1,0.1,1.4c0.1,0.2,0.8,0.2,1.2,0.1
	c2.5-0.6,4.4-2.2,6.3-3.8c3.5-3,6.4-6.6,8-10.9c1.2-3.2,2.1-6.5,3.1-9.7c0.4-1.3-1-2.6-2.6-2.8c-0.7-0.1-1.6,0.2-1.9-1
	c-0.3-0.9,0.2-1.2,0.8-1.1c1.2,0.2,2.4,0.6,3.8,0.9c0-2.1,0-4.3,0-6.6c1.3-0.2,2.1,0.5,2.1,1.7c0,1.8,0.2,3.8-0.4,5.4
	c-0.5,1.3,0.3,2.1,0.2,3.2c-0.3,2.9-1,5.6-2,8.3c-1,2.7-2,5.3-3.7,7.7c-2.9,4.2-6.5,7.6-11.1,9.9c-0.9,0.5-2,0.7-3,0.8
	c-1.1,0.2-2-0.5-2.5-1.4c-0.7-1.3-0.9-2.6,0-3.9c1.7-2.5,3.4-5,5.1-7.5c0.5-0.7,0.8-1.4,1.1-2.2c-2.2,2.3-4.3,4.6-6.6,6.8
	c-1.6,1.5-3.3,2.9-5.1,4.2c-2.3,1.7-4.7,1.7-7.2,0.4c-1.4-0.8-2.5-1.7-3-3.2c-2.4,1.2-4.9,2-7.6,2.1c-3.5,0.2-6.6-0.8-9.1-3.2
	c-1.7-1.6-3.1-3.5-4.6-5.2c-0.2-0.2-0.5-0.5-0.7-0.5c-2.3,0.4-4.6,0.7-6.8,1.5c-3.1,1.1-5.1,3.6-6.7,6.4c-1.1,2-2.2,4-3.4,5.9
	c-1,1.5-2.1,3-3.2,4.4c-1,1.3-2,2.8-3.2,3.9c-2.7,2.6-5.4,5.2-8.4,7.4c-2.7,2-6.1,2.8-9.4,3.6c-3.7,0.9-7.5,0.6-11.2,0.6
	c-6.2,0-12.1,1.1-17.7,3.7c-6,2.8-11.7,6-17.7,8.7c-3.2,1.4-6.6,2.4-10,3.1c-3.1,0.7-6.4,1.3-9.5,1.2c-3-0.1-6-1.1-8.9-2
	c-2-0.6-4-1.6-5.8-2.6c-1.1-0.6-2.1-1.5-3-2.4c-1.7-1.6-3.5-3.1-4.9-5c-3.2-4.3-5.2-9.2-4.4-14.7c0.2-1.6-0.4-2.2-1.5-3
	c-3.5-2.5-6.9-5.2-10.4-7.7c-3.4-2.5-6.8-4.9-10.3-7.3c-3.1-2.2-5.6-3.9-8.7-6.1c-0.3-0.2-0.5-3.1-0.3-3.1c-0.2-2.1-0.3-4.2-0.5-6.2
	c-0.1-2.4-0.1-4.7-0.3-7.1c-0.2-3.7-0.6-7.4-0.8-11.1c-0.2-2.4-0.4-4.8-0.5-7.2c0-0.5,1.3-0.9,1.6-1c2.8-1.2,5.6-2.3,8.5-3.6
	c-1.9-1.2-3.6-2.3-5.4-3.5c-3.3-2.3-6.6-4.6-9.9-6.9c-0.4-0.3-0.9-0.6-1.3-0.8c-0.7-0.3-1.7-0.4-1.7-1.2c-0.1-1.2,0.1-2.6,0-3.7
	c-0.4-3.9-0.7-7.7-0.9-11.6c-0.2-5.4-0.3-10.7-0.5-16.1c-0.1-2.8-0.3-5.6-0.5-8.4c-0.1-0.8-0.1-1.3,0.9-1.7c1.1-0.5,2-1.5,3-2.3
	c3.4-2.9,6.9-5.8,10.3-8.8c5.5-4.9,8.4-11.2,10.6-18.1c1.7-5.4,2.6-10.9,3.4-16.4c0.3-1.7,0-3.4-0.1-5.1c-0.1-1.8-0.3-3.6-0.6-5.4
	c-0.2-1.2,0.4-2.1,0.9-3c0.1-0.2,0.7-0.3,1-0.2c2.3,0.8,4.6,1.7,7,2.4c5.3,1.6,10.7,3.1,16,4.8c3.5,1.1,7,2.2,10.5,3.4
	c4.8,1.7,9.6,3.5,14.3,5.2c4.5,1.6,9,3.1,13.5,4.7c3,1.1,6,2.2,9,3.3c0.6,0.2,1.9,0.8,2.9,1.2c0.6,0.6,0.2,0,0.7,0.6
	c0.1,0.1,0.1,0.4,0,0.6c-0.7,2.8-0.2,5.7-0.2,8.5c0,3.6,0.3,7.2,0.7,10.8c0.2,2.1,0.8,4.1,1,6.2c0.3,2.8,0.5,5.6,0.7,8.4
	c0.2,2.5,0.5,5,0.7,7.5c0.1,1.5,0.3,3.1,0.4,4.6c0.3,3.5,0.7,7.1,1,10.6c0.3,3.8,0.3,7.7,0.6,11.5c0.1,1.4,0.7,2.7,0.8,4.1
	c0.5,4.6,1,9.1,1.4,13.7c0,0.2,0.1,0.5,0.1,0.7c1-0.2,1.9-0.3,2.8-0.6c0.3-0.1,0.6-0.5,0.6-0.8c-0.1-2.5-0.2-5-0.4-7.5
	c-0.2-4.4-0.5-8.7-0.7-13.1c-0.2-2.8-0.5-5.5-0.7-8.3c-0.1-1.9-0.1-3.8-0.3-5.6c-0.3-3.5-0.6-7-0.9-10.5c-0.2-2.2-0.3-4.4-0.5-6.5
	c-0.3-2.8-0.7-5.5-1.1-8.3c-0.1-1.2-0.1-2.5-0.3-3.7c-0.2-1.8-0.6-3.7-0.8-5.5c-0.2-1.7-0.4-3.5-0.5-5.2c-0.2-4-0.3-8-0.5-12
	c0-0.6-0.1-1.1-0.1-1.7c0-0.5,0.2-0.9,0.3-1.4c1.2,0.7,1.6,1.6,1.7,2.7c0,2.3,0,4.5,0.1,6.8c0.1,2.1,0.3,4.1,0.4,6.2
	c0.1,1.8,0.3,3.5,0.5,5.3c0.2,2,0.6,4.1,0.9,6.1c0.1,0.8,0.3,1.6,0.1,2.4c-0.2,1.2,0.6,1.5,1.3,2c1.7,1.2,3.3,2.5,4.9,3.8
	c3.6,3.1,7,6.3,10.6,9.4c2.7,2.4,5.5,4.8,8.3,7.1c2.6,2,5.3,3.8,8,5.8c1.9,1.5,3.8,3.1,5.7,4.6c1.3,1,2.7,2,3.9,3
	c1.6,1.4,3.2,2.9,4.8,4.3c1.1,0.9,2.3,1.6,3.4,2.5c0.9,0.7,1.7,1.5,2.5,2.3c0.9,0.8,1.6,2,2.6,2.4c1.8,0.6,3.1,2,4.6,3
	c1.2,0.8,2.2,1.9,3.3,2.8c0.9,0.8,1.8,1.8,2.8,2.3c1.5,0.6,1.4,1.6,1.4,2.8c0,0.8,0,1.6-0.1,2.4c-0.3,1.7-1.9,1.8-3.1,2.5
	c-0.5,0.3-1.1,0.4-1.6,0.7c-3.4,1.6-6.9,3.1-10.3,4.7c-3.1,1.5-6.1,3.1-9.2,4.7c-2,1-4,2.2-6.1,3.1c-0.4,0.2-1.3-0.2-1.8-0.6
	c-1.9-1.4-3.6-2.9-5.4-4.4c-0.3-0.2-0.6-0.5-0.9-0.7c-1.3-1-2.5-1.9-4.1-3.1c0,1.3-0.1,2.4,0,3.4c0.3,3.7,0.5,7.4,0.9,11
	c0.2,2.2,0.5,4.4,0.7,6.7c0.2,1.8,0.3,5.6,0.5,7.4c0.1,0.6-0.2,1.2-0.8,1c-0.4-0.1-1-0.7-1.1-1.2c-0.3-2.8-0.4-7.7-0.7-10.5
	c-0.2-2.4-0.5-4.8-0.6-7.2c-0.3-4.9-0.4-9.7-0.7-14.8c-0.7,0.4-1.3,0.7-1.9,1.1c-2.7,1.6-5.3,3.2-8,4.7c-2.7,1.6-5.5,3.1-8.3,4.6
	c-3.7,2-7.5,4-11.2,6.1c-2.6,1.5-4.9,3.3-7.5,4.8c-2.9,1.7-5.9,3.2-8.9,4.8c-3.3,1.8-6.7,3.4-10,5.2c-3.9,2.1-7.7,4.4-11.5,6.6
	c-0.8,0.5-1.6,1-2.3,1.6c-0.2,0.1-0.2,0.6-0.1,0.9c0.2,3,0.4,6,0.6,8.9c0.2,3.7,0.1,7.5,0.3,11.2c0.3,4.3,0.8,8.7,1.2,13.3
	c1.2-0.8,2.1-1.5,3-2c5-3,10-6.1,15-9.1c2.4-1.5,4.7-3.1,7-4.6c2.3-1.5,4.7-2.9,7-4.4c3.6-2.1,7.1-4.3,10.8-6.3
	c4.7-2.5,9.5-4.8,14.1-7.3c3.3-1.7,6.4-3.7,9.6-5.6c1.2-0.7,2.4-1.4,3.6-2.1c0.8-0.5,1.4-0.2,1.7,0.4c0.1,0.3-0.3,1.1-0.6,1.3
	c-4.1,2.4-8.3,4.9-12.5,7.2c-3.9,2.1-7.9,4-11.9,6.1c-3.6,1.9-7.2,3.9-10.7,6c-2.8,1.6-5.6,3.3-8.3,5c-1,0.6-1.8,1.4-2.7,2
	c-3.4,2.1-6.8,4.1-10.2,6.2c-4.3,2.7-8.6,5.4-12.8,8.2c-1.7,1.1-2.7,1.2-5.1-0.4c-4.5-3-9.1-6.1-13.6-9.2c-1.3-0.9-2.6-1.9-4.1-3
	c-0.3,6,1.1,11,5.1,15.1c2.2,2.3,4.9,3.7,7.6,5.1c3.8,1.9,7.7,3.3,12,3.1c2.5-0.1,5.2-0.1,7.6-0.8c3.7-1,7.3-2,10.7-4
	c4.8-2.7,9.7-5.4,14.8-7.7c3.3-1.5,6.8-2.4,10.3-3.4c1.2-0.4,2.4-0.6,3.6-0.6c4.1-0.2,8.2-0.3,12.3-0.5c3.4-0.2,6.8-0.3,10.2-1.3
	c5.2-1.6,9-4.7,11.8-9.4c1-1.7,2.3-3.4,3.7-4.8c2.4-2.4,4.1-5.2,5.8-8.1c1.2-1.9,2.3-4,3.9-5.6c1-1.1,2.6-1.7,4.1-2.2
	c2-0.6,4-0.9,6.1-1.3c-0.7-1.4-1.5-2.7-2.1-4.1c-1-2.4-2.1-4.8-2.7-7.3c-0.9-3.8-0.1-7.4,2.3-10.6c2-2.8,4.9-4.3,7.7-6
	c-0.2-1.1-0.5-2.1-0.5-3.1c0.1-1.5,0.3-3.1,0.8-4.5c0.3-0.7,1.3-1.3,2.1-1.7c1.7-0.9,3.6-0.7,5.5-0.7c3.7,0.1,7.3,0.1,11,0.2
	c2.8,0.1,5.7,0.1,8.3,0.8c2.4,0.7,4.6,0.2,6.2,2.4c4.7,0.3,2,0.2,5.7,0.8C273.2,275.3,274.9,274.3,274.9,274.3z M187.7,271
	c-0.3-0.1-0.6-0.2-0.9-0.4c-2.3-1.7-4.6-3.5-6.9-5.1c-2.4-1.6-4.9-3.1-7.3-4.7c-1.6-1-3.2-2-4.9-3.1c0.2,3.8,0.3,7.5,0.7,11.1
	c0.2,2-0.4,3.3-2.3,4c-0.9,0.3-1.7,0.8-2.6,1.1c-0.9,0.3-1,0.4-1.6,0.8c-0.6,0.4-0.6,0.3-1,0.7c-0.6,0.4-1.1,0.8-1.6,1.1
	c-1.7,0.8-3.5,1.5-5.2,2.3c-3.4,1.7-6.8,3.4-10.2,5.1c-4.2,2.1-8.3,4.2-12.4,6.4c-3.1,1.7-6.1,3.5-9.3,5.2c-0.9,0.4-1.4,1.5-2.8,1.2
	c-0.8-0.2-0.7-0.8-1.2-1.1c-4-2.9-7.9-5.7-11.9-8.6c-2.5-1.8-5-3.5-7.4-5.2c-0.2-0.1-0.5-0.2-0.7-0.1c-1.7,0.6-3.5,1.1-5.1,1.8
	c-1.2,0.5-2.1,1.2-3.4-0.2c-1.4-1.5-3.5-2.4-5.3-3.6c-2.8-1.8-5.4-3.4-8.2-5.1c-0.8-0.5-0.4-0.3-1.5-0.8c-0.1,0.1-1.4,0.7-1.6,0.8
	c-2.4,0.9-4.7,1.9-7.3,2.9c1,0.8,1.7,1.4,2.5,1.9c4.8,3,9.5,6,14.3,8.9c4.3,2.6,8.6,5.2,12.8,7.9c3.8,2.5,7.6,5.1,11.4,7.7
	c3,2,6.1,3.8,9,5.9c1.3,1,2.2,0.8,3.4,0.1c1.7-1,3.4-2,5.1-3c4.8-2.6,9.6-5.2,14.3-7.7c4.4-2.4,8.7-4.7,13.1-7.2
	c4.9-2.8,9.7-5.7,14.7-8.4c5.2-2.9,10.5-5.6,15.7-8.5C183.9,273.8,185.7,272.3,187.7,271c0.4,0.1,1,0.1,1.3,0.4
	c0.8,0.5,1.5,1.2,2.3,1.8c3.1,2.4,6.1,4.8,9.2,7.1c9.8-4.5,19.4-9.1,29.1-13.6c-1.7-1.4-3.1-2.6-4.5-3.7c-2.4-1.8-4.8-3.6-7.1-5.5
	c-3.2-2.5-6.4-5.1-9.6-7.7c-2.9-2.3-5.9-4.6-8.8-6.9c-1.3-1-2.5-2.2-3.8-3.1c-2-1.5-4.1-2.7-6.1-4.2c-4.3-3.4-8.6-6.9-12.7-10.5
	c-3.8-3.3-7.5-6.7-11.3-10c-0.4-0.3-1-0.5-1.5-0.7c0.2,1.3,0.4,2.4,0.5,3.4c0.3,2.6,0.4,5.2,0.7,7.8c0.3,3.3,0.7,6.6,0.9,9.9
	c0.2,3.2,0.3,6.4,0.5,9.6c0,0.3,0,0.6,0.1,0.8c1.8,1.6,3.6,3.1,5.4,4.6c2.3,1.9,4.5,3.7,6.8,5.6c0.6,0.5,1.1,1.2,1.7,1.7
	c0.5,0.4,1,0.8,1.6,1.1c0.4,0.2,1.1,0.4,1.4,0.2c1.4-0.9,2.8-2,4.2-3.1c-3.1-3.1-6.1-6.1-9.1-9.2c0.2-0.2,0.3-0.4,0.5-0.5
	c3.5,2.8,6.2,6.4,9.8,8.9c1-0.8,1.8-1.5,2.7-2.2c-2.5-2.2-4.9-4.3-7.3-6.4c0.1-0.1,0.2-0.3,0.4-0.4c2.1,1.7,4.3,3.4,6.5,5.1
	c0.5,0.4,1.2,0.9,1.6,0.8c0.9-0.4,1.7-1.2,2.7-1.9c-2.2-1.8-4.1-3.4-6.1-4.9c0.1-0.1,0.1-0.2,0.2-0.2c2.6,1.6,5.2,3.3,7.8,4.9
	c0.2,0.3,0.4,0.8,0.7,1.1c0.9,0.7,1.9,1.2,2.8,1.9c2.3,1.7,4.5,3.5,6.8,5.3c1.4,1.1,2.8,2.1,4,3.4c1.1,1.3,2.8,1.8,3.9,3.1
	c1,1.2,2.3,2.1,3.4,3.1c0.9-0.4,1.7-0.7,2.6-1.1c-2-1.6-3.7-2.9-5.4-4.4c-2.1-1.9-4.1-3.9-6.3-5.7c-4.3-3.4-8.7-6.5-13-9.9
	c-3.3-2.6-6.4-5.4-9.7-8c-2.8-2.3-5.8-4.5-8.6-6.8c-1.8-1.4-3.5-3-5.3-4.4c-2.3-1.8-4.6-3.6-6.9-5.5c-0.3-0.2-0.4-0.6-0.6-1
	c0.1-0.1,0.3-0.2,0.4-0.3c0.8,0.6,1.5,1.1,2.3,1.7c1.5,1.1,3.1,2.3,4.5,3.4c1.4,1.1,2.7,2.4,4.2,3.6c1.6,1.3,3.2,2.6,4.9,3.9
	c1.3,1,2.5,2,3.8,3c2.8,2.1,5.2,4.7,8.1,6.7c3.2,2.2,6,4.7,9.1,7c1.9,1.5,4,2.9,5.9,4.5c2,1.6,3.9,3.4,5.9,5.1
	c2.5,2.2,5.1,4.3,7.6,6.5c0.6,0.5,0.6,0.9-0.1,1.3c-1.2,0.6-2.4,1.1-3.6,1.7c-2.7,1.4-5.4,2.8-8.1,4.1c-2.6,1.2-5.3,2.2-8,3.3
	c-0.5,0.2-1.1,0.1-1.6-0.1c-0.8-0.4-1.5-1-2.2-1.6c-2.1-1.9-4.2-3.8-6.4-5.7c-1.9-1.7-3.9-3.4-5.8-5.1c-3.3-2.8-6.5-5.7-9.7-8.5
	c-2.9-2.5-5.8-4.9-8.8-7.3c-0.3-0.3-0.7-0.5-1.2-0.8c0.2,1.7,0.5,3.3,0.4,4.8c-0.2,2.3,0.7,3.8,2.6,4.9c0.6,0.3,1.2,0.5,1.7,0.9
	c3.4,2.2,6.8,4.3,10.2,6.5c2,1.3,4,2.8,5.9,4.2C188.7,269.5,188.6,270.4,187.7,271z M54.3,220.2c1.4,0.8,2.6,1.4,3.7,2.1
	c4.9,3.2,9.8,6.5,14.8,9.6c2.4,1.6,5,2.9,7.5,4.4c0.6,0.4,4.2,1.8,3.3,3.6c-0.5,1-3.6-1.1-4.3-1.6c-3.1-1.9-6.2-3.7-9.2-5.7
	c-3.5-2.3-7-4.6-10.4-7c-1.7-1.1-3.4-2.2-5-3.2c0,3.7-0.1,7.4,0,11c0.1,3.9,0.2,7.8,0.4,11.7c0.2,3.2,0.5,6.4,0.7,9.7
	c0.1,1.4,0.2,2.9,0.2,4.5c5.2,3.4,10,6.6,15.2,9.9c5.2,3.3,10.5,6.3,15.8,9.5c-0.5-3.2-1-6.2-1.4-9.3c-0.4-3.5-0.5-7.1-0.9-10.6
	c-0.3-3.9-0.7-7.8-1.1-11.8c-0.2-1.9-0.3-3.9-0.5-5.8c0-0.3-0.1-1.6-0.3-1.6c-1.6-1-1.7-1.1-1.5-1.6c0.1-0.4,1.2,0.1,1.7,0
	c1.8-0.6,3.6-1.1,5.3-1.8c1.7-0.6,3.2-1.6,4.9-2.2c2.1-0.8,4.3-1.2,6.3-2.3c5.5-3,10.8-6.2,16.2-9.3c3.9-2.2,7.7-4.7,11.1-7.7
	c2.3-2.1,4.8-3.9,6.9-6.1c4.3-4.3,8.5-8.6,12-13.6c2.2-3.2,4.5-6.3,6.9-9.7c-0.9-0.3-1.4-0.4-1.9-0.6c-2.6-1-5.1-2.1-7.7-3
	c-5.4-1.9-10.8-3.8-16.1-5.7c-4.7-1.7-9.4-3.3-14.2-4.9c-3.3-1.1-6.5-2.5-9.9-3.3c-3.4-0.8-6.7-2-10.1-3.1c-2.9-0.9-5.7-2-8.5-2.9
	c-0.9-0.3-1.8-0.6-2.9-0.9c0.2,1.5,0.4,2.7,0.6,4c0.2,2.4,0.8,4.9,0.5,7.2c-0.6,5-1.4,9.9-2.7,14.8c-1.2,4.6-2.4,9.2-4.9,13.3
	c-2,3.2-3.9,6.5-6.8,9c-3.2,2.8-6.5,5.5-9.7,8.2C57,218.4,55.7,219.1,54.3,220.2z M153.5,187.6c-2.2,3.2-4.2,6.3-6.4,9.2
	c-3,3.8-6.1,7.6-9.5,11.2c-2.9,3.1-6.1,5.8-9.3,8.6c-1.9,1.7-3.9,3.3-6,4.7c-3.1,2.1-6.3,4-9.5,5.9c-3.2,1.9-6.4,3.8-9.6,5.5
	c-2.8,1.5-5.8,2.5-8.9,3.4c-2.6,0.7-5.1,2-7.6,3c-1.8,0.7-1.8,0.8-1.5,2.8c1.2-0.3,2.4-0.7,3.6-1c1.4-0.4,2.8-0.7,4.1-1
	c2-0.5,4-1.1,6-1.5c0.3-0.1,1,0.5,1.2,1c0.2,0.6-0.3,0.8-0.9,0.9c-2.1,0.4-4.1,0.9-6.1,1.4c-2.6,0.7-5.2,1.4-8,2.1
	c0.1,1,0.2,1.8,0.4,2.7c2.5-0.6,4.8-1.2,7.1-1.8c1.8-0.4,3.6-0.9,5.4-1.4c0.9-0.2,1.5,0.2,1.7,0.9c0.2,0.8-0.4,1-1.1,1.1
	c-4.3,1-8.6,2-13,3c0.1,1.1,0.2,2.2,0.4,3.5c2.4-0.7,4.7-1.3,7-1.9c2.2-0.6,4.4-1.2,6.7-1.7c0.8-0.2,1.4,0.2,1.6,0.9
	c0.2,0.7-0.4,0.9-1.1,1c-4.5,1.1-8.9,2.2-13.3,3.4c-0.3,0.1-0.7,0.5-0.7,0.8c0,1,0.2,2,0.3,3.1c2.2-0.6,4.2-1.2,6.3-1.8
	c2.2-0.6,4.4-1.2,6.6-1.9c0.8-0.3,1.5-0.1,1.6,0.7c0,0.4-0.7,1-1.3,1.2c-4.1,1.3-8.2,2.5-12.3,3.7c-0.6,0.2-0.9,0.5-0.7,1.1
	c0.1,0.4,0.1,0.9,0.2,1.5c0.4-0.1,0.7-0.2,1.1-0.3c3.1-0.8,6.2-1.7,9.3-2.5c1.3-0.3,2.5-0.7,3.8-0.8c0.4,0,0.9,0.5,1.3,0.8
	c-0.3,0.4-0.6,1-1,1.1c-1.4,0.4-2.8,0.7-4.3,1c-3.1,0.8-6.2,1.5-9.3,2.4c-0.3,0.1-0.8,0.5-0.8,0.8c0,1,0.2,2,0.3,3.1
	c0.6-0.2,1.2-0.4,1.7-0.5c4.2-1.4,8.3-2.8,12.5-4.2c1-0.3,1.3,0.4,1.9,0.9c-0.4,0.3-0.7,0.7-1.1,1c-0.1,0.1-0.4,0.1-0.6,0.1
	c-2.8,0.8-5.6,1.5-8.3,2.4c-1.8,0.6-3.6,1.4-5.4,2.1c-0.2,0.1-0.5,0.4-0.5,0.6c0.1,0.6,0.2,1.2,0.4,1.8c0.2,0,0.4,0,0.5,0
	c4-1.4,7.9-2.8,11.9-4.1c1.6-0.6,2-0.4,2.7,0.9c-0.3,0.2-0.6,0.5-0.9,0.6c-1.5,0.7-3.1,0.7-4.7,1.4c-2.1,0.9-4.3,1.3-6.4,2
	c-0.9,0.3-1.8,0.7-2.4,1.3c-0.4,0.3-0.2,1.2-0.2,1.9c0,0.1,0.6,0.2,0.9,0.2c3.8-1.3,7.5-2.6,11.3-3.9c1.5-0.5,1.8-0.4,2.6,1.1
	c-0.5,0.2-0.9,0.5-1.4,0.7c-2.2,0.8-4.4,1.5-6.6,2.3c-1.5,0.5-3.1,0.8-4.6,1.4c-0.6,0.2-1.1,0.7-1.5,1.1c-0.3,0.4-0.2,1-0.3,1.5
	c0.7,0.5,1.4,1.1,2.2,1.6c0.2,0.1,0.6,0.1,0.9,0c0.5-0.1,1-0.4,1.4-0.6c3.1-1.2,6.3-2.4,9.4-3.6c2.6-1,5.1-2,7.7-2.8
	c3.9-1.2,7.8-2.4,11.8-3.5c2.9-0.7,5.9-1.3,8.8-1.6c2.9-0.3,5.9-0.1,8.8,0c5.8,0.1,11.6,0.7,17.2,2.3c1.3,0.4,2.6,0.7,4,1.1
	c-0.1-0.6-0.1-1.1-0.1-1.5c-0.2-2.7-0.4-5.3-0.7-8c-0.3-2.7-0.8-5.5-1.1-8.2c-0.3-2.4-0.4-4.9-0.6-7.4c-0.3-3.4-0.6-6.7-0.9-10.1
	c-0.2-3-0.3-6-0.5-9c-0.1-1-0.3-2-0.4-3.1c-0.3-2.3-0.6-4.7-0.8-7c-0.1-1.6-0.1-3.3-0.3-5c-0.5-4.5-1.2-8.9-1.6-13.4
	c-0.3-3.5-0.4-7-0.5-10.5C153.4,189.2,153.5,188.5,153.5,187.6z M251.9,133.6c-0.4,1.1-0.8,1.8-0.9,2.6c-0.6,3.8-1.3,7.6-1.8,11.4
	c-0.5,3.9,0.2,7.7,1.2,11.5c0.8,3.1,2.2,6.1,4,8.8c1.3,1.9,2.5,3.9,4.2,5.5c3.6,3.6,7.6,6.5,12.7,7.6c5.1,1.1,10,1.5,15-0.3
	c4.8-1.7,8.8-4.5,12.2-8.2c1.3-1.5,2.4-3.2,3.7-4.7c0.2-0.3,1-0.5,1.1-0.4c0.4,0.4,0.6,0.9,0.7,1.4c0.1,0.3-0.2,0.7-0.4,0.9
	c-1.4,1.7-2.9,3.4-4.4,5c-0.9,1-0.9,1.3-1.2,3c0,0.4-0.1,1.1-0.1,1.3c-0.3,3.9-0.8,7.9-2.6,11.5c-0.3,0.5-0.8,1.1-1.4,1.2
	c-0.5,0.1-3.3,0.7-1.7-0.6s3.9-9.4,3.4-12.8c-3.1,1.6-6.3,3.1-9.6,4.8c0.5,3.1,1.2,6.5,3,9.4c2.2,3.7,6.4,7,12.1,4.2
	c5-2.5,9.5-5.4,12.9-9.8c2.2-2.8,4.6-5.3,6.8-8c1.1-1.3,1.8-2.9,1.8-4.6c-0.6-0.2-1.1-0.6-1.5-1c-0.5-0.4-0.9-0.9-1.4-1.3
	c-2.9-2-5.7-4.2-7.8-7c-2.9-3.7-3.8-8.1-3.9-12.7c0-0.8,0.2-1.6,1.2-1.7c0.9,0,1.6,0.3,1.9,1.4c1,3.5,5.4,4.9,8.3,2.5
	c0.8-0.6,1.5-1.4,1.5-2.5c0.1-2.2,0-4.4,0.3-6.6c0.2-1.7,0.6-3.4,1.4-5c1-2.2,1.7-4.4,1.4-6.8c-0.4-3.7-2.7-5-5.8-3.5
	c-3.7,1.8-5.9,4.9-7.4,8.5c-0.3,0.7-0.4,1.6-0.8,2.3c-0.2,0.4-0.5,1.1-1.1,0.9c-0.6-0.2-0.9-0.9-0.9-1.4c0-2.9,0-5.9,1.3-8.6
	c0.6-1.2,1-2.5,1.5-4c-1,0.1-1.6,0.2-2.3,0.2c-1,0.1-2,0.3-3,0.3c-1.1-0.1-1.1,0.2-1.5,1.3c-1.3,3.6-4.5,6.2-7.9,7.8
	c-3.4,1.6-6.9,0.6-10.1-1c-3.4-1.7-5.8-4.3-6.2-8.3c-0.2-1.7-0.4-3.5-0.6-4.9c-0.8-0.5-1.5-0.9-2.1-1.4c-1.2-1-2.5-1.7-4.1-1.7
	c-0.3,0-0.8,0.3-1,0.6c-1.4,2.8-2.6,5.6-2.8,8.8c-0.1,4.1-1.1,7.9-3.1,11.5c-1.3,2.4-0.4,5.3,2,6.6c3.8,2,7.5,1.5,11.1-0.3
	c0.6-0.3,1.2-0.8,1.8-1.1c0.6-0.3,1.5-0.6,2,0.1c0.5,0.8-0.1,1.3-0.8,1.6c-0.3,0.1-0.6,0.2-0.8,0.4c-4.5,2.7-9.1,3.1-13.9,0.7
	c-3.3-1.7-5.2-6-2.9-9.6c1.1-1.7,1.4-3.8,2.3-5.7c0,0,0,0,0,0c-2.3,2.2-5.1,2.6-7.9,2.7C256.4,136.7,254,135.6,251.9,133.6z
	 M101.1,309.3c1.8,1.1,3.4,2,4.9,3c1.5,1,3,2,4.3,3.2c1.5,1.4,1.7,3.1,0.7,4.9c-0.4,0.6-1.2,1-1.5,1.6c-1.4,2.5-3.4,3.3-6.1,2.8
	c-0.3-0.1-0.8,0.1-0.9,0.3c-0.4,0.7-0.8,1.4-1,2.1c-0.6,1.7-0.8,3.5-1.6,5.1c-0.7,1.4,0.1,1.9,0.9,2.5c4.4,3,8.8,5.9,13.2,8.8
	c1.2,0.8,2.3,1.5,3.8,2.5c-0.3-1.9-0.6-3.5-0.7-5c-0.3-4.3-0.5-8.6-0.7-12.9c-0.2-4.9-0.5-9.8-0.6-14.7c0-1-0.2-1.5-1.2-1.9
	c-0.7-0.3-1.4-0.8-2-1.2c-3.8-2.7-7.5-5.4-11.2-8c-2.1-1.4-4.3-2.7-6.4-4.1c-1.7-1.1-3.3-2.1-5-3.2c-2.2-1.4-4.4-2.9-6.7-4.2
	c-2-1.2-4.1-2.2-6-3.4c-1.8-1.1-3.4-2.3-5.2-3.4c-1.4-0.9-2.8-1.7-4.2-2.6c-1.1-0.7-2.1-1.6-3.4-2.5c0.2,2.7,0.4,5.2,0.5,7.6
	c0.2,3.2,0.5,6.5,0.7,9.7c0.3,4.4,0.6,8.7,0.7,13.1c0,0.9,0.3,1.5,1,2c4.7,3.3,9.4,6.5,14,9.8c4,2.9,8,5.8,12.1,8.6
	c1,0.7,2,1.4,3.1,2.1c0.8-2.9,1.8-5.6,3.4-8c0.1-0.2,0-0.7-0.1-0.9c-1.2-1.3-1.8-2.7-1.7-4.5C98.3,315.1,99.5,312.2,101.1,309.3z
	 M305,124.7c2.3,0,4.4,0,6.5,0c0.3,0,0.8-0.2,0.9-0.4c1.5-2.9,3-5.9,4.4-8.8c2.4-5,2.6-10.1-0.3-14.9c-1.9-3.2-4.5-5.2-8.4-5.1
	c-4.7,0.1-9.1,1.4-13.3,3.4c-5.4,2.7-11.1,3.7-17,4c-2.3,0.1-4.6-0.1-6.9-0.2c-3.8-0.2-7.2-1.7-10.5-3.6c-1.1-0.6-2.2-1.5-3.4-2.3
	c-0.3,1.6-0.7,3.1-0.9,4.5c-0.4,2.6-0.1,5.2,0.4,7.8c0.1,0.6,0.4,0.8,1,0.6c4-1,7.6-0.2,10.6,2.6c1.6,1.4,3.3,2.9,3.3,5.3
	c0,0.1,0.5,0.4,0.7,0.3c2.9-0.2,5.3,0.9,7.7,2.3c0.6-1.1,1.3-2.1,1.9-3.2c1.4-2.5,3.5-4.2,6.3-4.8c1.8-0.4,3.6-0.6,5.4-0.2
	c3.2,0.7,6.4,2.2,8.5,4.5C303.7,118.8,305,121.6,305,124.7z M237.2,228c2.7-3.8,5.2-7.6,4.8-12.3c-4.2,2.6-8.7,4-13.5,4.2
	c0.8,1.7,1.6,3.4,2.5,5c0.7,1.4,1.5,2.8,2.3,4.1c1.2,1.8,2.5,3.6,2.9,5.8c0.2,1,0.6,2,1.6,2.3c2.2,0.8,3.7,2.4,5.4,3.8
	c2.7,2.1,5.2,4.4,8.2,6.2c4.9,2.8,10.2,4.9,14.9,8.1c1.6,1.1,2.8,0.8,3.6-1.2c0.3-0.7,0.7-1.4,1.2-1.9c1.2-1.1,2.5-2.1,3.8-3.2
	c0.6-0.5,1.3-1.1,1.4-1.8c0.3-2.2,0.4-4.4,0.4-6.7c-0.1-2.7-0.3-5.4-0.7-8.1c-0.4-2.7-0.9-5.5-1.5-8.2c-0.1-0.4-0.6-0.8-1-0.9
	c-1-0.3-2-0.3-3-0.6c-2.8-0.7-5.5-1.6-8.4-2.4c0.1,0.6,0.3,1.2,0.5,1.8c0.8,2.6,1.5,5.2,2.3,7.8c0.1,0.3,0.4,0.6,0.7,0.7
	c1.5,0.8,3,1.5,4.5,2.2c0.8,0.4,1.3,1,0.9,1.9c-0.4,0.9-1.1,0.4-1.7,0.1c-0.4-0.2-0.8-0.4-1.2-0.6c-3.2-1.4-6.3-2.8-9.5-4.1
	c-2.8-1.1-5.8-1.9-8.6-3.1c-2.7-1.2-5.2-2.7-7.6-4c-1,1.3-2.1,2.6-2.9,4C239,228.2,238.4,228.3,237.2,228z M105.7,278.7
	c0,0.2,0,0.4-0.1,0.5c2,1.5,3.9,3,5.9,4.4c2,1.5,4,3,6,4.5c0.3,0.2,1,0.3,1.4,0.1c2-1.1,4.1-1.9,6.1-2.9c4.9-2.6,9.9-5.2,14.8-7.7
	c3.1-1.6,6.4-3.1,9.5-4.6c-2.9-0.5-5.7-0.9-8.6-1c-2.6-0.2-5.2-0.3-7.7-0.1c-3.3,0.3-6.6,1-9.9,1.6c-1.8,0.4-3.5,1-5.3,1.5
	c-2.1,0.6-4.1,1.1-6.2,1.7C109.7,277.3,107.7,278,105.7,278.7z M266.7,132c0.2-0.4,0.4-1.2,0.5-1.9c0.2-2.7,0.7-5.3,1.9-7.7
	c1.7-3.4,0.5-7.9-3-9.8c-3-1.6-10-0.9-10.6-0.6c-1.8,0-3.5,2.5-4.3,3.6c-1.6,2.2-1.6,5-1.9,7.6c-0.1,1.1-0.1,2.4,0.2,3.4
	c0.8,2.7,2.5,4.6,4.7,6.3c2.8,2.2,8.2,1.9,10,1.2S266.1,132.9,266.7,132z M281.4,125.1c0.1,0.8,0.1,1.6,0.3,2.4
	c0.4,2.4,1,4.8,3.3,6.2c0.9,0.5,1.9,1,2.8,1.6c2.2,1.4,5.2,1.9,7.4,0.8c4.1-2,6.5-5.4,7.5-10c0.7-3.4-0.8-7.2-3.8-9
	c-1.8-1.1-3.6-2.2-4.6-2.5c-1-0.3-1.9-0.6-3.4-0.7s-3.9,0.5-5.3,1.8C283,118.2,281.3,121.2,281.4,125.1z M231.9,170.8
	c-0.6,0-1.3,0.1-1.8-0.1c-0.4-0.2-0.7-0.7-1-1.1c0.4-0.2,0.7-0.4,1.1-0.5c0.4-0.1,0.8,0,1.1-0.1c2.6-0.6,3.9-2.2,4.6-4.8
	c1.4-5.7-0.4-10.7-5.2-13.8c-2.2-1.4-4.3-0.7-5.2,1.7c-0.3,0.8-0.6,1.6-0.7,2.5c-0.3,3.3-0.1,6.7,0.6,9.9c0.8,3.8,1.2,7.6-0.8,11.2
	c-0.7,1.2-1.3,2.5-1.9,3.6c3.2,0,6.4,0,9.7,0C231.1,174.6,231.5,174.9,231.9,170.8z M251.1,316.8c0.8-1,1.3-1.9,2.1-2.7
	c1.2-1.3,1.3-1.7,0.6-3.2c-0.1-0.3-0.3-0.7-0.3-1c-0.2-1.1-0.7-1.3-1.7-0.8c-2.9,1.6-6.1,1.8-9.3,1.9c-2.5,0-4.1-1.3-5.3-3.2
	c-1-1.5-0.9-3.5,0.3-4.5c1.5-1.2,3.2-2.4,4.9-3.4c1.6-0.9,3.4-1.4,5-2c0.1,0,0.1-0.1,0.2-0.3c-0.1-0.2-0.3-0.5-0.4-0.6
	c-0.6,0.2-1.1,0.3-1.6,0.4c-1.4,0.3-2.9,0.4-4.2,0.9c-1.7,0.7-3.2,1.7-4.8,2.5c-1.8,0.9-3.3,2.3-4.4,4.1c-1.3,2-2,4.1-0.3,6.2
	c0.9,1.1,1.7,2.2,2.6,3.3c3.4,4.1,7.5,5.4,12.7,3.7C248.6,317.8,250,317.2,251.1,316.8z M227.1,193c0-0.1,0-0.2,0.1-0.3
	c0.4,0,0.7,0,1.1,0c1.7-0.3,3.5-0.3,5.1-0.9c2.4-1,3.4-3.2,4.2-5.6c0.6-1.9-1.1-5.1-3.3-5.2c-2.8-0.2-5.7-0.2-8.5-0.2
	c-1.4,0-2.7,0.2-4.1,0.3c-2.5,0.2-2.9,0.3-3.2,2.2c-0.5,2.6-0.1,5.2,1.1,7.5c0.2,0.5,0.9,1,1.4,1.1C222.9,192.4,225,192.6,227.1,193
	z M319.2,169.3c-0.1,0.1,1.3,0.7,1.3,0.8c0.9,0.6,1.8,1.2,2.8,1.7c1.3,0.6,1.9,1.8,1.8,3c-0.3,1.9-0.8,3.8-2.1,5.3
	c-2,2.5-4,5-6.1,7.4c-1.9,2.1-3.9,4.3-6,6.1c-3,2.6-6.5,4.4-10.2,5.7c-1.7,0.6-3.4,0.9-5.1,0.2c-5.4-2-8.8-5.8-10.3-11.4
	c-0.4-1.5-0.8-3-1.2-4.6c-0.8,0.1-1.4,0.1-2.1,0.2c0.2,1,0.4,1.9,0.7,2.7c0.9,2.6,1.7,5.3,3,7.7c1,1.9,2.6,3.6,4,5.2
	c2.3,2.6,5.2,4.1,8.9,3.3c3.6-0.7,6.8-2.3,9.7-4.5c3.2-2.4,6-5.3,8.9-8c2.1-2,4.2-4,6.1-6.2c2.2-2.6,4.9-8.4,4.5-10.1
	c-0.6-2.6-2.4-2.7-4-3.3S320.2,169.7,319.2,169.3z M236.8,191.9c-0.3,0.2-0.6,0.3-0.8,0.5c-1.6,1.2-3.5,1.6-5.5,1.7
	c-2.9,0.1-5.9,0-8.8,0.1c-0.3,0-0.9,0.3-0.9,0.6c-0.3,1.8-0.7,3.6-0.8,5.4c-0.1,2.1,1.4,4,3.1,4c4.9,0.2,9.5-0.7,13.3-4.1
	c0.4-0.4,0.8-1,1-1.5C238.2,196.3,237.5,194.1,236.8,191.9z M278.3,232.8c2.2-1,3.6-2.5,4.7-4.3c1.6-2.7,1.9-5.7,1.1-8.6
	c-0.6-2.2-1.4-4.4-3.2-6c-1.4-1.2-3-1.7-4.7-2c-1.1-0.2-2.3-0.4-3.7-0.7C275.3,218.4,277.6,225.4,278.3,232.8z M151.6,273
	c0.3,1.4-0.5,1.9-1.5,2.2c-2.4,0.7-4.6,2-6.8,3.1c-5.1,2.6-10.2,5.3-15.3,7.9c-3,1.5-6.1,2.9-9.1,4.3c0.3,1.3,0.5,2.5,0.7,3.7
	c12.8-6.6,25.4-13.1,38.1-19.6C155.7,274,153.7,273.5,151.6,273z M308.7,229.6c0.5,1.2,0.3,2.9,1.9,3.3c3.2,0.9,6.3,1.9,9.5,2.6
	c2.5,0.5,5.2,0.9,7.8,0.7c4.9-0.3,9.7-1.4,14.3-3c1.1-0.4,2.3-0.7,3.2-1.4c1.6-1.2,1.6-3.3,0.4-5.6c-0.6,1.9-12.2,6-18,6.4
	C321.2,233,314.8,232.7,308.7,229.6z M238.9,284c-0.7-1.6-1.7-2-3.2-1.2c-1,0.5-2,1-3,1.6c-3.3,1.8-5.9,4.2-7,8
	c-0.8,2.5-0.7,5,0.3,7.4c0.9,2.3,1.9,4.6,2.9,6.9c0.1,0,0.2,0,0.3-0.1c1.5-5.8,6.5-8,11.2-10.5c-0.3-0.1-0.4,0-0.6,0
	c-3.2,0.6-6.3,0.3-8.8-2.1c-2.7-2.7-2.1-5.9,1.2-7.7C234.2,285.2,236.6,284.8,238.9,284z M222.4,205.7c0,1.3,0,2.5,0,3.7
	c0,2.2,1.6,3.4,3.5,3.3c0.7,0,1.4-0.1,2-0.3c1.8-0.5,3.5-1.1,5.3-1.8c4.2-1.5,4.5-2.1,5-5.9c0.1-1.2-0.3-2-1.2-2.8
	C232.7,205.2,227.7,205.8,222.4,205.7z M239,210.1c-2.2,0.9-4,1.7-5.8,2.3c-2.2,0.7-4.5,1.2-6.7,1.9c-0.3,0.1-0.8,0.2-0.9,0.4
	c-0.6,0.9,0.6,3.5,1.7,3.6c2.1,0.4,4.1,0,6.1-0.6c1.4-0.4,2.8-0.8,4.2-1.4c2.5-1.1,3.4-1.8,2.6-4.5
	C239.9,211.1,239.3,210.5,239,210.1z M206.2,279.8c-0.4,0.1-0.9,0.1-1.4,0.2c-0.6,0.2-1.1,0.6-1.7,0.8c-1.9,0.8-2.3,1.6-1.8,3.8
	c1.4-0.7,2.8-1.5,4.2-2.2c4.8-2.4,9.6-4.7,14.5-7c3-1.4,5.9-2.8,8.9-4.2c1.1-0.6,1.5-1.6,1.2-3c-2.5,1.2-4.9,2.6-7.4,3.7
	c-5,2.3-10.1,4.5-15.2,6.8C207.1,279.1,206.7,279.5,206.2,279.8z M276,250.1c-1.4,1-2.7,1.9-3.9,2.9c-0.3,0.3-0.4,0.9-0.5,1.3
	c-0.3,0.6-0.4,1.2-0.8,1.7c-1.7,1.9-4,1.9-6.1,0.4c-1.3-1-0.5-0.3-1.8-1.2c3.3,3.6,4.3,5.6,8.9,9.5C273.4,262,276.1,253.1,276,250.1
	z M251.8,208.2c-0.1,0.1-0.3,0.1-0.4,0.2c0.4,1.2,0.4,2.7,1.2,3.6c1.7,2,3.8,3.7,6.4,4.6c3.3,1.2,6.6,2.5,9.9,3.7
	c1.5,0.5,3.1,0.6,4.8,1c-0.3-1-0.5-1.8-0.8-2.5c-0.1-0.3-0.5-0.6-0.9-0.7c-1.2-0.3-2.5-0.3-3.6-0.8c-2.2-0.8-4.3-1.8-6.4-2.8
	c-2.1-1-4.3-1.9-6.1-3.7C254.7,209.8,253.2,209.1,251.8,208.2z M286.1,244.5c3.1-1.9,4.9-4.8,7.2-7.3c-1.5-1.3-2.8-2.5-4.2-3.8
	c-1.7,1.8-3.4,3.6-5.1,5.4c-1,1.1-1,2,0,3.3C284.6,243,285.4,243.7,286.1,244.5z M256.6,273.6c-4-0.1-8.1-0.2-12.1-0.3
	c-0.6,0-1.1,0.2-1.3,0.9c-0.1,0.3-0.6,0.7-1,0.8c-1.2,0.1-2.3-0.1-3.5-0.1c-0.8,0-1.5,0-1.7-0.9c-2.1,1-2.7,3.7-1.5,6.5
	C242,276.7,249.1,274.8,256.6,273.6z M117.8,293.3c-0.6-1.6-0.5-3.2-2-4.2c-1.8-1.2-3.6-2.6-5.4-3.9c-2.2-1.7-4.2-3.4-6.4-5.1
	c-0.3-0.2-0.8-0.5-1-0.4c-0.9,0.3-1.8,0.7-2.7,1.2C106.2,284.9,111.9,289,117.8,293.3z M239,281.2c0.7,0.8,1.4,1.5,2.1,2.1
	c0.2,0.2,0.6,0.3,0.8,0.2c1.5-0.5,3.1-1,4.6-1.7c2.6-1.4,5.2-3,7.7-4.5c0.6-0.4,1.1-0.9,1.7-1.4C251.4,276.2,241.8,279.1,239,281.2z
	 M184.4,260c0.5,0.7,0.9,1.3,1.4,1.9c0.7,0.9,1.5,1.7,2.3,2.5c0.3,0.3,1,0.4,1.3,0.2c1.5-0.8,2.8-1.8,4.4-2.9
	c-1.7-1.5-3.2-3-4.8-4.4c-0.2-0.2-0.7-0.2-0.9-0.1C186.8,258.1,185.4,259.1,184.4,260z M199.6,284.7c0.5-1.3,0.4-2.2-0.3-3.2
	c-0.9-1.5-2.3-2.3-3.7-3.2c-0.4-0.3-0.8-0.6-1.2-0.9c-1.6-1.5-3.3-2.9-5.3-3.9c0,0-0.1,0,0,0c0,0.7-0.1,1.5,0,2.1
	c0.1,0.4,0.3,0.9,0.5,1.1c2.3,1.9,4.7,3.7,7,5.6C197.7,283.1,198.6,283.9,199.6,284.7z M256,311.6c3-1.9,9.5-8.3,9.7-10.1
	c-1,0.7-2,1.4-3.1,2c-2.4,1.4-4.8,2.7-7.2,4c-0.3,0.2-0.7,0.7-0.6,0.9C255.1,309.5,255.6,310.5,256,311.6z M193.3,253.2
	c1.5,1.4,2.9,2.8,4.4,4.1c0.3,0.2,1,0.2,1.3,0c0.9-0.6,1.7-1.4,2.7-2.2c-1.1-0.8-2.1-1.7-3.1-2.4c-0.8-0.6-1.7-1.6-2.5-1.5
	c-0.9,0.1-1.7,1.1-2.6,1.8C193.4,252.9,193.4,253,193.3,253.2z M207.8,259.8c-1.8-1.4-3.5-2.7-5.2-4c-1,0.8-1.9,1.5-2.8,2.2
	c-0.5,0.4-0.6,0.7,0.1,1.2c1.2,0.9,2.2,1.9,3.3,2.8c0.2,0.2,0.8,0.3,1.1,0.1C205.4,261.4,206.5,260.6,207.8,259.8z M204.6,263
	c1.4,1.3,2.7,2.4,4,3.5c0.3,0.2,1,0.1,1.4-0.1c1.1-0.6,2.1-1.4,3.1-2.1c-1.5-1.2-2.9-2.5-4.4-3.7C207.3,261.3,206,262.1,204.6,263z
	 M208,267.5c-1.4-1.2-2.6-2.3-3.8-3.3c-0.2-0.2-0.7-0.3-0.9-0.2c-1.2,0.7-2.4,1.5-3.9,2.5c1.4,1.3,2.6,2.6,3.8,3.7
	C204.9,269.3,206.4,268.4,208,267.5z M189.8,265.6c1,0.9,2.1,1.5,2.8,2.5c0.7,0.9,1.2,0.7,1.8,0.3c0.8-0.5,1.5-0.9,2.3-1.4
	c0.4-0.2,0.7-0.5,1.1-0.7c-1.2-1.3-2.2-2.5-3.3-3.7C193,263.5,191.6,264.4,189.8,265.6z M189.4,256.1c1.6,1.8,3.2,3.5,4.7,5.2
	c1.4-1.1,2.4-1.9,3.3-2.6c-1.8-1.7-3.5-3.3-5.2-4.9C191.3,254.5,190.5,255.2,189.4,256.1z M209,268.3c-1.6,0.9-3.1,1.7-4.8,2.6
	c0.8,0.9,1.5,1.5,2.1,2.3c0.6,0.7,1.1,0.6,1.8,0.3c1.5-0.8,2.9-1.5,4.4-2.4C211.2,270.1,210.1,269.2,209,268.3z M198.3,259.3
	c-1,0.8-1.9,1.6-2.9,2.4c1.1,1.2,2,2.3,3,3.3c0.3,0.3,0.9,0.4,1.2,0.2c1.1-0.6,2.1-1.4,3.3-2.2C201.4,261.8,199.9,260.6,198.3,259.3
	z M217.9,268.3c-1.2-1-2.2-1.9-3.2-2.7c-0.2-0.2-0.7-0.4-0.9-0.3c-1.2,0.6-2.3,1.3-3.4,2.1c-0.2,0.1-0.2,0.7-0.1,0.8
	c0.8,0.7,1.7,1.3,2.5,1.9c0.2,0.2,0.5,0.4,0.7,0.4C215.1,270,216.5,269.4,217.9,268.3z M198.8,267c-1.6,0.9-3,1.8-4.3,2.6
	c0.9,0.8,1.9,1.7,2.9,2.5c0.4,0.3,1,0.4,1.4,0.3c0.7-0.2,1.4-0.6,2.1-1c0.5-0.2,0.9-0.5,1.3-0.7C200.9,269.4,199.8,268.2,198.8,267z
	 M286.5,225.6c-0.7,1.6-1.6,3.6-2.5,5.7c0.6,0.7,1.4,1.5,2.2,2.4c0.7-0.7,1.4-1.2,1.7-1.6C287.4,229.7,286.9,227.4,286.5,225.6z
	 M256.1,291.5c0-0.1-0.1-0.1-0.1-0.2c-2.7,1-5.5,2-8.3,3c0.4,0.7,0.8,1.3,1.1,1.9c0.4,0.6,0.7,0.7,1.3,0.2c1.2-1,2.5-2,3.8-3
	C254.7,292.7,255.4,292.1,256.1,291.5z M205.6,274.6c-0.6-0.9-1-1.5-1.4-1.9c-1-1.2-1.1-1.2-2.5-0.5c-0.6,0.3-1.3,0.6-1.9,1
	c-0.2,0.1-0.5,0.7-0.5,0.7c0.7,0.6,1.5,1.7,2.3,1.7C202.9,275.6,204.1,275,205.6,274.6z M240.8,209.7c1.3-2.1,0.5-8-1.3-10.3
	c-0.3,0.6-0.6,1.2-0.9,1.7c1.8,1.8,1.9,2.4,1.6,5C240.1,207.2,239.4,208.6,240.8,209.7z"/>
<linearGradient id="SVGID_7_" gradientUnits="userSpaceOnUse" x1="24.344" y1="284.1573" x2="276.344" y2="-16.3645">
	<stop  offset="0" style="stop-color:#9E2DDC"/>
	<stop  offset="1" style="stop-color:#0D6AD9"/>
</linearGradient>
<path class="st6" d="M155,185.8c-1.1-0.7,0.5-3.2,1.7-4.7c-1.6-0.3-3.2-0.5-4.7-0.9c-3.2-0.8-6.5-1.7-9.7-2.6
	c-2.7-0.8-5.4-1.5-8-2.4c-2.3-0.8-4.5-1.7-6.7-2.5c-2.9-1.1-5.7-2.2-8.6-3.2c-3.1-1.1-6.3-2.2-9.4-3.3c-3.7-1.3-7.3-2.7-11-4
	c-3.5-1.2-7.1-2.4-10.6-3.7c-0.3-0.1-0.5-0.2-0.8-0.4c-0.6-0.4-1-0.3-1.6,0.2c-1.4,1.2-3,2.1-5,2.4c-0.5-1.6,0.7-1.9,1.6-2.5
	c1.3-0.8,2.5-1.5,3.8-2.2c0.5-0.2,1.2-0.1,1.7,0c4.1,1.4,8.2,2.8,12.2,4.3c4,1.4,8,3,12.1,4.4c3.8,1.3,7.6,2.5,11.3,3.9
	c3.9,1.5,7.8,3.1,11.6,4.6c1.3,0.5,2.6,1.2,3.9,1.6c2.3,0.8,4.7,1.4,7.1,2.1c2.5,0.7,4.9,1.3,7.4,1.9c1.4,0.3,2.9,0.5,4.3,0.8
	c0.9,0.2,1.3,1.7,0.7,2.3C157.8,182.7,155.6,185.2,155,185.8z"/>
<linearGradient id="SVGID_8_" gradientUnits="userSpaceOnUse" x1="154.4203" y1="393.2317" x2="406.4203" y2="92.71">
	<stop  offset="0" style="stop-color:#9E2DDC"/>
	<stop  offset="1" style="stop-color:#0D6AD9"/>
</linearGradient>
<path class="st7" d="M297,219.2c-2.2-0.1-5.4,1.3-4.4,5.4c0.6,2.1,3,3.5,5.3,3.2c1.7-0.2,3.2-2.3,3.3-4.3
	C301.3,221.5,299.7,219.3,297,219.2z"/>
<linearGradient id="SVGID_9_" gradientUnits="userSpaceOnUse" x1="163.4196" y1="400.778" x2="415.4196" y2="100.2562">
	<stop  offset="0" style="stop-color:#9E2DDC"/>
	<stop  offset="1" style="stop-color:#0D6AD9"/>
</linearGradient>
<path class="st8" d="M245.6,307.1c-0.2,0.3-0.4,0.7-0.5,0.7c-0.4-0.1-1-0.2-1.1-0.4c-0.6-1.8-1.7-1.7-3-0.8
	c-0.2,0.2-0.6,0.2-0.9,0.1c-0.4-0.1-0.8-0.3-1.2-0.5c0.3-0.3,0.5-0.7,0.8-0.8c0.8-0.4,1.6-0.7,2.4-1.1c0.8-0.4,1.5-0.2,2,0.5
	C244.6,305.5,245.1,306.3,245.6,307.1z"/>
<linearGradient id="SVGID_10_" gradientUnits="userSpaceOnUse" x1="151.3635" y1="390.6684" x2="403.3635" y2="90.1467">
	<stop  offset="0" style="stop-color:#9E2DDC"/>
	<stop  offset="1" style="stop-color:#0D6AD9"/>
</linearGradient>
<path class="st9" d="M236.8,292.4c-0.7-1.5-1.9-1.7-3.3-1.4c-0.2,0-0.6-0.5-0.8-0.8c-0.1-0.1,0.4-0.7,0.6-0.7c0.9-0.2,2-0.5,2.9-0.3
	C237.6,289.5,238,291.2,236.8,292.4z"/>
<linearGradient id="SVGID_11_" gradientUnits="userSpaceOnUse" x1="177.6908" y1="412.7449" x2="429.6907" y2="112.2232">
	<stop  offset="0" style="stop-color:#9E2DDC"/>
	<stop  offset="1" style="stop-color:#0D6AD9"/>
</linearGradient>
<path class="st10" d="M257.1,317.5c-0.4,0.3-0.7,0.6-1,0.7c-0.3,0.1-0.6,0-0.9-0.2c-0.1-0.1-0.1-0.5,0-0.7c0.6-1.6,0.7-1.7,2.4-1.2
	c0.8,0.2,1.6,0.8,2.3,1.3c0.2,0.1,0.1,0.7,0,0.9c-0.1,0.2-0.6,0.3-0.9,0.2C258.3,318.2,257.7,317.8,257.1,317.5z"/>
<linearGradient id="SVGID_12_" gradientUnits="userSpaceOnUse" x1="110.1645" y1="356.1213" x2="362.1645" y2="55.5996">
	<stop  offset="0" style="stop-color:#9E2DDC"/>
	<stop  offset="1" style="stop-color:#0D6AD9"/>
</linearGradient>
<path class="st11" d="M276.2,177.8c-3.3-0.2-6.5-0.6-9.5-1.9c-1.6-0.7-3.1-1.7-4.5-2.8c-3.3-2.6-6.1-5.7-7.9-9.5
	c-1.8-4-2.8-8.2-1.1-12.6c0.4-1.2,1.3-1.8,2.4-1.9c2.8-0.2,5.4,0.3,7.7,2.2c2,1.7,4.6,2.2,7.1,3c5.4,1.7,10.3,0.3,14.9-2.5
	c1.7-1,3.3-2.2,4.8-3.5c3.2-3,8.1-1.3,9.9,2.5c0.4,0.8,1,1.5,1.2,2.3c0.3,1.5,0.5,3.1,0.3,4.7c-0.4,4.3-2.4,7.9-5.2,11.1
	c-3.3,3.8-7.4,6.2-12.1,7.5C281.6,177.2,278.8,177.4,276.2,177.8z M258.5,151c-2-0.6-3.2,0-3.6,1.5c-0.2,0.8-0.2,1.7-0.4,2.5
	c-0.5,3.1,0.6,5.9,1.8,8.7c1.2,2.6,3.3,4.5,5.2,6.5c2.2,2.3,4.9,3.8,7.9,4.8c1.4-2.7,3.5-4.1,6.5-4.4c1.2-0.1,2.5,0.1,3.6-0.3
	c3.3-1.1,6.7-2,10.2-1.6c0.8,0.1,1.6,0.6,2.6,1c3.4-3.2,6.5-6.9,7.1-12.2c-1.2,0.9-2.2,1.8-3.3,2.6c-1.8,1.3-3.5,2.7-5.4,3.7
	c-4.3,2.3-9,3.2-13.9,3.4c-5.8,0.2-11.2-1-16-4.3c-0.8-0.5-1.4-1.6-2.2-1.8c-1.4-0.4-1.4-1.4-1.5-2.5c-0.1-1.1,0-2.3-0.9-3.2
	c-0.7-0.7,0-1.4,0.4-2C257.2,152.7,257.8,151.9,258.5,151z M298.1,151.2c-0.7,0.6-1.5,1.2-2.1,1.7c-0.2,0.1-0.4,0.5-0.3,0.6
	c0.4,1-0.1,1.7-0.7,2.5c-1,1.4-1.3,1.5-2.7,0.4c-0.3-0.3-1-0.4-1.3-0.2c-1.4,0.6-2.7,1.4-4,2.1c0.8,1.3-0.1,2.2-0.9,2.9
	c-0.4,0.4-1.8,0.3-2.1,0c-0.9-1.1-1.9-0.6-2.8-0.5c-0.9,0.1-1.9,0.4-2.8,0.7c-0.6,0.2-1.2,0.6-1.7,1.1c-1.3,1-2.9,1.5-4-0.2
	c-0.1-0.2-0.4-0.4-0.7-0.4c-1.6-0.2-3.3-0.4-5-0.6c-0.3,0-0.7-0.1-0.9,0.1c-0.9,0.7-1.6,0.3-2.3-0.4c-1.1-1-2.2-2.1-3.4-3
	c-0.2-0.2-0.7-0.2-1-0.1c-0.2,0.1-0.3,0.6-0.3,0.8c0.3,1.3,1.3,2.1,2.3,2.8c0.8,0.5,1.6,0.8,2.4,1.2c1.7,0.7,3.3,1.5,5,2
	c3.3,1,6.6,0.8,10,0.5c4-0.3,7.7-1.4,11.1-3.5c2.6-1.6,5-3.7,7.5-5.6c2.4-1.9,2.4-2.2,0.7-4.7C298.2,151.3,298.2,151.3,298.1,151.2z
	 M297.1,149.5c-1.4-1.4-3.5-1.3-5.4,0.3c-1.2,1-2.3,2-3.7,2.7c-2.3,1.3-4.7,2.5-7.2,3.5c-2.8,1-5.7,1.3-8.6,0.3
	c-2-0.6-4.1-1.1-6.1-1.9c-1.5-0.6-2.9-1.6-4.3-2.4c-0.5-0.3-1-0.6-1.5-0.8c-0.7,1.3-0.7,2.4,0,3.6c0.7,1,1.2,2.1,2.4,2.6
	c1.1-1,3.4-0.7,4,0.9c0.4,1,1.2,1.4,2.2,1.5c0.9,0.1,1.8,0.2,2.7,0.2c0.4,0,0.9-0.3,1.1-0.6c0.8-1.1,1.9-1.6,2.9-0.7
	c1.3,1.2,2.6,0.7,3.9,0.4c1.6-0.4,3.3-0.6,3.8-2.6c0.1-0.3,1.1-0.7,1.3-0.6c1.3,0.9,2.3,0,3.3-0.5c0.8-0.4,1.6-0.8,2.3-1.3
	c0.4-0.3,0.7-0.7,0.8-1.1c0.3-1.1,1.4-1.8,2.5-1.7c0.5,0.1,1-0.1,1.5-0.3C295.7,150.5,296.3,150,297.1,149.5z M290.7,171
	c-0.7-0.2-1.1-0.3-1.5-0.3c-2.5-0.2-5,0.3-7.3,1.2c-1.1,0.4-2.1,1.3-3.1,2.1c-1,0.8-2.6,0.7-2.4-0.2c0.2-0.9,0.5-0.8,0.7-1.2
	c-2-0.3-4.8,1.3-5.2,3C278.6,176.1,284.8,174.7,290.7,171z"/>
<linearGradient id="SVGID_13_" gradientUnits="userSpaceOnUse" x1="127.3365" y1="370.5208" x2="379.3365" y2="69.9991">
	<stop  offset="0" style="stop-color:#9E2DDC"/>
	<stop  offset="1" style="stop-color:#0D6AD9"/>
</linearGradient>
<path class="st12" d="M311.5,141.7c-0.2-0.6,3.2,0.2,3.7,1.2c0.9,1.9-0.1,4.2-2.4,5.9c0.4,0.6,0.8,1.3,1.4,1.8
	c0.3,0.3,1,0.5,1.5,0.3c1.2-0.4,3-1,2.7,0.9c-0.3,1.9-3.8,1.4-5.4-0.2c-0.9-1-1.7-2.2-2.3-3.4c-0.4-0.6,0.1-1,0.8-1.1
	c1.6-0.4,2.2-1.1,2.3-2.5c0.1-0.9,0-1.6-1.1-1.9C312.1,142.7,311.7,142.3,311.5,141.7z"/>
<linearGradient id="SVGID_14_" gradientUnits="userSpaceOnUse" x1="123.5633" y1="367.3568" x2="375.5633" y2="66.8351">
	<stop  offset="0" style="stop-color:#9E2DDC"/>
	<stop  offset="1" style="stop-color:#0D6AD9"/>
</linearGradient>
<path class="st13" d="M318.1,133.4c1.8-0.1,1.9,0.3,2.6,1.2c0.2,0.1,0.2,0.7,0.1,1c-0.1,0.2-0.5,0.3-0.8,0.2
	c-0.6-0.1-1.4-0.6-1.8-0.3c-0.9,0.5-1.6,1.3-2.3,2c-0.3,0.3-0.3,0.9-0.5,1.4c-0.1,0.3-0.2,0.7-0.5,0.7c-0.3,0.1-0.5-0.3-0.8-0.6
	c-0.1-0.1-0.2-0.3-0.2-0.5C313.4,136.8,316.3,133.6,318.1,133.4z"/>
<linearGradient id="SVGID_15_" gradientUnits="userSpaceOnUse" x1="82.9213" y1="333.2768" x2="334.9213" y2="32.755">
	<stop  offset="0" style="stop-color:#9E2DDC"/>
	<stop  offset="1" style="stop-color:#0D6AD9"/>
</linearGradient>
<path class="st14" d="M261.7,123.9c0.1,1.3,0.1,2.6-1.1,3.1c-1.2,0.5-2.3-0.2-3.3-0.9c-1.3-0.9-2-2.1-1.8-3.7c0.1-1.1,0.7-2,1.7-2.2
	c1-0.2,2.2,0,3,0.5C261.4,121.3,262.1,122.5,261.7,123.9z"/>
<linearGradient id="SVGID_16_" gradientUnits="userSpaceOnUse" x1="102.519" y1="349.7103" x2="354.519" y2="49.1885">
	<stop  offset="0" style="stop-color:#9E2DDC"/>
	<stop  offset="1" style="stop-color:#0D6AD9"/>
</linearGradient>
<path class="st15" d="M291.2,128.5c-1.9,0-3.5-1.6-3.5-3.6c0-1.6,1.7-3.4,3.2-3.4c1.4,0,3,1.8,3,3.3
	C293.9,127,292.9,128.4,291.2,128.5z"/>
<linearGradient id="SVGID_17_" gradientUnits="userSpaceOnUse" x1="222.8751" y1="449.2115" x2="474.8752" y2="148.6898">
	<stop  offset="0" style="stop-color:#9E2DDC"/>
	<stop  offset="1" style="stop-color:#0D6AD9"/>
</linearGradient>
<path class="st16" d="M341.5,316.7c-0.7-0.7-1.7-1.3-2.7-2.1c0.4-1.2-0.2-2.2-1.2-3.1c-0.4-0.3-0.7-0.9-0.8-1.4
	c-0.3-1.5-1.1-2.7-2.7-2.9c-0.7-0.1-1.6,0.4-2.3,0.8c-0.2,0.1,0,1,0.1,1.5c0.1,0.8,0.7,1.6-0.1,2.5c-0.2,0.3-0.1,1.3,0.2,1.5
	c1.1,0.8,0.8,1.9,1,2.9c0.3,1.3,0.6,2.6,1.2,3.8c0.2,0.4,1.1,0.5,1.7,0.5c2,0,4,0,5.4-1.7C342,318.4,342.3,317.4,341.5,316.7z
	 M334.4,311.4c-0.1-0.1-0.2-0.1-0.3-0.2c-0.2-0.7-0.3-1.3-0.6-2.4c0.8,0.3,1.4,0.5,1.9,0.7C335.1,310.2,334.7,310.8,334.4,311.4z
	 M334.6,313.6c0.3-0.4,1.1-0.6,1.7-0.6c0.3,0,0.9,0.3,0.9,0.4c0,0.4-0.1,0.9-0.4,1.1c-0.6,0.4-1.3,0.6-2.1,1
	C334.7,314.7,334.3,314,334.6,313.6z M335.1,317.6c3.7-0.9,3.7-0.9,4.8-0.1C338.3,319.2,335.6,319.3,335.1,317.6z"/>
</svg>
